<?xml version="1.0" encoding="utf-8"?>
<svg xmlns="http://www.w3.org/2000/svg" fill="none" height="40" viewBox="0 0 72 40" width="72">
<path d="M24.9003 8.15654L28.1894 7.70452C28.3529 7.68529 28.4972 7.84878 28.4587 8.00266L24.1982 22.9482C24.1116 23.2463 24.4001 23.5733 24.7175 23.5541L26.7757 23.3618C27.17 23.3233 27.4874 23.0636 27.5739 22.6885L28.0548 20.7939C28.0933 20.64 28.2183 20.5342 28.3818 20.5246L28.9107 20.4765C29.0646 20.4765 29.1993 20.6208 29.1704 20.7747L28.728 22.5347C28.6511 22.8328 28.9396 23.1502 29.2473 23.1309L31.3247 22.929C31.719 22.8905 32.0364 22.6308 32.123 22.2557L32.575 20.438C32.6135 20.2842 32.7385 20.1784 32.902 20.1688L36.8355 19.861C38.7205 19.6783 40.5671 18.2837 40.9614 16.7257L41.8943 12.9845C42.279 11.4361 41.0768 10.3301 39.1822 10.5032L38.3166 10.5801C38.9802 10.0319 39.4803 9.33949 39.6534 8.6278L40.1247 6.75239C40.5094 5.20398 39.3072 4.09797 37.4126 4.27109L38.1916 1.17426C38.2685 0.876123 37.98 0.558746 37.6722 0.577981L35.5949 0.779948C35.2006 0.818418 34.8832 1.07809 34.7966 1.45317L34.0753 4.32879C34.0368 4.48267 33.9118 4.57885 33.7579 4.59808L33.2194 4.65579C33.0655 4.67502 32.9212 4.51152 32.9597 4.35765L33.6521 1.59743C33.7291 1.29929 33.4406 0.981915 33.1328 1.00115L31.0554 1.20312C30.6611 1.24159 30.3437 1.50126 30.2572 1.87634L29.5359 4.75196C29.4974 4.90584 29.3724 5.00202 29.2185 5.02125L25.4292 5.3771C25.1118 5.40595 24.8618 5.61753 24.7945 5.91567L24.3809 7.55064C24.304 7.8584 24.6021 8.1854 24.9195 8.13731H24.9003V8.15654ZM28.8242 17.6682L32.0941 7.70452C32.1422 7.56026 32.2576 7.4737 32.4115 7.46409L35.5853 7.16595C36.2104 7.09862 36.6239 7.4737 36.4797 7.98343L36.2392 8.91632C36.1142 9.42605 35.4891 9.89731 34.8639 9.96463C34.4696 10.0031 34.1523 10.2628 34.0657 10.6378L33.806 11.6862L33.681 12.1766C33.6041 12.4748 33.8926 12.7922 34.2003 12.7729L37.5761 12.4459C38.2012 12.3786 38.6148 12.7537 38.4705 13.2634L37.7588 16.0717C37.6338 16.5814 37.0086 17.0527 36.3835 17.12L28.7857 17.7163V17.649H28.8146L28.8242 17.6682ZM43.0196 18.6781L44.8469 11.3976C44.9238 11.0995 45.1643 10.8783 45.4816 10.8591L47.6936 10.6475C48.011 10.6186 48.2899 10.9264 48.213 11.2438L46.3857 18.5242C46.3087 18.8223 46.0683 19.0435 45.7509 19.0628L43.5389 19.2743C43.2215 19.3032 42.9426 18.9954 43.0196 18.6781ZM45.2412 8.67589L45.6644 7.01207C45.7413 6.71392 45.9817 6.49272 46.2991 6.47349L48.5111 6.2619C48.8285 6.23305 49.1074 6.54081 49.0305 6.85819L48.6073 8.52201C48.5304 8.82015 48.2899 9.04135 47.9726 9.06059L45.7605 9.27217C45.4432 9.30102 45.1643 8.99326 45.2412 8.67589ZM68.727 16.543C68.6405 16.8219 68.4 17.0142 68.1019 17.0431L49.771 18.7935C49.4536 18.8223 49.1747 18.5146 49.2517 18.1972L52.7236 4.36726C52.8005 4.06912 53.041 3.84792 53.3583 3.82869L55.5704 3.6171C55.8877 3.58825 56.1666 3.89601 56.0897 4.21338L55.6377 6.0407C55.5992 6.19458 55.7435 6.34846 55.8973 6.33884L62.8412 5.67524C63.1585 5.64639 63.4374 5.95414 63.3605 6.27152L62.9373 7.93534C62.8604 8.23348 62.62 8.45469 62.3026 8.47392L54.849 9.18561L53.2814 15.4177C53.2429 15.5716 53.3872 15.7255 53.5411 15.7159L68.727 14.2636C69.054 14.2348 69.3329 14.5714 69.2464 14.8695L68.727 16.543Z" fill="#2B2E64"/>
<path d="M24.6906 24.1322C24.3665 24.1322 24.053 23.9783 23.8414 23.7138C23.6269 23.4455 23.5529 23.0993 23.6433 22.7877L27.7605 8.34609L24.9782 8.7279C24.9003 8.73848 24.8224 8.73271 24.7483 8.71251C24.4963 8.68558 24.2549 8.56344 24.0741 8.3634C23.8327 8.09795 23.7385 7.74115 23.8212 7.40934L24.2338 5.77918C24.3578 5.24445 24.8166 4.85206 25.3773 4.80109L29.0146 4.45967L29.6975 1.73889C29.8417 1.12625 30.3524 0.690583 31.0006 0.627108L33.078 0.425141C33.0847 0.425141 33.0915 0.42418 33.0982 0.423218C33.4348 0.401098 33.7704 0.552092 33.9955 0.825228C34.1224 0.979107 34.2023 1.15607 34.2321 1.3388L34.2379 1.31572C34.3821 0.703086 34.8928 0.266453 35.541 0.20394L37.6165 0.00389631C37.6232 0.00389631 37.6299 0.00293456 37.6367 0.00197281C37.9723 -0.0191856 38.3089 0.130847 38.534 0.403983C38.7533 0.669425 38.8321 1.00315 38.7513 1.3186L38.1541 3.69123C39.0139 3.76336 39.741 4.09613 40.2141 4.64721C40.7287 5.24638 40.896 6.04366 40.6854 6.89096L40.2141 8.76829C40.1199 9.15395 39.9458 9.54058 39.7006 9.91085C40.6566 9.94066 41.4702 10.2811 41.9838 10.8803C42.4983 11.4795 42.6656 12.2767 42.455 13.124L41.5221 16.8662C41.0682 18.6618 39.0341 20.2285 36.8923 20.4362C36.8884 20.4362 36.8855 20.4362 36.8817 20.4362L33.0972 20.7324L32.6846 22.3914C32.5404 23.0041 32.0297 23.4397 31.3815 23.5032L29.3041 23.7052C29.2974 23.7052 29.2906 23.7061 29.2839 23.7071C28.9473 23.7273 28.6116 23.5782 28.3866 23.3051C28.2558 23.1464 28.174 22.9637 28.1481 22.7742L28.1356 22.8252C27.9913 23.4368 27.4806 23.8725 26.8324 23.936L24.7723 24.1283C24.7656 24.1283 24.7598 24.1293 24.7531 24.1303C24.7329 24.1312 24.7118 24.1322 24.6916 24.1322H24.6906ZM24.7541 23.105V23.107C24.7541 23.107 24.7541 23.106 24.7541 23.105ZM28.2154 7.12563C28.4491 7.12563 28.6751 7.22757 28.8348 7.40934C29.0136 7.61323 29.0829 7.88733 29.0185 8.1422C29.0165 8.14797 29.0156 8.1547 29.0136 8.16047L24.7925 22.9675L26.7218 22.7877C26.8728 22.7732 26.9815 22.6876 27.0113 22.5588C27.0113 22.5549 27.0132 22.5511 27.0142 22.5463L27.4951 20.6516C27.5931 20.2592 27.9307 19.9774 28.3366 19.9486L28.8588 19.9015C28.8761 19.8995 28.8934 19.8995 28.9107 19.8995C29.1608 19.8995 29.3974 20.0111 29.5599 20.2063C29.7176 20.3968 29.783 20.642 29.7378 20.8805C29.7359 20.8921 29.733 20.9036 29.7301 20.9152L29.3204 22.5434L31.2689 22.3539C31.4219 22.3385 31.5315 22.2539 31.5604 22.125C31.5604 22.1221 31.5623 22.1183 31.5623 22.1154L32.0143 20.2977C32.1134 19.9015 32.4529 19.6187 32.8606 19.5918L36.7846 19.285C38.4157 19.1244 40.0708 17.8885 40.4017 16.5834L41.3336 12.8442C41.4529 12.3633 41.375 11.943 41.1066 11.6304C40.7402 11.2034 40.0574 11.0015 39.2341 11.0774L38.3676 11.1544C38.1156 11.1765 37.879 11.0322 37.7829 10.7985C37.6867 10.5648 37.754 10.2955 37.9492 10.1349C38.5407 9.64637 38.9571 9.0472 39.0928 8.49131L39.565 6.61206C39.6842 6.13214 39.6054 5.71186 39.338 5.39929C38.9716 4.97228 38.2887 4.77031 37.4655 4.84629C37.2789 4.8636 37.0962 4.78859 36.975 4.64625C36.8538 4.50391 36.8086 4.31156 36.8538 4.13075L37.6001 1.16569L35.6516 1.35515C35.4987 1.37054 35.3891 1.45517 35.3602 1.58405C35.3602 1.58789 35.3583 1.59078 35.3573 1.59462L34.636 4.47025C34.5418 4.84725 34.2254 5.12231 33.8301 5.17136C33.8272 5.17136 33.8233 5.17136 33.8205 5.17232L33.2848 5.23003C33.0261 5.25984 32.7664 5.1579 32.5875 4.95689C32.4057 4.75204 32.3365 4.47602 32.4009 4.21923L33.0607 1.58982L31.1122 1.77928C30.9593 1.79467 30.8496 1.8793 30.8208 2.00818C30.8208 2.01202 30.8188 2.01491 30.8179 2.01876L30.0966 4.89438C30.0023 5.27138 29.6859 5.54644 29.2916 5.59549C29.2858 5.59549 29.2801 5.59645 29.2743 5.59741L25.485 5.95326C25.4436 5.95711 25.3754 5.97346 25.359 6.04463C25.3581 6.04943 25.3571 6.05424 25.3552 6.05905L24.9743 7.56419H24.9801L28.1125 7.13428C28.1163 7.13428 28.1202 7.13428 28.124 7.13332C28.1548 7.12948 28.1865 7.12755 28.2173 7.12755L28.2154 7.12563ZM29.2887 22.6732V22.6751C29.2887 22.6751 29.2887 22.6742 29.2887 22.6732ZM37.6319 1.03393C37.6319 1.03393 37.6319 1.03489 37.6319 1.03585V1.03393ZM43.4995 19.8534C43.1917 19.8534 42.8955 19.7168 42.6897 19.4783C42.4656 19.2186 42.379 18.8686 42.4579 18.5416C42.4579 18.5396 42.4579 18.5387 42.4589 18.5368L44.2862 11.2563C44.4295 10.7004 44.8796 10.3215 45.4345 10.283L47.6379 10.0724C47.9774 10.0416 48.3149 10.1801 48.541 10.4427C48.765 10.7024 48.8516 11.0524 48.7727 11.3794L46.9445 18.6647C46.8011 19.2196 46.3511 19.5995 45.7961 19.638L43.5928 19.8486C43.561 19.8515 43.5303 19.8524 43.4985 19.8524L43.4995 19.8534ZM47.6206 11.2342L45.5365 11.4333C45.5297 11.4333 45.523 11.4343 45.5163 11.4352C45.4461 11.4391 45.4172 11.4958 45.4057 11.542L43.612 18.6877L45.6961 18.4887C45.7028 18.4887 45.7096 18.4877 45.7163 18.4867C45.7865 18.4829 45.8154 18.4262 45.8269 18.38L47.6206 11.2342ZM49.7316 19.3725C49.4248 19.3725 49.1276 19.2359 48.9228 18.9974C48.6987 18.7378 48.6121 18.3877 48.691 18.0607L52.1639 4.22596C52.3071 3.67104 52.7563 3.29115 53.3122 3.25268L55.5155 3.04205C55.855 3.01128 56.1926 3.14977 56.4186 3.41233C56.6427 3.672 56.7293 4.02207 56.6504 4.34907L56.3119 5.71956L62.7863 5.10115C63.1268 5.06942 63.4634 5.20887 63.6894 5.47143C63.9135 5.7311 64.0001 6.08117 63.9212 6.40817L63.4961 8.07776C63.3528 8.63172 62.9037 9.01065 62.3487 9.04912L55.3088 9.72138L53.9565 15.0966L68.6713 13.6895C69.0213 13.6588 69.3637 13.8059 69.5917 14.0839C69.8148 14.356 69.8927 14.71 69.7994 15.0302C69.7984 15.0341 69.7975 15.037 69.7965 15.0408L69.2772 16.7142C69.1223 17.2124 68.6828 17.5673 68.1567 17.6173L49.8249 19.3677C49.7931 19.3706 49.7624 19.3715 49.7306 19.3715L49.7316 19.3725ZM55.4973 4.20384L53.4132 4.40292C53.4064 4.40292 53.3997 4.40389 53.393 4.40485C53.3228 4.4087 53.2939 4.46544 53.2824 4.5116L49.8441 18.2069L68.0471 16.469C68.0933 16.4642 68.1538 16.444 68.176 16.3719L68.6482 14.8504L53.5959 16.2901C53.5892 16.2901 53.5834 16.2911 53.5767 16.292C53.317 16.3084 53.0602 16.1959 52.889 15.99C52.7226 15.79 52.6601 15.5236 52.7217 15.2784L54.2893 9.04528C54.3489 8.80869 54.5509 8.63461 54.7942 8.61153L62.2478 7.89983C62.2545 7.89983 62.2612 7.89887 62.268 7.89791C62.3382 7.89406 62.367 7.83732 62.3786 7.79116L62.7671 6.26198L55.9522 6.91308C55.9454 6.91308 55.9397 6.91404 55.9329 6.91501C55.6742 6.93232 55.4165 6.81883 55.2453 6.61302C55.0789 6.41297 55.0164 6.14657 55.0779 5.90133L55.4982 4.20384H55.4973ZM56.1984 6.17735V6.17927C56.1984 6.17927 56.1984 6.17927 56.1984 6.17735ZM28.7857 18.2934C28.6415 18.2934 28.501 18.2386 28.3943 18.1405C28.276 18.0309 28.2087 17.878 28.2087 17.7164V17.6491C28.2087 17.5067 28.2606 17.3759 28.3462 17.2759L31.5459 7.52475C31.6681 7.15929 31.9806 6.91693 32.3644 6.88904L35.5314 6.59186C36.0546 6.53512 36.5268 6.69958 36.8163 7.04292C37.0664 7.33914 37.1471 7.73634 37.0365 8.13354L36.798 9.06066C36.6182 9.79255 35.7949 10.4446 34.9255 10.5389C34.7668 10.5543 34.6572 10.6399 34.6274 10.7678L34.2734 12.1863L37.5193 11.8718C38.0454 11.8151 38.5157 11.9796 38.8062 12.3229C39.0562 12.6191 39.137 13.0163 39.0274 13.4126L38.3176 16.2141C38.1377 16.9489 37.3145 17.601 36.4451 17.6943C36.4393 17.6943 36.4335 17.6952 36.4287 17.6962L28.8309 18.2925C28.8155 18.2934 28.8011 18.2944 28.7857 18.2944V18.2934ZM32.5962 8.02678L29.6272 17.072L36.3287 16.5459C36.7394 16.4978 37.1394 16.1737 37.1981 15.9343L37.9108 13.1221C37.9117 13.1173 37.9137 13.1115 37.9146 13.1067C37.9223 13.0798 37.9223 13.0635 37.9213 13.0596C37.9137 13.0529 37.8261 12.999 37.6376 13.0192L34.2561 13.3472C34.2494 13.3472 34.2427 13.3481 34.2369 13.3491C33.9003 13.3702 33.5646 13.2202 33.3396 12.9471C33.1203 12.6816 33.0414 12.3479 33.1222 12.0325L33.2473 11.5439L33.506 10.4994C33.6454 9.89257 34.158 9.45402 34.8082 9.39054C35.216 9.3463 35.6199 9.02027 35.6786 8.77887L35.9209 7.83924C35.9209 7.83924 35.9228 7.83059 35.9248 7.82578C35.9325 7.79885 35.9325 7.7825 35.9315 7.77865C35.9238 7.77192 35.8363 7.71806 35.6478 7.73826L32.5962 8.02486V8.02678ZM45.7211 9.85122C45.4134 9.85122 45.1171 9.71465 44.9113 9.4771C44.6872 9.21743 44.6007 8.86735 44.6795 8.54036C44.6795 8.53843 44.6805 8.53651 44.6815 8.53363L45.1046 6.8698C45.2479 6.31584 45.6971 5.93691 46.252 5.89844L48.4554 5.68782C48.7958 5.65608 49.1324 5.79553 49.3584 6.05809C49.5825 6.31776 49.6691 6.66784 49.5902 6.99483L49.1651 8.66539C49.0218 9.21935 48.5727 9.59828 48.0178 9.63675L45.8144 9.84737C45.7827 9.85026 45.7519 9.85122 45.7201 9.85122H45.7211ZM48.438 6.84865L46.3549 7.04773C46.3482 7.04773 46.3414 7.04869 46.3347 7.04965C46.2645 7.0535 46.2356 7.11024 46.2241 7.15641L45.8356 8.68558L47.9187 8.4865C47.9254 8.4865 47.9322 8.48554 47.9389 8.48458C48.0091 8.48073 48.038 8.42399 48.0495 8.37782L48.438 6.84865Z" fill="#2E80E2"/>
<path d="M24.6922 23.6515C24.5114 23.6515 24.3374 23.5639 24.2171 23.4139C24.0988 23.2658 24.0575 23.0859 24.1056 22.9215L28.3661 7.97594C28.3757 7.93844 28.3623 7.89131 28.3296 7.8538C28.2949 7.81437 28.2469 7.79514 28.2007 7.79995L24.9134 8.25197C24.8913 8.25485 24.8682 8.25004 24.85 8.2385C24.6961 8.23658 24.5441 8.16637 24.4306 8.04134C24.2979 7.89516 24.2441 7.70281 24.2883 7.52777L24.7019 5.8928C24.7778 5.55523 25.0606 5.31479 25.4212 5.28209L29.2105 4.92625C29.3279 4.91182 29.4163 4.83777 29.4433 4.72909L30.1646 1.85347C30.2588 1.44472 30.6051 1.15139 31.0465 1.10811L33.1239 0.906146C33.3114 0.894605 33.4961 0.979239 33.623 1.13408C33.7432 1.2793 33.7875 1.45723 33.7452 1.62265L33.0527 4.3819C33.0421 4.42422 33.0566 4.47134 33.0902 4.50981C33.1229 4.54636 33.1672 4.56655 33.2075 4.56078L33.748 4.50308C33.8673 4.48865 33.9548 4.4146 33.9827 4.30592L34.704 1.4303C34.7983 1.02156 35.1445 0.728223 35.5859 0.684945L37.6633 0.482978C37.8509 0.471437 38.0355 0.556071 38.1625 0.710912C38.2827 0.856136 38.3269 1.03406 38.2846 1.19948L37.5383 4.16647C38.5231 4.10684 39.3608 4.39344 39.8484 4.96183C40.2591 5.43982 40.3899 6.08419 40.2177 6.77665L39.7465 8.65205C39.5935 9.27911 39.1915 9.9129 38.602 10.4592L39.1733 10.4082C40.2168 10.313 41.1073 10.5996 41.618 11.1939C42.0287 11.6719 42.1595 12.3163 41.9873 13.0088L41.0544 16.75C40.6534 18.333 38.7655 19.7718 36.8449 19.9574L32.9094 20.2651C32.7882 20.2719 32.6969 20.3479 32.668 20.4613L32.216 22.279C32.1217 22.6887 31.7755 22.9821 31.3341 23.0244L29.2567 23.2264C29.0711 23.2389 28.8845 23.1533 28.7575 22.9984C28.6373 22.8532 28.5931 22.6753 28.6354 22.5099L29.0778 20.7508C29.0874 20.7008 29.0595 20.6575 29.0422 20.6364C29.0086 20.596 28.9605 20.5719 28.9114 20.5719L28.3911 20.62C28.269 20.6277 28.1776 20.7027 28.1488 20.8172L27.6679 22.7118C27.5736 23.1206 27.2274 23.4139 26.786 23.4572L24.7278 23.6495C24.7163 23.6495 24.7047 23.6495 24.6942 23.6495L24.6922 23.6515ZM28.2142 7.6076C28.3113 7.6076 28.4055 7.65087 28.4729 7.72781C28.5479 7.81245 28.5767 7.92401 28.5517 8.02692L24.2902 22.9753C24.2604 23.0792 24.2883 23.1956 24.3672 23.2937C24.4547 23.4024 24.5855 23.4649 24.7115 23.4581L26.7667 23.2658C27.1245 23.2312 27.4044 22.9955 27.4803 22.6666L27.9622 20.7701C28.0112 20.5748 28.1738 20.4402 28.3767 20.4286L28.9028 20.3806H28.9037C29.0172 20.3806 29.1211 20.4306 29.1894 20.5133C29.2557 20.5931 29.2827 20.6941 29.2653 20.7922L28.822 22.5579C28.7951 22.6628 28.8258 22.7782 28.9057 22.8763C28.9932 22.9811 29.122 23.0427 29.2413 23.035L31.3158 22.833C31.6736 22.7984 31.9534 22.5628 32.0294 22.2338L32.4814 20.4142C32.5305 20.218 32.693 20.0843 32.8959 20.0718L36.8276 19.7641C38.6722 19.5852 40.486 18.2108 40.8679 16.7009L41.8008 12.9597C41.9575 12.3298 41.8402 11.746 41.4718 11.3171C41.0025 10.7708 40.1716 10.5082 39.1906 10.5977L38.325 10.6746C38.2836 10.6794 38.2433 10.6544 38.2279 10.615C38.2115 10.5755 38.2231 10.5313 38.2558 10.5044C38.9357 9.94272 39.3983 9.26757 39.5599 8.603L40.0311 6.72664C40.1879 6.09669 40.0706 5.51291 39.7022 5.08397C39.2329 4.5377 38.4019 4.27514 37.421 4.36459C37.3902 4.36747 37.3594 4.35497 37.3392 4.33093C37.319 4.30688 37.3113 4.27514 37.319 4.24533L38.098 1.14851C38.125 1.04368 38.0942 0.928267 38.0144 0.830168C37.9278 0.725338 37.7989 0.664748 37.6787 0.67148L35.6042 0.873447C35.2465 0.90807 34.9666 1.1437 34.8906 1.47262L34.1693 4.35016C34.1231 4.53578 33.9702 4.66658 33.7702 4.69158L33.2297 4.74929C33.1287 4.76275 33.0219 4.71947 32.9469 4.63484C32.8709 4.54924 32.8411 4.43576 32.8671 4.33285L33.5595 1.57264C33.5865 1.46781 33.5557 1.35144 33.4759 1.2543C33.3893 1.14947 33.2604 1.08888 33.1402 1.09561L31.0657 1.29758C30.708 1.3322 30.4281 1.56783 30.3521 1.89675L29.6308 4.77429C29.5846 4.95991 29.4317 5.09071 29.2317 5.11571L25.4395 5.47156C25.1635 5.49656 24.9471 5.67833 24.8894 5.93512L24.4749 7.57297C24.447 7.6855 24.4835 7.81149 24.573 7.91055C24.6547 8.00095 24.7644 8.05192 24.8721 8.04423C24.8807 8.04134 24.8904 8.04038 24.9009 8.04038H24.9202C24.9356 8.04038 24.95 8.04423 24.9625 8.05L28.1767 7.60856C28.1892 7.60663 28.2026 7.60663 28.2151 7.60663L28.2142 7.6076ZM43.4982 19.3726C43.3319 19.3726 43.1684 19.2967 43.0549 19.1649C42.9298 19.0197 42.8827 18.835 42.926 18.6561L44.7533 11.3757C44.8437 11.0256 45.1274 10.7852 45.4756 10.765L47.6838 10.5534C47.8674 10.5371 48.0521 10.614 48.1771 10.7592C48.3022 10.9045 48.3493 11.0901 48.306 11.268L46.4787 18.5494C46.3883 18.8995 46.1046 19.1389 45.7564 19.1601L43.5473 19.3717C43.5309 19.3736 43.5146 19.3736 43.4973 19.3736L43.4982 19.3726ZM43.1126 18.7013C43.0847 18.8187 43.1164 18.9418 43.2001 19.0389C43.2847 19.137 43.4088 19.1899 43.53 19.1784L45.742 18.9668C46.0084 18.9504 46.2238 18.7677 46.2931 18.5003L48.1204 11.2209C48.1483 11.1045 48.1165 10.9804 48.0329 10.8833C47.9482 10.7842 47.8251 10.7313 47.703 10.7439L45.491 10.9554C45.2246 10.9718 45.0091 11.1545 44.9399 11.4219L43.1126 18.7013ZM49.7304 18.8918C49.564 18.8918 49.4005 18.8158 49.287 18.684C49.162 18.5388 49.1148 18.3532 49.1581 18.1753L52.63 4.34439C52.7204 3.99431 53.0041 3.75388 53.3523 3.73272L55.5614 3.52114C55.7451 3.50479 55.9298 3.58076 56.0548 3.72695C56.1798 3.87217 56.227 4.05779 56.1837 4.23571L55.7316 6.06303C55.722 6.10246 55.7336 6.14574 55.7634 6.18133C55.7971 6.22172 55.8461 6.24576 55.8913 6.24192L62.8322 5.57831C63.0159 5.561 63.2006 5.6389 63.3256 5.78412C63.4506 5.92935 63.4978 6.114 63.4545 6.29289L63.0313 7.95767C62.9409 8.30775 62.6572 8.54722 62.309 8.56838L54.9267 9.27334L53.3754 15.4401C53.3658 15.4785 53.3773 15.5218 53.4071 15.5584C53.4408 15.5987 53.4889 15.6218 53.535 15.6189L68.7181 14.1667C68.9057 14.1494 69.0942 14.2331 69.2211 14.3879C69.3433 14.537 69.3875 14.7264 69.3384 14.8957L68.8181 16.5711C68.72 16.8885 68.4488 17.1058 68.1103 17.1385L49.7794 18.8889C49.7631 18.8908 49.7467 18.8908 49.7294 18.8908L49.7304 18.8918ZM55.6114 3.71156C55.6009 3.71156 55.5903 3.71156 55.5787 3.71348L53.3667 3.92507C53.1003 3.94142 52.8849 4.12415 52.8156 4.39248L49.3437 18.2214C49.3158 18.3378 49.3476 18.4619 49.4312 18.559C49.5159 18.6571 49.639 18.71 49.7611 18.6985L68.092 16.9481C68.3517 16.9231 68.5594 16.7567 68.6344 16.5153L69.1538 14.8419C69.1846 14.7361 69.1538 14.612 69.072 14.512C68.9845 14.4062 68.8585 14.3504 68.7354 14.36L53.5504 15.8123C53.4408 15.82 53.3321 15.7709 53.259 15.6834C53.1888 15.5997 53.1638 15.4949 53.1878 15.3958L54.7555 9.1637C54.7651 9.12427 54.7988 9.09542 54.8392 9.09157L62.2927 8.37988C62.5591 8.36353 62.7745 8.1808 62.8438 7.91343L63.2669 6.24961C63.2948 6.13324 63.2631 6.01014 63.1794 5.913C63.0948 5.81394 62.9717 5.76104 62.8495 5.77355L55.9067 6.43715C55.7951 6.44484 55.6884 6.3958 55.6153 6.30828C55.5451 6.2246 55.5201 6.11977 55.5441 6.02071L55.9961 4.1934C56.024 4.07606 55.9923 3.95296 55.9086 3.85582C55.8307 3.76638 55.722 3.71445 55.6114 3.71445V3.71156ZM28.7854 17.8127C28.7614 17.8127 28.7383 17.804 28.72 17.7867C28.6998 17.7684 28.6893 17.7425 28.6893 17.7165V17.6492C28.6893 17.6049 28.7191 17.5684 28.7595 17.5569L32.0025 7.67492C32.0621 7.49507 32.2131 7.38062 32.4055 7.36812L35.5763 7.06998C35.9447 7.03055 36.264 7.13345 36.4486 7.35273C36.5977 7.52969 36.6419 7.7634 36.5717 8.00961L36.3323 8.94058C36.1986 9.48589 35.5446 9.98792 34.8743 10.0601C34.5155 10.0947 34.2357 10.3303 34.1597 10.6592L33.774 12.1999C33.7471 12.3048 33.7779 12.4202 33.8577 12.5173C33.9442 12.6221 34.0741 12.6837 34.1933 12.676L37.5662 12.349C37.9355 12.3086 38.2538 12.4125 38.4394 12.6318C38.5885 12.8087 38.6328 13.0424 38.5626 13.2886L37.8518 16.094C37.7181 16.6394 37.0642 17.1424 36.3938 17.2145L28.7931 17.8108C28.7931 17.8108 28.7883 17.8108 28.7854 17.8108V17.8127ZM35.7292 7.25464C35.686 7.25464 35.6408 7.25752 35.5956 7.26233L32.4208 7.56047C32.3016 7.56816 32.2218 7.62875 32.1862 7.73551L28.946 17.6078L36.3765 17.025C36.9603 16.9625 37.5518 16.5153 37.6662 16.0498L38.3779 13.2405C38.4308 13.052 38.4019 12.8857 38.2933 12.7577C38.15 12.5885 37.8922 12.5096 37.5873 12.5423L34.2106 12.8693C34.025 12.8818 33.8385 12.7962 33.7115 12.6414C33.5913 12.4962 33.547 12.3182 33.5894 12.1528L33.7144 11.6623L33.9741 10.615C34.0683 10.2053 34.4145 9.91194 34.856 9.86962C35.4417 9.80615 36.0332 9.3599 36.1476 8.89441L36.388 7.96056C36.4409 7.77205 36.4121 7.60663 36.3034 7.47776C36.1813 7.3335 35.9774 7.2556 35.7312 7.2556L35.7292 7.25464ZM45.7199 9.37048C45.5535 9.37048 45.39 9.2945 45.2765 9.16274C45.1515 9.01752 45.1044 8.8319 45.1476 8.65398C45.1476 8.65398 45.1476 8.65398 45.1476 8.65302L45.5708 6.98919C45.6612 6.63912 45.9449 6.39964 46.2931 6.37848L48.5022 6.1669C48.6859 6.15055 48.8706 6.22653 48.9956 6.37271C49.1206 6.51794 49.1677 6.70355 49.1245 6.88148L48.7013 8.54626C48.6109 8.89634 48.3272 9.13581 47.979 9.15697L45.7699 9.36855C45.7535 9.37048 45.7372 9.37048 45.7199 9.37048ZM45.3342 8.69918C45.3063 8.81651 45.3381 8.93962 45.4217 9.03675C45.5064 9.13581 45.6304 9.18871 45.7516 9.1762L47.9636 8.96462C48.23 8.94827 48.4455 8.76554 48.5147 8.49817L48.9379 6.83435C48.9658 6.71798 48.934 6.59488 48.8504 6.49774C48.7657 6.39868 48.6417 6.34578 48.5205 6.35829L46.3085 6.56987C46.0421 6.58622 45.8266 6.76895 45.7574 7.03728L45.3342 8.70014V8.69918Z" fill="white"/>
<path d="M12.3784 38.6536L8.50252 39.0383L14.398 16.9085L4.50166 17.9087L4.48242 11.8497L22.9672 9.95508L15.3982 38.2785" fill="#2B2E64"/>
<path d="M8.50236 40C8.22153 40 7.95321 39.8769 7.76951 39.6614C7.56562 39.421 7.49157 39.0959 7.57332 38.7911L13.1111 18.0058L4.59863 18.8666C4.32934 18.8935 4.06006 18.806 3.85809 18.6242C3.65612 18.4424 3.54071 18.1837 3.53975 17.9125L3.52052 11.8535C3.51859 11.3592 3.89271 10.9437 4.38416 10.8937L22.8689 8.99903C23.1834 8.96729 23.4941 9.09136 23.6989 9.3318C23.9038 9.57223 23.9778 9.89826 23.8961 10.2041L16.3271 38.5275C16.1896 39.0401 15.6626 39.345 15.15 39.2085C14.6364 39.0709 14.3315 38.5439 14.469 38.0313L21.6783 11.0543L5.44689 12.7181L5.46036 16.8459L14.3017 15.9525C14.6162 15.9207 14.9259 16.0448 15.1307 16.2852C15.3356 16.5257 15.4096 16.8517 15.3279 17.1566L9.79014 37.9447L12.2839 37.6975C12.8119 37.6447 13.2832 38.0313 13.3361 38.5593C13.389 39.0882 13.0024 39.5585 12.4744 39.6114L8.59854 39.9961C8.5668 39.999 8.53506 40.0009 8.50332 40.0009L8.50236 40Z" fill="#2E80E2"/>
<path d="M8.50246 39.4229C8.38993 39.4229 8.28318 39.3739 8.20912 39.2873C8.12737 39.1911 8.09756 39.0613 8.13026 38.9392L13.8825 17.347L4.54006 18.2914C4.43138 18.302 4.32463 18.2674 4.24384 18.1943C4.16306 18.1212 4.11689 18.0183 4.11689 17.9096L4.09766 11.8506C4.09766 11.6525 4.24673 11.4871 4.44292 11.4669L22.9277 9.57223C23.0527 9.55973 23.1777 9.60878 23.2595 9.70495C23.3412 9.80113 23.3711 9.93193 23.3384 10.0541L15.7694 38.3775C15.7146 38.5824 15.504 38.7055 15.2982 38.6497C15.0933 38.5949 14.9712 38.3842 15.026 38.1784L22.4516 10.3945L4.86802 12.1968L4.88436 17.4836L14.3585 16.5257C14.4845 16.5122 14.6086 16.5622 14.6903 16.6593C14.7721 16.7555 14.8019 16.8854 14.7692 17.0075L9.01699 38.6006L12.3398 38.2707C12.5504 38.2496 12.7399 38.4044 12.7611 38.6151C12.7822 38.8266 12.6274 39.0151 12.4158 39.0363L8.53996 39.421C8.52746 39.422 8.51496 39.4229 8.50149 39.4229H8.50246Z" fill="#56CAEA"/>
<path d="M8.50203 39.1344C8.47414 39.1344 8.44721 39.1219 8.42894 39.1007C8.40874 39.0767 8.40105 39.044 8.40971 39.0132L14.2696 17.018L4.51175 18.0038C4.48482 18.0058 4.45789 17.9981 4.43769 17.9798C4.41749 17.9615 4.40595 17.9356 4.40595 17.9086L4.38672 11.8496C4.38672 11.8006 4.42423 11.7583 4.47328 11.7534L22.958 9.85881C22.9898 9.85592 23.0206 9.86842 23.0408 9.89247C23.061 9.91651 23.0686 9.94921 23.061 9.97999L15.492 38.3034C15.4785 38.3544 15.4256 38.3852 15.3747 38.3717C15.3237 38.3582 15.2929 38.3053 15.3064 38.2544L22.8378 10.0646L4.57811 11.9362L4.59638 17.8019L14.387 16.8122C14.4187 16.8103 14.4495 16.8219 14.4697 16.8459C14.4899 16.8699 14.4976 16.9026 14.4899 16.9334L8.62995 38.9295L12.3673 38.5583C12.4202 38.5544 12.4673 38.5919 12.4721 38.6448C12.4769 38.6977 12.4385 38.7449 12.3856 38.7497L8.50973 39.1344C8.50973 39.1344 8.50299 39.1344 8.50011 39.1344H8.50203Z" fill="white"/>
<path d="M5.33843 36.8743C5.25668 36.8743 5.17301 36.8637 5.0903 36.8416C4.57673 36.705 4.27186 36.178 4.40842 35.6644L8.34197 20.9016C8.47854 20.388 9.00557 20.0831 9.51915 20.2197C10.0327 20.3563 10.3376 20.8833 10.201 21.3969L6.26748 36.1597C6.15303 36.5896 5.76353 36.8743 5.33843 36.8743ZM1.34622 15.7447C0.816301 15.7447 0.3864 15.3158 0.384477 14.7858L0.365242 8.73646C0.363318 8.24212 0.737438 7.82665 1.22889 7.77664L19.7137 5.88199C20.2417 5.82814 20.7139 6.21187 20.7687 6.74083C20.8226 7.26883 20.4388 7.74105 19.9099 7.79587L2.29162 9.60107L2.30797 14.7791C2.30989 15.31 1.87999 15.7418 1.34911 15.7437H1.34622V15.7447Z" fill="#685BC7"/>
<path d="M5.33756 36.2971C5.30487 36.2971 5.2712 36.2933 5.2385 36.2837C5.03365 36.2288 4.91151 36.0182 4.96537 35.8124L8.89891 21.0496C8.95373 20.8447 9.16435 20.7216 9.37017 20.7774C9.57502 20.8322 9.69716 21.0429 9.6433 21.2487L5.70976 36.0115C5.6636 36.1836 5.50876 36.2971 5.33853 36.2971H5.33756ZM1.34632 15.1676C1.13473 15.1676 0.962579 14.9964 0.961618 14.7838L0.942383 8.73443C0.942383 8.53631 1.09145 8.37089 1.28765 8.3507L19.7724 6.45606C19.983 6.4349 20.1725 6.58782 20.1946 6.7994C20.2167 7.01098 20.0629 7.19949 19.8513 7.22161L1.71274 9.08066L1.73101 14.7819C1.73101 14.9944 1.55982 15.1676 1.34728 15.1676H1.34632Z" fill="#9D8AFD"/>
<path d="M5.33713 36.0086C5.32943 36.0086 5.32078 36.0076 5.31212 36.0057C5.26115 35.9922 5.23037 35.9393 5.24384 35.8883L9.17738 21.1255C9.19085 21.0746 9.24374 21.0438 9.29471 21.0572C9.34569 21.0707 9.37646 21.1236 9.363 21.1746L5.42945 35.9374C5.41791 35.9807 5.37944 36.0086 5.33616 36.0086H5.33713ZM1.34588 14.879C1.29298 14.879 1.2497 14.8357 1.2497 14.7828L1.23047 8.73342C1.23047 8.68437 1.26798 8.64205 1.31703 8.63724L19.8018 6.7426C19.8547 6.73779 19.9018 6.7753 19.9076 6.8282C19.9134 6.88109 19.8749 6.92822 19.822 6.93399L1.42282 8.81997L1.44205 14.7828C1.44205 14.8357 1.39974 14.879 1.34588 14.879Z" fill="white"/>
<path d="M0.961018 6.1371C0.474374 6.1371 0.0560144 5.76875 0.00504182 5.27345C-0.048816 4.74545 0.334921 4.27227 0.863881 4.21841L16.5019 2.6123C17.0289 2.55652 17.5021 2.94218 17.5569 3.47114C17.6108 3.99914 17.227 4.47232 16.6981 4.52617L1.06008 6.13229C1.02642 6.13614 0.993717 6.1371 0.961018 6.1371Z" fill="#685BC7"/>
<path d="M0.962054 5.56012C0.766819 5.56012 0.600437 5.41297 0.58024 5.21485C0.55812 5.00327 0.712 4.81476 0.923584 4.79264L16.5616 3.18653C16.7722 3.16537 16.9617 3.31829 16.9838 3.52987C17.0059 3.74145 16.852 3.92996 16.6404 3.95208L1.00149 5.55819C0.988021 5.55915 0.974557 5.56012 0.962054 5.56012Z" fill="#9D8AFD"/>
<path d="M0.961997 5.27154C0.912948 5.27154 0.871593 5.23499 0.866784 5.18498C0.861014 5.13208 0.899483 5.08496 0.952379 5.07919L16.5904 3.47307C16.6442 3.46826 16.6904 3.50577 16.6962 3.55867C16.7019 3.61156 16.6635 3.65869 16.6106 3.66446L0.971614 5.27058C0.971614 5.27058 0.964882 5.27058 0.961997 5.27058V5.27154Z" fill="white"/>
<path d="M22.9277 38.0285C22.2834 38.0285 21.7159 37.7688 21.3312 37.2975C20.86 36.7109 20.6965 35.8357 20.8984 34.8932L21.9371 30.0075C22.3218 28.1802 23.9376 26.5741 25.5341 26.4298L29.9389 26.0259H30.0062C30.1889 26.0259 30.3524 26.1028 30.4678 26.2375C30.6025 26.401 30.6409 26.6414 30.5929 26.8915C30.4871 27.3723 30.0831 27.7763 29.6503 27.8147L25.2455 28.2187C24.4858 28.286 23.7067 29.065 23.524 29.9498L22.4853 34.8355C22.3892 35.2683 22.4661 35.6722 22.6777 35.9319C22.8412 36.1338 23.072 36.2396 23.3605 36.2396C23.649 36.2396 23.4278 36.2396 23.4663 36.2396L27.8711 35.8357H27.9384C28.1212 35.8357 28.2847 35.9126 28.4001 36.0473C28.5347 36.2108 28.5732 36.4512 28.5251 36.7013C28.4193 37.1821 28.0154 37.5861 27.5826 37.6245L23.1778 38.0285C23.1008 38.0285 23.0143 38.0381 22.9373 38.0381L22.9277 38.0285Z" fill="#EB2638"/>
<path d="M30.0065 26.1702C30.3335 26.1702 30.5259 26.4684 30.4489 26.8627C30.3624 27.2762 29.9969 27.6417 29.6411 27.6705L25.2363 28.0745C24.4188 28.1514 23.5821 28.9785 23.3801 29.921L22.3414 34.8067C22.1491 35.7011 22.6011 36.384 23.3512 36.384C24.1014 36.384 23.4282 36.384 23.4667 36.384L27.8715 35.98H27.9195C28.2465 35.98 28.4389 36.2782 28.3619 36.6725C28.2754 37.086 27.9099 37.4515 27.5541 37.4803L23.1493 37.8843C23.0723 37.8843 22.9954 37.8939 22.9281 37.8939C21.5239 37.8939 20.6872 36.6148 21.0431 34.9317L22.0817 30.046C22.4568 28.2764 24.0149 26.728 25.5536 26.5838L29.9584 26.1798H30.0065M30.0065 25.8817H29.9296L25.5248 26.2856C23.8706 26.4395 22.1972 28.0937 21.7932 29.9787L20.7545 34.8644C20.5429 35.8454 20.7161 36.7687 21.2162 37.3842C21.6297 37.8939 22.2356 38.1728 22.9185 38.1728C23.6013 38.1728 23.082 38.1728 23.1685 38.1632L27.5733 37.7593C28.0542 37.7112 28.5254 37.2591 28.6409 36.7206C28.6986 36.4224 28.6409 36.1435 28.487 35.9512C28.3523 35.7781 28.1504 35.6819 27.9195 35.6819C27.6887 35.6819 27.8715 35.6819 27.8522 35.6819H27.8426L23.4378 36.0858H23.3416C23.1108 36.0858 22.9088 35.9993 22.7742 35.8261C22.5915 35.5953 22.5338 35.2395 22.6107 34.8548L23.6494 29.9691C23.8225 29.1516 24.5534 28.4111 25.2459 28.3534L29.6507 27.9494C30.1316 27.9014 30.6028 27.4493 30.7182 26.9108C30.7759 26.6126 30.7182 26.3337 30.5643 26.1414C30.4297 25.9682 30.2277 25.8721 29.9969 25.8721L30.0065 25.8817Z" fill="#EB2638"/>
<path d="M29.5547 37.4224C29.4681 37.4224 29.3815 37.4032 29.3142 37.3743C29.1603 37.307 29.0545 37.182 28.9968 37.0185C28.9199 36.778 28.9584 36.4895 29.1026 36.2298L30.4395 33.8255C30.5164 33.6908 30.6222 33.5658 30.7376 33.46C30.9011 33.3253 31.0742 33.2484 31.2569 33.2292L35.5752 32.8349L34.9308 28.7667L33.1804 31.902C32.9785 32.2578 32.6322 32.4886 32.3052 32.4886C31.9783 32.4886 32.1321 32.4694 32.0648 32.4405C31.9109 32.3732 31.8051 32.2482 31.7474 32.0847C31.6705 31.8443 31.709 31.5557 31.8532 31.2961L34.7577 26.093C34.9404 25.766 35.2578 25.5352 35.5656 25.5063H35.6329C35.9407 25.5063 36.1811 25.7179 36.2292 26.0353L37.7199 35.5085C37.7872 35.9413 37.5083 36.451 37.0851 36.6722C36.9793 36.7299 36.8735 36.7588 36.7678 36.7684H36.7004C36.3927 36.7684 36.1522 36.5568 36.1041 36.2394L35.8445 34.566L31.4685 34.9699L30.4298 36.8357C30.2471 37.1627 29.9297 37.3935 29.622 37.4224H29.5547Z" fill="#EB2638"/>
<path d="M35.623 25.6508C35.8634 25.6508 36.0366 25.8047 36.075 26.0548L37.5657 35.528C37.6234 35.8934 37.3734 36.3455 37.0079 36.5378C36.9214 36.5859 36.8252 36.6147 36.7482 36.6147H36.7002C36.4693 36.6147 36.2866 36.4705 36.2481 36.2108L35.9596 34.4027L31.3817 34.8259L30.3045 36.759C30.141 37.0571 29.8621 37.2495 29.6025 37.2783H29.5544C29.4871 37.2783 29.4294 37.2687 29.3716 37.2399C29.0735 37.1148 29.0062 36.6917 29.2274 36.2974L30.5642 33.893C30.6315 33.768 30.7277 33.6622 30.8239 33.5756C30.9585 33.4602 31.1124 33.3929 31.2567 33.3737L35.7288 32.9601L34.9979 28.3341L33.0455 31.8349C32.8724 32.1522 32.5646 32.3542 32.2954 32.3542C32.0261 32.3542 32.1703 32.3446 32.103 32.3157C31.8049 32.1907 31.7375 31.7675 31.9587 31.3732L34.8632 26.1702C35.0267 25.8816 35.296 25.6797 35.5653 25.6508H35.6134M35.623 25.3623H35.5461C35.1806 25.3912 34.8344 25.6508 34.6228 26.0259L31.7183 31.229C31.5452 31.5367 31.5067 31.8637 31.6029 32.1426C31.6702 32.3446 31.8145 32.5081 32.0068 32.585C32.103 32.6235 32.1992 32.6427 32.305 32.6427C32.6897 32.6427 33.084 32.3831 33.3052 31.9791L34.844 29.2093L35.3922 32.71L31.2278 33.0947C31.0259 33.114 30.8143 33.2005 30.6315 33.3544C30.4969 33.4602 30.3815 33.6045 30.3045 33.7584L28.9677 36.1531C28.7946 36.4609 28.7561 36.7879 28.8523 37.0668C28.9196 37.2687 29.0639 37.4322 29.2562 37.5092C29.3524 37.5476 29.4486 37.5669 29.5544 37.5669C29.6602 37.5669 29.6025 37.5669 29.6313 37.5669C29.9968 37.538 30.343 37.2783 30.5546 36.9033L31.5548 35.1048L35.7192 34.7201L35.9596 36.2589C36.0173 36.6436 36.3155 36.9129 36.7002 36.9129C37.0849 36.9129 36.7482 36.9129 36.7771 36.9129C36.9021 36.9033 37.0272 36.8648 37.1426 36.7975C37.6138 36.5474 37.9312 35.9704 37.8543 35.4895L36.3635 26.0163C36.3058 25.6316 36.0077 25.3623 35.623 25.3623Z" fill="#EB2638"/>
<path d="M39.0176 36.5476C38.8349 36.5476 38.6714 36.4707 38.556 36.336C38.4213 36.1726 38.3829 35.9321 38.431 35.6821C38.5368 35.2012 38.9407 34.7973 39.3735 34.7588L43.7687 34.3548C44.5381 34.2875 45.3171 33.4989 45.4998 32.6141C45.5864 32.1909 45.5287 31.8158 45.3363 31.5562C45.1728 31.3253 44.9228 31.2099 44.6246 31.2099C44.3265 31.2099 44.5573 31.2099 44.5188 31.2099L44.49 31.0657V31.2099H44.4419C44.2592 31.2099 44.0957 31.133 43.9802 30.9984C43.8456 30.8349 43.8071 30.604 43.8552 30.354C43.9514 29.8731 44.3649 29.4692 44.7881 29.4307L44.817 29.575V29.4307C44.8843 29.4307 44.9612 29.4211 45.0478 29.4211C45.7402 29.4211 46.3269 29.7096 46.7116 30.2482C47.1348 30.8445 47.2694 31.662 47.0771 32.566C46.6924 34.3933 45.067 35.9994 43.4705 36.1533L39.0753 36.5572H39.008L39.0176 36.5476ZM42.0183 31.4408C41.3354 31.4408 40.7488 31.1522 40.3641 30.6233C39.9409 30.0366 39.8063 29.2191 39.9986 28.3247C40.3833 26.507 41.9894 24.9105 43.5859 24.7662L48.0003 24.3623H48.0677C48.2504 24.3623 48.4139 24.4392 48.5293 24.5739C48.664 24.7374 48.7024 24.9778 48.6543 25.2279C48.5485 25.7087 48.1446 26.1127 47.7118 26.1512L43.2974 26.5551C42.5376 26.6224 41.7778 27.3918 41.5855 28.2766C41.4989 28.6902 41.5566 29.0652 41.7394 29.3249C41.9029 29.5461 42.1433 29.6711 42.4318 29.6711C42.7204 29.6711 42.5088 29.6711 42.5569 29.6711H42.6242C42.8069 29.6711 42.9704 29.7481 43.0858 29.8827C43.2205 30.0462 43.2589 30.277 43.2108 30.5271C43.1147 31.008 42.7011 31.4119 42.278 31.4504H42.2683C42.1818 31.4504 42.1048 31.46 42.0183 31.46V31.4408Z" fill="#EB2638"/>
<path d="M48.0679 24.4967C48.3949 24.4967 48.5872 24.7949 48.5103 25.1892C48.4237 25.6027 48.0582 25.9682 47.7024 25.997L43.288 26.401C42.4705 26.4779 41.653 27.2954 41.451 28.2379C41.3549 28.6899 41.4222 29.1035 41.6338 29.4016C41.8261 29.6613 42.105 29.8056 42.4416 29.8056C42.7783 29.8056 42.5282 29.8056 42.5763 29.8056H42.6244C42.9514 29.8056 43.1437 30.1037 43.0668 30.4884C42.9802 30.902 42.6244 31.2674 42.2589 31.2963H42.2397C42.1627 31.2963 42.0858 31.3059 42.0185 31.3059C41.3741 31.3059 40.8355 31.0462 40.4797 30.5461C40.0757 29.9883 39.9603 29.2189 40.1431 28.3629C40.5181 26.6029 42.0666 25.0545 43.5957 24.9103L48.0102 24.5063H48.0582M45.0576 29.5555C45.702 29.5555 46.2502 29.8248 46.606 30.3153C47.0099 30.8731 47.135 31.6521 46.9522 32.5177C46.5772 34.2873 45.0191 35.8453 43.4707 35.9896L39.0755 36.3935H39.0274C38.7004 36.3935 38.5081 36.0954 38.585 35.7011C38.6716 35.2875 39.0371 34.9221 39.3929 34.8932L43.7881 34.4893C44.6152 34.4123 45.4519 33.5852 45.6443 32.6331C45.7404 32.1715 45.6731 31.7579 45.4615 31.4598C45.2692 31.1905 44.9807 31.0558 44.6344 31.0558C44.2882 31.0558 44.5575 31.0558 44.5094 31.0558H44.4517C44.1247 31.0558 43.9323 30.7577 44.0093 30.373C44.0958 29.9594 44.4517 29.594 44.8172 29.5651H44.8364C44.9133 29.5651 44.9903 29.5555 45.0672 29.5555M48.0679 24.2082H47.9909L43.5765 24.6121C41.9223 24.766 40.2585 26.4106 39.8642 28.286C39.6622 29.2189 39.8065 30.0845 40.2489 30.7C40.6624 31.2674 41.2875 31.5752 42.0185 31.5752C42.7494 31.5752 42.182 31.5752 42.2685 31.5656C42.759 31.5175 43.2207 31.0558 43.3361 30.5269C43.3938 30.2384 43.3361 29.9498 43.1822 29.7575C43.0475 29.5844 42.8456 29.4978 42.6148 29.4978C42.3839 29.4978 42.5667 29.4978 42.5378 29.4978H42.432C42.182 29.4978 41.9896 29.4016 41.855 29.2093C41.6915 28.9785 41.6434 28.6515 41.7203 28.2764C41.8934 27.4685 42.6148 26.7376 43.2976 26.6703L47.712 26.2663C48.1929 26.2182 48.6641 25.7662 48.7796 25.2277C48.8373 24.9295 48.7796 24.6506 48.6257 24.4583C48.491 24.2851 48.2891 24.189 48.0582 24.189L48.0679 24.2082ZM45.0576 29.267C44.9807 29.267 44.8941 29.267 44.8172 29.2766C44.3267 29.3247 43.865 29.7863 43.7496 30.3153C43.6919 30.6038 43.7496 30.8923 43.9035 31.0847C44.0381 31.2578 44.2401 31.3444 44.4709 31.3444C44.7017 31.3444 44.519 31.3444 44.5479 31.3444H44.644C44.8941 31.3444 45.1057 31.4405 45.2403 31.6329C45.4038 31.8637 45.4519 32.2003 45.375 32.585C45.2019 33.4025 44.4709 34.1527 43.7689 34.2104L39.3737 34.6143C38.8928 34.6624 38.4215 35.1144 38.3061 35.653C38.2484 35.9511 38.3061 36.23 38.46 36.4224C38.5947 36.5955 38.7966 36.6917 39.0274 36.6917C39.2583 36.6917 39.0755 36.6917 39.1044 36.6917L43.4996 36.2877C45.1634 36.1339 46.8368 34.4797 47.2408 32.585C47.4427 31.6425 47.2985 30.7769 46.8464 30.1518C46.4329 29.5844 45.7981 29.267 45.0672 29.267H45.0576Z" fill="#EB2638"/>
<path d="M48.6739 35.6525C48.4912 35.6525 48.3277 35.5756 48.2122 35.4409C48.0776 35.2774 48.0391 35.037 48.0872 34.7869L50.1646 24.9868C50.2704 24.5059 50.6743 24.1019 51.1071 24.0635H51.1744C51.3572 24.0635 51.5207 24.1404 51.6361 24.2751C51.7707 24.4386 51.8092 24.679 51.7611 24.929L49.6837 34.7292C49.5779 35.2101 49.174 35.6141 48.7412 35.6525H48.6739Z" fill="#EB2638"/>
<path d="M51.1844 24.208C51.5114 24.208 51.7037 24.5061 51.6268 24.9004L49.5494 34.7006C49.4629 35.1142 49.0974 35.4796 48.7415 35.5085H48.6935C48.3665 35.5085 48.1741 35.2103 48.2511 34.816L50.3284 25.0158C50.415 24.6023 50.7804 24.2368 51.1363 24.208H51.1844ZM51.1844 23.9194H51.1171C50.6362 23.9675 50.1649 24.4195 50.0495 24.9581L47.9721 34.7583C47.9144 35.0565 47.9721 35.3354 48.126 35.5277C48.2607 35.7008 48.4626 35.797 48.6935 35.797C48.9243 35.797 48.7415 35.797 48.7704 35.797C49.2513 35.7489 49.7225 35.2969 49.8379 34.7583L51.9153 24.9581C51.973 24.66 51.9153 24.3811 51.7614 24.1887C51.6268 24.0156 51.4248 23.9194 51.194 23.9194H51.1844Z" fill="#EB2638"/>
<path d="M52.0977 35.3351C51.915 35.3351 51.7515 35.2581 51.6361 35.1235C51.5014 34.96 51.463 34.7196 51.511 34.4695L53.5884 24.6693C53.6654 24.3039 53.9346 23.9672 54.2616 23.823C54.3674 23.7749 54.4828 23.746 54.5886 23.746C54.8195 23.746 55.0214 23.8711 55.1176 24.073L59.5801 33.2673C59.7628 33.6328 59.5897 34.181 59.1954 34.4984C59.0223 34.6426 58.8107 34.7196 58.628 34.7196C58.4452 34.7196 58.1952 34.6042 58.099 34.3926L54.6175 27.2179L53.0979 34.4022C52.9921 34.8831 52.5882 35.287 52.1554 35.3255H52.0881L52.0977 35.3351ZM59.4262 31.0072C59.2435 31.0072 59.08 30.9303 58.9646 30.7956C58.8299 30.6321 58.7915 30.3917 58.8396 30.1417L60.1283 24.0634C60.2341 23.5825 60.638 23.1786 61.0708 23.1401H61.1381C61.3209 23.1401 61.4844 23.2171 61.5998 23.3517C61.7344 23.5152 61.7729 23.7557 61.7248 24.0057L60.4361 30.0839C60.3303 30.5648 59.9263 30.9688 59.4935 31.0072H59.4262Z" fill="#EB2638"/>
<path d="M61.1382 23.2846C61.4652 23.2846 61.6575 23.5828 61.5806 23.9771L60.2918 30.0553C60.2053 30.4689 59.8398 30.8343 59.484 30.8632H59.4359C59.1089 30.8632 58.9165 30.565 58.9935 30.1707L60.2822 24.0925C60.3688 23.6789 60.7342 23.3135 61.0901 23.2846H61.1382ZM54.5983 23.8905C54.7714 23.8905 54.9253 23.9771 55.0022 24.1406L59.4647 33.3349C59.6186 33.6426 59.4647 34.1139 59.1185 34.3928C58.9646 34.5178 58.7915 34.5851 58.6376 34.5851C58.4837 34.5851 58.3106 34.4986 58.2337 34.3351L54.5694 26.7758L52.9537 34.3736C52.8671 34.7871 52.5017 35.1526 52.1458 35.1814H52.0978C51.7708 35.1814 51.5784 34.8833 51.6553 34.489L53.7327 24.6888C53.8 24.3714 54.0405 24.0636 54.329 23.9386C54.4252 23.9001 54.5117 23.8809 54.5983 23.8809M61.1382 22.9961H61.0612C60.5804 23.0442 60.1091 23.4962 59.9937 24.0348L58.705 30.113C58.6472 30.4112 58.705 30.6901 58.8588 30.8824C58.9935 31.0555 59.1954 31.1517 59.4263 31.1517C59.6571 31.1517 59.4743 31.1517 59.5032 31.1517C59.9841 31.1036 60.4553 30.6516 60.5707 30.113L61.8595 24.0348C61.9172 23.7366 61.8595 23.4577 61.7056 23.2654C61.571 23.0923 61.369 22.9961 61.1382 22.9961ZM54.5983 23.602C54.4733 23.602 54.3386 23.6308 54.2136 23.6886C53.8385 23.852 53.5404 24.2271 53.4538 24.6407L51.3764 34.4409C51.3187 34.739 51.3764 35.0179 51.5303 35.2103C51.665 35.3834 51.8669 35.4796 52.0978 35.4796C52.3286 35.4796 52.1458 35.4796 52.1747 35.4796C52.6556 35.4315 53.1268 34.9795 53.2422 34.4409L54.6752 27.6702L57.974 34.4697C58.099 34.7294 58.3491 34.8833 58.6376 34.8833C58.9262 34.8833 59.0993 34.7871 59.3012 34.6236C59.7436 34.2581 59.9264 33.6426 59.7244 33.2195L55.2619 24.0252C55.1369 23.7655 54.8868 23.6116 54.5983 23.6116V23.602Z" fill="#EB2638"/>
<path d="M63.8601 34.2487C63.1292 34.2487 62.5233 33.9313 62.1386 33.3447C61.7539 32.758 61.6577 31.9405 61.8404 31.0365L62.8599 26.247C63.2542 24.4101 64.8796 22.7943 66.4857 22.6501L68.7073 22.4481C68.7842 22.4481 68.8708 22.4385 68.9477 22.4385C69.6017 22.4385 70.1692 22.6981 70.5539 23.1694C71.0347 23.7561 71.1886 24.6409 70.9866 25.5834L69.9576 30.4306C69.5729 32.2675 67.9379 33.8833 66.3318 34.0275L64.0909 34.2391C64.014 34.2391 63.9274 34.2487 63.8505 34.2487H63.8601ZM68.5342 24.2177H68.4284L66.2068 24.4197C65.4374 24.487 64.6487 25.2756 64.4564 26.1797L63.4273 31.0461C63.3311 31.5077 63.4081 31.9213 63.6485 32.1906C63.8024 32.3637 64.0332 32.4503 64.3121 32.4503C64.591 32.4503 64.3987 32.4503 64.4371 32.4503L66.6396 32.2483C67.4089 32.181 68.1976 31.3923 68.3899 30.4883L69.419 25.6411C69.5152 25.1987 69.4478 24.7948 69.2266 24.5351C69.0631 24.3331 68.8227 24.2273 68.5342 24.2273V24.2177Z" fill="#EB2638"/>
<path d="M68.9575 22.573C70.3712 22.573 71.2176 23.8522 70.8617 25.5545L69.8326 30.4017C69.4576 32.1809 67.8899 33.7485 66.3415 33.8928L64.1006 34.1044C64.0237 34.1044 63.9468 34.114 63.8698 34.114C63.1966 34.114 62.6292 33.8255 62.2733 33.2773C61.9079 32.7099 61.8213 31.9212 62.004 31.0845L63.0235 26.295C63.3986 24.5158 64.9662 22.9481 66.5146 22.8135L68.7363 22.6115C68.8132 22.6115 68.8901 22.6019 68.9671 22.6019M64.3122 32.5944H64.4469L66.6493 32.3925C67.486 32.3155 68.3227 31.4788 68.5247 30.5171L69.5537 25.6699C69.7461 24.7658 69.2941 24.0734 68.5343 24.0734C67.7745 24.0734 68.4573 24.0734 68.4093 24.0734L66.1876 24.2753C65.3509 24.3523 64.5142 25.189 64.3122 26.1411L63.2832 31.0076C63.1774 31.5173 63.2639 31.9789 63.5428 32.2771C63.7352 32.4886 64.0141 32.5848 64.3122 32.5848M68.9575 22.2845C68.8709 22.2845 68.794 22.2845 68.7074 22.2941L66.4858 22.4961C65.6683 22.573 64.8316 23.0058 64.1199 23.7079C63.4178 24.41 62.9273 25.2948 62.735 26.2084L61.7155 30.9979C61.5135 31.9405 61.6289 32.7964 62.0329 33.4119C62.4368 34.0371 63.0908 34.3833 63.8698 34.3833C64.6488 34.3833 64.0333 34.3833 64.1199 34.3737L66.3607 34.1621C67.1782 34.0851 68.0149 33.6524 68.7266 32.9503C69.4287 32.2482 69.9192 31.3634 70.1116 30.4497L71.1406 25.6025C71.3522 24.6119 71.1791 23.6887 70.679 23.0635C70.2654 22.5538 69.6595 22.2749 68.9671 22.2749L68.9575 22.2845ZM64.3122 32.3059C64.1487 32.3059 63.9179 32.2674 63.7544 32.0943C63.5428 31.8635 63.4755 31.4981 63.5621 31.0845L64.5911 26.2181C64.7642 25.391 65.5048 24.6408 66.2069 24.5735L68.4285 24.3715H68.5247C68.7651 24.3715 68.9671 24.4581 69.1017 24.6312C69.2845 24.862 69.3518 25.2178 69.2652 25.6218L68.2361 30.469C68.063 31.2961 67.3225 32.0462 66.6204 32.104L64.418 32.3059H64.3026H64.3122Z" fill="#EB2638"/>
<path d="M23.1379 37.2282C22.7378 37.2282 22.3858 37.0993 22.1117 36.8512C21.777 36.5482 21.5895 36.0885 21.5828 35.5567C21.5414 35.2999 21.6818 34.4632 21.7097 34.3179L22.633 29.9593C22.9302 28.5628 24.1631 27.3376 25.3826 27.2289L29.7874 26.825C29.8413 26.8211 29.8874 26.8596 29.8922 26.9125C29.8971 26.9654 29.8586 27.0125 29.8057 27.0173L25.4009 27.4213C24.2593 27.5232 23.1033 28.6802 22.8225 29.9997L21.8992 34.3564C21.8376 34.6757 21.7434 35.3662 21.7741 35.5307C21.7751 35.5365 21.7761 35.5422 21.7761 35.548C21.7809 36.0298 21.9463 36.4424 22.2425 36.7098C22.5157 36.957 22.8802 37.0676 23.2966 37.0301L27.7014 36.6261C27.7552 36.6213 27.8014 36.6598 27.8062 36.7127C27.811 36.7656 27.7726 36.8127 27.7197 36.8175L23.3149 37.2214C23.2552 37.2263 23.1975 37.2291 23.1398 37.2291L23.1379 37.2282Z" fill="white"/>
<path d="M29.5069 37.0282C29.4915 37.0282 29.4752 37.0244 29.4607 37.0157C29.4146 36.9897 29.3973 36.9311 29.4232 36.8849L30.7601 34.4805C30.8226 34.3642 30.9168 34.2488 31.039 34.1382C31.1832 34.0141 31.3544 33.9352 31.5237 33.9121L36.3411 33.5063L35.4332 27.4329C35.3697 26.9953 35.2601 26.9626 35.2476 26.9606C35.1956 26.951 35.0995 27.0357 35.035 27.1491L32.5441 31.5915C32.5181 31.6376 32.4595 31.654 32.4133 31.628C32.3671 31.602 32.3508 31.5434 32.3768 31.4972L34.8677 27.0539C34.9581 26.8952 35.1149 26.7375 35.2841 26.7712C35.4553 26.8039 35.5669 27.0107 35.6236 27.405L36.5469 33.5794C36.5507 33.6054 36.544 33.6323 36.5277 33.6534C36.5113 33.6746 36.4873 33.6871 36.4603 33.69L31.5458 34.1035C31.4179 34.1208 31.2823 34.1843 31.1678 34.2824C31.064 34.3757 30.9832 34.4738 30.9303 34.5719L29.5925 36.9772C29.5752 37.009 29.5425 37.0263 29.5079 37.0263L29.5069 37.0282Z" fill="white"/>
<path d="M42.2156 30.642C41.6991 30.642 41.2625 30.4276 40.9701 30.0256C40.6422 29.5755 40.545 28.9532 40.6941 28.2752C40.9249 27.199 41.7472 26.192 42.6974 25.8247C42.9571 25.665 43.7678 25.5352 43.9833 25.5169L47.8389 25.1611C47.8918 25.1562 47.9389 25.1947 47.9437 25.2476C47.9486 25.3005 47.9101 25.3476 47.8572 25.3524L44.0006 25.7083C43.7448 25.7294 42.9869 25.865 42.7936 25.991C42.7878 25.9949 42.7821 25.9978 42.7753 26.0007C41.8799 26.344 41.1009 27.2961 40.8826 28.3165C40.7451 28.9407 40.8316 29.5081 41.1259 29.913C41.4125 30.3074 41.8636 30.4949 42.3945 30.441C42.3974 30.441 42.4012 30.441 42.4041 30.441H42.4137C42.4666 30.441 42.5099 30.4843 42.5099 30.5372C42.5099 30.5901 42.4666 30.6334 42.4137 30.6334H42.4089C42.3435 30.6401 42.2791 30.643 42.2156 30.643V30.642Z" fill="white"/>
<path d="M48.8182 34.9221C48.8115 34.9221 48.8047 34.9221 48.798 34.9202C48.7461 34.9086 48.7124 34.8577 48.7239 34.8057L50.8013 25.0055C50.8119 24.9536 50.8629 24.9199 50.9158 24.9315C50.9677 24.943 51.0014 24.994 50.9898 25.0459L48.9125 34.8461C48.9028 34.8913 48.8634 34.9221 48.8182 34.9221Z" fill="white"/>
<path d="M52.3101 34.5371C52.3033 34.5371 52.2976 34.5371 52.2908 34.5351C52.2389 34.5245 52.2052 34.4736 52.2158 34.4216L54.072 25.2851C54.1105 25.085 54.2682 24.9407 54.474 24.9177C54.6788 24.8946 54.8645 25.0013 54.9472 25.1889L58.9375 33.8042C58.9596 33.8523 58.9384 33.909 58.8903 33.9321C58.8422 33.9552 58.7845 33.9331 58.7624 33.885L54.7712 25.2677C54.7125 25.1341 54.5894 25.0985 54.4952 25.1091C54.3999 25.1196 54.2884 25.1812 54.2605 25.3226L52.4043 34.4601C52.3947 34.5053 52.3553 34.5371 52.3101 34.5371Z" fill="white"/>
<path d="M59.6668 30.2768C59.6601 30.2768 59.6534 30.2768 59.6466 30.2749C59.5947 30.2633 59.561 30.2124 59.5726 30.1604L60.8613 24.0822C60.8719 24.0302 60.9238 23.9966 60.9758 24.0081C61.0277 24.0197 61.0614 24.0706 61.0498 24.1226L59.7611 30.2008C59.7515 30.246 59.712 30.2768 59.6668 30.2768Z" fill="white"/>
<path d="M64.1267 33.4371C64.0248 33.4371 63.9296 33.4332 63.8738 33.4207C63.4381 33.3774 63.0746 33.1783 62.8216 32.8446C62.5543 32.4926 62.4292 31.9444 62.4946 31.4145C62.4975 31.2712 62.5899 30.8028 62.6129 30.7067L63.5651 26.198C63.8622 24.791 65.1048 23.557 66.3339 23.4484L68.5556 23.2464C69.0355 23.2031 69.4558 23.3339 69.7722 23.6205C70.1088 23.9263 70.2982 24.3909 70.305 24.9294C70.3444 25.1718 70.228 25.9441 70.178 26.1624L69.2644 30.4787C68.9682 31.8809 67.7265 33.1187 66.4965 33.238L64.5537 33.4207C64.5489 33.4207 64.3268 33.4361 64.1286 33.4361L64.1267 33.4371ZM63.7526 26.2374L62.8005 30.748C62.7687 30.8836 62.687 31.3222 62.687 31.4203C62.687 31.4241 62.687 31.428 62.687 31.4318C62.6264 31.9156 62.737 32.4128 62.9755 32.7273C63.1957 33.0187 63.5151 33.1918 63.8988 33.2284C63.9036 33.2284 63.9084 33.2293 63.9132 33.2312C63.9969 33.2524 64.3354 33.2428 64.5374 33.2284L66.4782 33.0456C67.6304 32.9341 68.796 31.7646 69.0768 30.4383L69.9905 26.1201C70.0501 25.8623 70.1492 25.1324 70.1155 24.9554C70.1146 24.9496 70.1136 24.9439 70.1136 24.9381C70.1088 24.4495 69.9424 24.0321 69.6433 23.7609C69.3673 23.5109 68.998 23.3983 68.5729 23.4358L66.3512 23.6378C65.2 23.7398 64.0344 24.9054 63.7536 26.2355L63.7526 26.2374Z" fill="white"/>
<path d="M36.8831 36.1048C36.837 36.1048 36.7966 36.0721 36.7889 36.0249L36.3753 33.611C36.3667 33.559 36.4013 33.509 36.4542 33.5003C36.5071 33.4917 36.5562 33.5263 36.5648 33.5792L36.9784 35.9932C36.987 36.0451 36.9524 36.0951 36.8995 36.1038C36.8937 36.1038 36.8889 36.1048 36.8831 36.1048Z" fill="white"/>
<path d="M39.2294 35.7492C39.1804 35.7492 39.138 35.7117 39.1342 35.6617C39.1294 35.6088 39.1679 35.5617 39.2208 35.5569L43.0677 35.201C43.3091 35.1818 44.0795 35.0365 44.2767 34.9163C44.2815 34.9134 44.2872 34.9106 44.293 34.9086C45.2047 34.5634 45.9943 33.5997 46.2146 32.5649C46.3511 31.9359 46.2646 31.3617 45.9703 30.9482C45.6818 30.5519 45.2394 30.3663 44.6912 30.4115H44.6642C44.6113 30.4115 44.5681 30.3692 44.5681 30.3153C44.5681 30.2615 44.6113 30.2192 44.6642 30.2192H44.6835C45.2855 30.1682 45.801 30.3875 46.1271 30.8356C46.454 31.2944 46.5512 31.9224 46.4031 32.6053C46.1713 33.6968 45.3355 34.7163 44.3699 35.0856C44.1103 35.2356 43.2995 35.3751 43.085 35.3924L39.239 35.7482C39.239 35.7482 39.2333 35.7482 39.2304 35.7482L39.2294 35.7492Z" fill="white"/>
</svg>