<svg width="119" height="33" viewBox="0 0 119 33" fill="none" xmlns="http://www.w3.org/2000/svg">
<path d="M26.6065 17.9497L24.2425 16.5951L20.9623 14.72L20.9553 14.727L11.1514 9.1297V9.11575L7.87109 7.25V28.6492C7.87109 29.9842 8.56806 31.1843 9.75288 31.8661C10.3279 32.1891 10.9737 32.3645 11.6265 32.3645C12.2724 32.3645 12.9194 32.1891 13.5083 31.8651L26.6133 24.374C27.1846 24.0543 27.6597 23.5873 27.9893 23.0214C28.3189 22.4557 28.4906 21.812 28.4869 21.1572C28.4865 20.5034 28.3121 19.8615 27.9812 19.2976C27.6506 18.7336 27.1755 18.268 26.6052 17.9485L26.6065 17.9497ZM24.9663 21.5591L11.8542 29.0442C11.7848 29.0868 11.705 29.1094 11.6236 29.1094C11.5422 29.1094 11.4624 29.0868 11.393 29.0442C11.323 29.0051 11.2645 28.9482 11.2233 28.8793C11.1821 28.8104 11.1598 28.7318 11.1584 28.6517V12.8868L17.6679 16.6009L20.9623 18.4689L24.9663 20.7576C25.0373 20.7976 25.0964 20.8558 25.1376 20.9263C25.1788 20.9967 25.2003 21.0768 25.2003 21.1584C25.2003 21.2399 25.1788 21.3202 25.1376 21.3905C25.0964 21.4609 25.0373 21.5192 24.9663 21.5591Z" fill="#35C31E"/>
<path d="M20.8783 18.4117L7.96503 25.6645L5.61164 26.9948C5.04036 27.3184 4.39572 27.4903 3.73916 27.4943C3.1026 27.4943 2.45212 27.32 1.87248 26.9948C0.699276 26.3302 0 25.1439 0 23.8207V9.04808C0 7.72369 0.692308 6.5387 1.87248 5.8742C2.44004 5.54715 3.08356 5.375 3.73858 5.375C4.39359 5.375 5.03711 5.54715 5.60467 5.8742L7.9685 7.21251V10.922L3.97264 8.66703C3.90354 8.6214 3.82255 8.59709 3.73974 8.59709C3.65694 8.59709 3.57595 8.6214 3.50684 8.66703C3.43597 8.70187 3.27452 8.8134 3.27452 9.05505V23.8265C3.27452 24.0694 3.43597 24.1797 3.50684 24.2147C3.57676 24.2581 3.65743 24.2811 3.73974 24.2811C3.82205 24.2811 3.90271 24.2581 3.97264 24.2147L17.5702 16.5448L20.8808 18.4117H20.8783Z" fill="#35C31E"/>
<path d="M28.4869 11.7111C28.4869 13.0529 27.7913 14.2542 26.6123 14.9292L23.9892 16.4325L20.6161 14.5586L24.965 12.1189C25.036 12.0787 25.0952 12.0205 25.1364 11.9501C25.1775 11.8797 25.1995 11.7997 25.1997 11.7181C25.198 11.637 25.1755 11.5577 25.1345 11.4877C25.0933 11.4178 25.035 11.3595 24.965 11.3185L11.8484 3.83684C11.7792 3.79794 11.7015 3.77692 11.6222 3.77572C11.5429 3.7745 11.4645 3.79312 11.3942 3.82987C11.3212 3.86825 11.2601 3.9259 11.2175 3.99656C11.1749 4.0672 11.1524 4.14816 11.1526 4.23068V20.15L7.87109 22.0042V4.22371C7.87109 2.88769 8.56806 1.67949 9.75288 1.00568C10.3222 0.674475 10.9691 0.5 11.6277 0.5C12.2863 0.5 12.9332 0.674475 13.5025 1.00568L26.6123 8.49427C27.1821 8.81606 27.6561 9.28372 27.9855 9.84923C28.315 10.4148 28.4881 11.0578 28.4869 11.7123V11.7111Z" fill="#35C31E"/>
<path d="M50.9447 15.3299C50.3504 14.2378 49.5343 13.3842 48.5095 12.789C47.4859 12.1939 46.3185 11.8934 45.0496 11.8934C43.9682 11.8934 42.98 12.1097 42.1062 12.5435C41.2335 12.9785 40.5307 13.5374 40.0295 14.2097L39.7064 14.6505V8.66732C39.7064 8.51298 39.5779 8.38669 39.421 8.38669H37.2866C37.2111 8.38638 37.1385 8.41574 37.0848 8.46833C37.0311 8.52093 37.0006 8.59248 37 8.66732V25.9797C37 26.1328 37.1285 26.2591 37.2854 26.2591H39.4198C39.4953 26.2594 39.5679 26.2301 39.6216 26.1775C39.6753 26.1249 39.7058 26.0533 39.7064 25.9785V23.8048L40.0295 24.2234C40.5307 24.8887 41.2182 25.4348 42.0779 25.8546C42.9376 26.2813 43.9411 26.4977 45.0496 26.4977C46.3032 26.4977 47.4635 26.1831 48.4954 25.5599C49.5272 24.9449 50.3504 24.0632 50.9447 22.9501C51.539 21.8311 51.8409 20.5425 51.8409 19.1289C51.8409 17.7082 51.539 16.4348 50.9447 15.3287V15.3299ZM48.4235 21.8381C47.9871 22.6215 47.3999 23.2225 46.6899 23.6294C45.987 24.0325 45.1894 24.2446 44.3774 24.2445C43.5814 24.2445 42.809 24.0422 42.0991 23.6435C41.3833 23.2447 40.796 22.6496 40.3585 21.879C39.9293 21.1166 39.7064 20.2069 39.7064 19.178C39.7064 18.156 39.9293 17.2533 40.3585 16.491C40.7948 15.7356 41.3833 15.1463 42.0991 14.7417C42.7987 14.3524 43.5869 14.1468 44.3891 14.1443C45.1914 14.1419 45.9809 14.3427 46.6829 14.7277C47.4135 15.1325 48.0162 15.7309 48.4235 16.4559C48.8539 17.2042 49.0756 18.1069 49.0756 19.1289C49.0756 20.1508 48.8539 21.0605 48.4235 21.8381ZM67.821 18.7851C67.821 17.403 67.5239 16.1764 66.9366 15.1182C66.37 14.0839 65.5185 13.2307 64.4814 12.6581C63.4342 12.0793 62.2172 11.7835 60.8729 11.7835C59.4802 11.7835 58.2278 12.0875 57.1452 12.6861C56.0775 13.2834 55.2075 14.175 54.6405 15.2527C54.0461 16.36 53.7419 17.6638 53.7419 19.123C53.7419 20.5905 54.0532 21.8942 54.6688 23.0015C55.2521 24.0804 56.1299 24.9747 57.2018 25.5821C58.2773 26.189 59.5155 26.4988 60.874 26.4988C62.5439 26.4988 63.9661 26.0756 65.0911 25.2442C66.0043 24.5802 66.7261 23.6905 67.1842 22.6636C67.2691 22.48 67.1206 22.2684 66.9224 22.2684H64.6017C64.553 22.2694 64.5053 22.2828 64.4634 22.3074C64.4215 22.332 64.3866 22.3669 64.3623 22.4087C63.6406 23.6715 62.4731 24.3064 60.874 24.3064C59.6995 24.3064 58.6948 23.9323 57.8882 23.1991C57.0745 22.466 56.6216 21.4861 56.5297 20.2794L56.5155 20.09H67.4826C67.5521 20.0905 67.6193 20.0656 67.6715 20.0201C67.7237 19.9746 67.7572 19.9117 67.7656 19.8433C67.8066 19.4921 67.8251 19.1386 67.821 18.7851ZM65.0121 18.0017H56.5308L56.5591 17.8052C56.7007 16.6418 57.1676 15.697 57.9389 15.006C58.7172 14.322 59.6582 13.9688 60.7408 13.9688C61.9366 13.9688 62.9472 14.322 63.755 15.02C64.5687 15.7251 64.9932 16.6699 65.0144 17.8263V18.0017H65.0121ZM73.7739 14.205V22.5677C73.7739 23.1757 73.9225 23.6177 74.2126 23.8972C74.5098 24.1685 74.9768 24.3041 75.6489 24.3041H77.0511C77.2067 24.3041 77.3341 24.4327 77.3341 24.5894V26.2124C77.3344 26.2873 77.3049 26.3594 77.2518 26.4128C77.1988 26.4662 77.1267 26.4967 77.0511 26.4977H75.1183C73.8022 26.4977 72.7892 26.1913 72.0958 25.5763C71.4166 24.9682 71.0699 23.9615 71.0699 22.5677V14.205H69.6253C69.5495 14.2041 69.4772 14.1734 69.4241 14.1197C69.3711 14.0661 69.3417 13.9937 69.3423 13.9186V12.3541C69.3423 12.1962 69.4696 12.0676 69.6253 12.0676H71.0699V8.67434C71.0699 8.51648 71.1973 8.38786 71.3529 8.38786H73.4909C73.6466 8.38786 73.7739 8.51648 73.7739 8.67434V12.0688H77.0511C77.2067 12.0688 77.3341 12.1974 77.3341 12.3552V13.9197C77.3347 13.9949 77.3053 14.0672 77.2523 14.1209C77.1992 14.1746 77.1269 14.2053 77.0511 14.2062H73.7727L73.7739 14.205ZM90.6538 22.3596C90.6538 23.143 90.4179 23.8621 89.9687 24.4818C89.5111 25.1027 88.8484 25.5961 88.0076 25.9551C87.1597 26.3153 86.1432 26.4988 84.9934 26.4988C83.8294 26.4988 82.7681 26.2942 81.8459 25.8931C80.932 25.4909 80.195 24.9402 79.6643 24.2503C79.2487 23.7298 78.9725 23.1136 78.8612 22.459C78.8318 22.2894 78.9792 22.1339 79.1561 22.1339H81.4922C81.5588 22.1338 81.6235 22.156 81.6757 22.197C81.728 22.2379 81.7647 22.2953 81.7799 22.3596C81.912 22.86 82.2221 23.2973 82.708 23.6505C83.3059 24.0878 84.057 24.3053 84.9415 24.3053C85.8637 24.3053 86.5924 24.1299 87.109 23.7849C87.6467 23.4248 87.9191 22.9524 87.9191 22.3818C87.9191 21.7679 87.6101 21.3026 87.0052 21.0067C86.4533 20.7378 85.5688 20.442 84.3813 20.1181C83.2469 19.8211 82.3176 19.5334 81.603 19.2575C80.9152 18.9802 80.3001 18.5512 79.8046 18.0028C79.3105 17.4591 79.0605 16.719 79.0605 15.8163C79.0605 15.0832 79.2964 14.3991 79.7528 13.7864C80.2103 13.1726 80.8731 12.6791 81.7351 12.326C82.5983 11.967 83.6148 11.7835 84.7504 11.7835C86.4309 11.7835 87.8012 12.1927 88.826 12.996C89.7104 13.7011 90.2411 14.6388 90.4109 15.7952C90.4152 15.8359 90.4108 15.877 90.3979 15.9158C90.385 15.9546 90.3639 15.9903 90.336 16.0204C90.3081 16.0505 90.2741 16.0743 90.2361 16.0903C90.1982 16.1064 90.1573 16.1142 90.1161 16.1133H87.8967C87.8291 16.1128 87.7638 16.0893 87.7117 16.0467C87.6595 16.0041 87.6236 15.9451 87.6101 15.8794C87.4912 15.3687 87.1963 14.9151 86.7764 14.5967C86.2457 14.1805 85.524 13.9688 84.6396 13.9688C83.7705 13.9688 83.0912 14.1325 82.6207 14.4564C82.1254 14.7873 81.8754 15.2387 81.8754 15.7812C81.8754 16.2045 82.0523 16.5997 82.3766 16.8955C82.6867 17.1773 83.0771 17.396 83.5193 17.5585C84.1468 17.7695 84.7812 17.9598 85.4214 18.1291C86.5123 18.4121 87.4179 18.6939 88.1184 18.9827C88.7966 19.2592 89.4035 19.6831 89.8944 20.2233C90.3814 20.753 90.6314 21.4721 90.6538 22.3596ZM93.1102 26.0101C92.934 25.8613 92.7932 25.6758 92.6978 25.4668C92.6023 25.2578 92.5547 25.0304 92.5583 24.801C92.5583 24.324 92.7399 23.9159 93.1102 23.5932C93.4793 23.2658 93.9333 23.1032 94.4711 23.1032C94.9946 23.1032 95.4416 23.2646 95.8119 23.5932C96.1822 23.9206 96.3638 24.324 96.3638 24.801C96.3638 25.2793 96.1822 25.6874 95.8119 26.0101C95.4416 26.3375 94.9946 26.4988 94.4711 26.4988C93.9262 26.4988 93.4722 26.3386 93.1102 26.0101ZM101.69 8.19961C101.69 8.69071 101.531 9.08592 101.199 9.41332C101.042 9.57097 100.855 9.69522 100.648 9.77846C100.441 9.8617 100.219 9.90218 99.9959 9.8974C99.497 9.8974 99.0961 9.74072 98.7635 9.41332C98.6004 9.25616 98.472 9.06714 98.3863 8.85823C98.3007 8.64931 98.2597 8.42504 98.2659 8.19961C98.2659 7.71553 98.431 7.31914 98.7635 6.99174C98.9238 6.83046 99.1158 6.70363 99.3276 6.61913C99.5394 6.53464 99.7665 6.49431 99.9947 6.50065C100.472 6.50065 100.86 6.66434 101.199 6.99174C101.531 7.31914 101.69 7.71553 101.69 8.19961ZM101.307 12.0746V26.2077C101.307 26.3679 101.181 26.5 101.027 26.5H98.9251C98.8487 26.4982 98.7761 26.4664 98.7233 26.4116C98.6705 26.3568 98.6417 26.2835 98.6433 26.2077V12.0746C98.6433 11.9144 98.7706 11.7835 98.9251 11.7835H101.024C101.18 11.7835 101.307 11.9144 101.307 12.0758V12.0746ZM117.074 15.2667C116.452 14.1748 115.53 13.28 114.416 12.6861C113.293 12.0863 112.018 11.7835 110.636 11.7835C109.246 11.7835 107.971 12.0875 106.856 12.6861C105.739 13.2795 104.815 14.1742 104.19 15.2667C103.542 16.3811 103.212 17.6778 103.212 19.123C103.212 20.5905 103.536 21.8942 104.162 23.0015C104.778 24.0836 105.683 24.9765 106.777 25.5821C107.878 26.189 109.13 26.4988 110.498 26.4988C111.889 26.4988 113.171 26.189 114.323 25.5751C115.456 24.9767 116.401 24.0786 117.051 22.9805C117.714 21.8661 118.053 20.5694 118.053 19.123C118.053 17.6778 117.721 16.3811 117.074 15.2667ZM114.574 21.9164C114.128 22.6846 113.537 23.2623 112.817 23.6505C112.097 24.0305 111.319 24.2281 110.498 24.2281C109.209 24.2281 108.123 23.7768 107.273 22.8893C106.424 22.0006 105.991 20.7378 105.991 19.1242C105.991 18.0449 106.2 17.113 106.61 16.353C107.021 15.5988 107.583 15.013 108.288 14.6318C108.988 14.2459 109.778 14.0469 110.579 14.0542C111.399 14.0542 112.176 14.2448 112.883 14.6318C113.595 15.013 114.172 15.5906 114.604 16.353C115.029 17.1072 115.252 18.0449 115.252 19.1242C115.252 20.2093 115.021 21.147 114.575 21.9164H114.574Z" fill="white"/>
</svg>
