<svg width="150" height="62" viewBox="0 0 150 62" fill="none" xmlns="http://www.w3.org/2000/svg">
<path d="M11.1339 22.0531C13.1887 22.0531 14.9605 22.8604 16.4492 24.4749C17.917 26.0684 18.6508 28.0289 18.6508 30.3564C18.6508 32.7047 17.917 34.6757 16.4492 36.2693C14.9815 37.8628 13.2097 38.6596 11.1339 38.6596C9.10002 38.6596 7.53792 38.0201 6.4476 36.741L6.4476 38.2193L1.72986 38.2193L1.72986 16.2031L6.4476 16.2031L6.4476 23.9717C7.53792 22.6926 9.10002 22.0531 11.1339 22.0531ZM7.4855 33.1555C8.19841 33.8475 9.10002 34.1934 10.1903 34.1934C11.2807 34.1934 12.1718 33.8475 12.8637 33.1555C13.5766 32.4636 13.9331 31.5305 13.9331 30.3564C13.9331 29.1822 13.5766 28.2491 12.8637 27.5572C12.1718 26.8652 11.2807 26.5193 10.1903 26.5193C9.10002 26.5193 8.19841 26.8652 7.4855 27.5572C6.79357 28.2491 6.4476 29.1822 6.4476 30.3564C6.4476 31.5305 6.79357 32.4636 7.4855 33.1555Z" fill="#F9B035"/>
<path d="M36.7055 32.2434L25.5402 32.2434C26.0644 33.7112 27.3225 34.4451 29.3144 34.4451C30.5934 34.4451 31.5999 34.0467 32.3337 33.2499L36.1079 35.4201C34.5773 37.5797 32.2918 38.6596 29.2515 38.6596C26.6305 38.6596 24.5128 37.8733 22.8983 36.3007C21.3257 34.7281 20.5394 32.7467 20.5394 30.3564C20.5394 28.008 21.3152 26.037 22.8668 24.4434C24.4394 22.8499 26.4523 22.0531 28.9055 22.0531C31.191 22.0531 33.0886 22.8499 34.5983 24.4434C36.1289 25.9951 36.8942 27.966 36.8942 30.3564C36.8942 31.0273 36.8313 31.6564 36.7055 32.2434ZM25.4458 28.7209L32.2079 28.7209C31.7467 27.0644 30.6354 26.2362 28.8741 26.2362C27.0499 26.2362 25.9071 27.0644 25.4458 28.7209Z" fill="#F9B035"/>
<path d="M48.3247 22.4934L48.3247 27.0225L45.0852 27.0225L45.0852 32.5894C45.0852 33.1975 45.3263 33.5959 45.8086 33.7846C46.2908 33.9523 47.1295 34.0047 48.3247 33.9418L48.3247 38.2193C45.3473 38.5338 43.2715 38.2507 42.0973 37.3701C40.944 36.4684 40.3674 34.8749 40.3674 32.5894L40.3674 27.0225L37.8513 27.0225L37.8513 22.4934L40.3674 22.4934L40.3674 19.5055L45.0852 18.0902L45.0852 22.4934L48.3247 22.4934Z" fill="#F9B035"/>
<path d="M67.0863 30.9207L69.3508 22.4917L74.3831 22.4917L69.3508 38.2175L64.9476 38.2175L62.4315 29.8199L59.9153 38.2175L55.5121 38.2175L50.4799 22.4917L55.5121 22.4917L57.7766 30.9207L60.2299 22.4917L64.6331 22.4917L67.0863 30.9207Z" fill="white"/>
<path d="M85.4708 22.0514C87.1691 22.0514 88.5635 22.628 89.6538 23.7812C90.7861 24.9554 91.3522 26.5489 91.3522 28.5618L91.3522 38.2175L86.6345 38.2175L86.6345 29.2538C86.6345 28.3522 86.3829 27.6497 85.8796 27.1465C85.3764 26.6433 84.7159 26.3917 83.8982 26.3917C82.9756 26.3917 82.2522 26.6747 81.728 27.2409C81.2248 27.786 80.9732 28.5828 80.9732 29.6312L80.9732 38.2175L76.2554 38.2175L76.2554 16.2014L80.9732 16.2014L80.9732 23.9699C81.9167 22.6909 83.4159 22.0514 85.4708 22.0514Z" fill="white"/>
<path d="M106.009 23.9699L106.009 22.4917L110.727 22.4917L110.727 38.2175L106.009 38.2175L106.009 36.7393C104.919 38.0183 103.356 38.6578 101.323 38.6578C99.2468 38.6578 97.475 37.861 96.0073 36.2675C94.5396 34.6739 93.8057 32.703 93.8057 30.3546C93.8057 28.0272 94.5396 26.0667 96.0073 24.4731C97.496 22.8586 99.2678 22.0514 101.323 22.0514C103.356 22.0514 104.919 22.6909 106.009 23.9699ZM98.5234 30.3546C98.5234 31.5288 98.8694 32.4618 99.5613 33.1538C100.253 33.8457 101.155 34.1917 102.266 34.1917C103.377 34.1917 104.279 33.8457 104.971 33.1538C105.663 32.4618 106.009 31.5288 106.009 30.3546C106.009 29.1804 105.663 28.2473 104.971 27.5554C104.279 26.8635 103.377 26.5175 102.266 26.5175C101.155 26.5175 100.253 26.8635 99.5613 27.5554C98.8694 28.2473 98.5234 29.1804 98.5234 30.3546Z" fill="white"/>
<path d="M118.906 38.2175L114.188 38.2175L114.188 15.2578L118.906 15.2578L118.906 38.2175Z" fill="white"/>
<path d="M137.738 32.2417L126.572 32.2417C127.097 33.7094 128.355 34.4433 130.347 34.4433C131.626 34.4433 132.632 34.0449 133.366 33.2481L137.14 35.4183C135.609 37.578 133.324 38.6578 130.284 38.6578C127.663 38.6578 125.545 37.8715 123.93 36.2989C122.358 34.7264 121.572 32.7449 121.572 30.3546C121.572 28.0062 122.347 26.0352 123.899 24.4417C125.472 22.8481 127.484 22.0514 129.938 22.0514C132.223 22.0514 134.121 22.8481 135.63 24.4417C137.161 25.9933 137.926 27.9643 137.926 30.3546C137.926 31.0256 137.863 31.6546 137.738 32.2417ZM126.478 28.7191L133.24 28.7191C132.779 27.0627 131.668 26.2344 129.906 26.2344C128.082 26.2344 126.939 27.0627 126.478 28.7191Z" fill="white"/>
<circle cx="126.464" cy="6.09961" r="6" fill="white"/>
<path d="M125.367 0.149414C126.136 0.00784104 126.916 0.0172661 127.685 0.175781C128.454 0.334359 129.175 0.634204 129.826 1.06836C130.415 1.46187 130.924 1.95063 131.343 2.52344L131.517 2.77441L131.568 2.85156H131.565C131.986 3.51284 132.273 4.23517 132.414 5.00195C132.556 5.77118 132.547 6.552 132.388 7.32129C132.229 8.09041 131.929 8.81057 131.495 9.46094C131.045 10.1343 130.471 10.7035 129.789 11.1523C129.108 11.601 128.358 11.9032 127.562 12.0498C127.2 12.1165 126.834 12.1494 126.469 12.1494C126.06 12.1494 125.649 12.1073 125.243 12.0234C124.473 11.8648 123.753 11.5649 123.103 11.1309C122.429 10.6813 121.86 10.1067 121.411 9.4248C120.963 8.74301 120.661 7.99349 120.514 7.19727C120.372 6.42814 120.382 5.6481 120.54 4.87891C120.699 4.10961 120.999 3.38878 121.433 2.73828C121.883 2.06477 122.457 1.49575 123.139 1.04688C123.821 0.598277 124.57 0.295976 125.367 0.149414ZM128.183 9.92383C127.689 10.1657 127.191 10.3564 126.691 10.4902C126.079 10.6538 125.464 10.7363 124.855 10.7363C124.623 10.7363 124.392 10.7241 124.162 10.7002C123.614 10.6433 123.149 10.5247 122.782 10.4014C122.952 10.547 123.13 10.6833 123.318 10.8086C123.923 11.2128 124.594 11.4926 125.31 11.6416L125.322 11.6445C125.823 11.7479 126.329 11.7827 126.832 11.75C126.894 11.733 127.149 11.6579 127.427 11.5088C127.715 11.3548 128.021 11.1266 128.172 10.8086C128.295 10.5497 128.299 10.2541 128.183 9.92383ZM129.611 9.06738C129.255 9.32174 128.894 9.54786 128.531 9.74512C128.699 10.188 128.698 10.6022 128.521 10.9756C128.417 11.1943 128.262 11.3745 128.09 11.5234C128.614 11.3665 129.112 11.1348 129.577 10.8291C129.761 10.7082 129.935 10.5759 130.102 10.4365C129.995 9.96555 129.829 9.50701 129.611 9.06738ZM120.858 5.31543C120.773 5.91864 120.784 6.52633 120.895 7.12695C121.032 7.87192 121.315 8.5735 121.735 9.21191C121.838 9.3687 121.948 9.5198 122.065 9.66406C122.205 9.74736 123.003 10.1932 124.217 10.3164C125.001 10.396 125.803 10.3279 126.601 10.1133C127.074 9.98595 127.547 9.80521 128.016 9.5752C127.822 9.27118 127.501 8.99941 127.011 8.73438C126.479 8.44689 125.824 8.20568 125.126 7.94922C124.329 7.65619 123.477 7.34363 122.709 6.91895C121.979 6.51494 121.324 6.00635 120.858 5.31543ZM130.786 8.07227C130.53 8.3352 130.243 8.58936 129.927 8.83301C130.142 9.25356 130.308 9.69192 130.426 10.1416C130.704 9.86977 130.956 9.57233 131.173 9.24609V9.24512L131.372 8.92383C131.426 8.83048 131.475 8.73468 131.523 8.63867C131.25 8.53725 131.004 8.3471 130.786 8.07227ZM123.338 1.37988C122.785 1.74597 122.308 2.19611 121.918 2.72168L121.755 2.9541L121.621 3.16406C121.324 3.6554 121.105 4.18585 120.967 4.74609C121.32 5.42829 121.899 6.00149 122.744 6.49414C123.52 6.94704 124.402 7.27082 125.259 7.58594C125.965 7.84533 126.637 8.09211 127.195 8.39355C127.752 8.695 128.129 9.01773 128.361 9.39648C128.719 9.2011 129.076 8.9768 129.428 8.72266C128.333 6.74696 127.129 4.99138 125.94 3.64062C124.98 2.55064 124.061 1.75489 123.338 1.37988ZM126.459 0.436523C126.118 0.436529 125.776 0.467894 125.437 0.530273C124.831 0.641709 124.255 0.849982 123.717 1.14941C125.129 1.98464 127.421 4.31478 129.741 8.4873C130.045 8.24885 130.32 8.00084 130.564 7.74512C130.185 7.07996 130.159 6.30364 130.13 5.50098C130.104 4.7695 130.077 3.99653 129.81 3.1875C129.544 2.38214 129.038 1.53874 128.055 0.666992C127.908 0.624035 127.758 0.585917 127.607 0.554688C127.226 0.476191 126.842 0.436523 126.459 0.436523ZM132.122 5.9707C131.965 6.4383 131.732 6.89068 131.422 7.32227C131.31 7.4793 131.185 7.63219 131.052 7.78418C131.246 8.04331 131.459 8.20903 131.686 8.28613C131.826 7.95147 131.935 7.60351 132.009 7.24316C132.096 6.82107 132.132 6.39546 132.122 5.9707ZM128.953 1.0127C129.526 1.64936 129.93 2.3245 130.174 3.06055C130.462 3.92859 130.491 4.76033 130.517 5.4873C130.543 6.23814 130.569 6.88447 130.84 7.43652C130.935 7.32392 131.024 7.21087 131.107 7.0957C131.627 6.36992 131.917 5.58836 131.969 4.77148C131.836 4.21765 131.621 3.68996 131.326 3.19727L131.194 2.9873L131.031 2.75195C130.639 2.2157 130.161 1.75859 129.61 1.39062C129.398 1.24964 129.18 1.12313 128.953 1.0127Z" fill="black" stroke="black" stroke-width="0.1"/>
<circle cx="103.242" cy="49.564" r="4" transform="rotate(-34.0176 103.242 49.564)" fill="white"/>
<path d="M100.404 46.6731C100.778 46.3066 101.214 46.0196 101.7 45.8196C102.187 45.6195 102.699 45.5162 103.222 45.5135C103.764 45.5108 104.295 45.6164 104.799 45.8265L104.886 45.8623L104.883 45.864C105.353 46.0722 105.773 46.3619 106.132 46.7273C106.498 47.1011 106.786 47.5367 106.986 48.0228C107.186 48.509 107.289 49.0212 107.292 49.5446C107.295 50.0866 107.189 50.6172 106.979 51.1214C106.769 51.6258 106.466 52.0752 106.079 52.4549C105.903 52.6275 105.712 52.7824 105.51 52.9191C105.283 53.0724 105.04 53.2027 104.783 53.3084C104.297 53.5085 103.784 53.6118 103.261 53.6145C102.719 53.6173 102.188 53.5116 101.684 53.3015C101.18 53.0912 100.73 52.7882 100.351 52.4012C99.9842 52.0275 99.6972 51.5912 99.4972 51.1052C99.2971 50.619 99.1938 50.1069 99.1911 49.5834C99.1883 49.0414 99.294 48.5108 99.5041 48.0066C99.7144 47.5022 100.017 47.0527 100.404 46.6731ZM105.621 51.0626C105.44 51.3741 105.24 51.6604 105.017 51.9168C104.739 52.2364 104.428 52.512 104.09 52.7401C103.962 52.8268 103.83 52.907 103.694 52.9796C103.406 53.1332 103.136 53.2356 102.904 53.3053C103.022 53.316 103.14 53.3229 103.259 53.3223C103.745 53.3197 104.22 53.2251 104.672 53.0393C104.986 52.9102 105.276 52.741 105.541 52.5362C105.571 52.5014 105.681 52.368 105.776 52.1865C105.877 51.9954 105.959 51.7584 105.925 51.5316C105.897 51.3529 105.796 51.1973 105.621 51.0626ZM106.096 50.0553C105.997 50.3178 105.886 50.5674 105.764 50.8034C106.018 50.9861 106.172 51.215 106.214 51.4885C106.234 51.6237 106.222 51.7569 106.196 51.8832C106.404 51.6179 106.578 51.3264 106.71 51.0095C106.765 50.878 106.811 50.744 106.85 50.6089C106.623 50.397 106.37 50.2123 106.096 50.0553ZM99.8889 51.2543C100.063 51.6015 100.286 51.9185 100.559 52.1969C100.911 52.5559 101.328 52.8375 101.796 53.0327C101.91 53.0803 102.026 53.1218 102.143 53.1577C102.261 53.1504 102.86 53.0961 103.565 52.7176C104.026 52.4703 104.442 52.135 104.802 51.7203C105.011 51.4787 105.2 51.2083 105.371 50.9134C105.157 50.8253 104.886 50.7969 104.528 50.8321C104.128 50.8715 103.678 50.9827 103.196 51.1014C102.647 51.2368 102.057 51.382 101.473 51.4338C100.933 51.4816 100.395 51.4482 99.8889 51.2543ZM106.378 49.0621C106.335 49.2945 106.274 49.5328 106.194 49.7755C106.458 49.9223 106.703 50.0947 106.927 50.2891C106.976 50.0451 107.001 49.7973 107 49.5463L107 49.5428C106.999 49.3935 106.987 49.2455 106.969 49.0985C106.787 49.1386 106.59 49.1264 106.378 49.0621ZM99.7649 48.1381C99.5992 48.5418 99.5053 48.9633 99.4861 49.3937L99.4833 49.5817C99.4856 50.018 99.5635 50.4457 99.7138 50.8553C100.158 51.0962 100.687 51.1947 101.332 51.1524C101.928 51.1133 102.534 50.9647 103.126 50.819C103.613 50.699 104.077 50.584 104.499 50.5425C104.914 50.5016 105.242 50.5372 105.512 50.6567C105.632 50.4238 105.74 50.1765 105.837 49.9156C104.5 49.2362 103.186 48.7189 102.031 48.4174C101.1 48.1745 100.301 48.0782 99.7649 48.1381ZM101.136 46.4501C100.948 46.5769 100.772 46.7213 100.609 46.8816C100.324 47.1608 100.091 47.4815 99.9081 47.8352C101.011 47.78 103.129 48.2172 105.933 49.6375C106.007 49.4032 106.063 49.1743 106.102 48.952C105.647 48.7221 105.342 48.3045 105.03 47.8761C104.743 47.4814 104.441 47.0668 103.994 46.7212C103.549 46.3775 102.959 46.1001 102.094 45.9853C101.999 46.0159 101.905 46.0504 101.811 46.0887C101.573 46.1869 101.347 46.3079 101.136 46.4501ZM106.36 47.4666C106.431 47.7594 106.462 48.0681 106.453 48.3907C106.45 48.5155 106.438 48.6426 106.423 48.7717C106.612 48.8356 106.778 48.8452 106.921 48.81C106.875 48.5857 106.81 48.3649 106.723 48.1497L106.716 48.1343C106.619 47.8984 106.5 47.6753 106.36 47.4666ZM102.818 45.8324C103.334 45.9724 103.78 46.1886 104.168 46.4878C104.654 46.8616 104.982 47.3126 105.267 47.7047C105.555 48.1009 105.804 48.4378 106.143 48.6414C106.151 48.5538 106.16 48.4672 106.162 48.3821C106.179 47.7913 106.048 47.2556 105.776 46.7884C105.457 46.4971 105.092 46.2646 104.688 46.0961C104.219 45.9008 103.727 45.8031 103.224 45.8057C103.087 45.8064 102.952 45.8171 102.818 45.8324Z" fill="black" stroke="black" stroke-width="0.1"/>
<circle cx="127.866" cy="57.8645" r="3.5" transform="rotate(-157.142 127.866 57.8645)" fill="white"/>
<path d="M127.103 61.3315C126.655 61.2327 126.235 61.0506 125.856 60.7896C125.476 60.5286 125.156 60.2017 124.903 59.8189C124.674 59.4719 124.51 59.0915 124.414 58.6865L124.377 58.5107L124.36 58.4199L124.362 58.4211C124.292 57.9797 124.304 57.536 124.399 57.1013C124.498 56.6533 124.68 56.2332 124.941 55.8535C125.202 55.4738 125.529 55.1527 125.912 54.9C126.309 54.6383 126.749 54.4618 127.22 54.3746C127.691 54.2874 128.166 54.2952 128.63 54.3975C128.841 54.444 129.045 54.5092 129.243 54.5923C129.464 54.6857 129.677 54.8014 129.877 54.9394C130.257 55.2005 130.578 55.5275 130.831 55.9105C131.093 56.307 131.269 56.7474 131.356 57.2182C131.444 57.6891 131.436 58.1637 131.334 58.6276C131.235 59.0757 131.053 59.4958 130.792 59.8755C130.531 60.2551 130.204 60.5754 129.821 60.8281C129.424 61.0898 128.984 61.2672 128.513 61.3544C128.042 61.4416 127.567 61.4338 127.103 61.3315ZM127.834 55.3983C128.146 55.3822 128.45 55.3921 128.742 55.4326C129.11 55.4836 129.462 55.5791 129.791 55.7179C129.916 55.7706 130.038 55.83 130.156 55.8951C130.396 56.0269 130.593 56.1694 130.752 56.3011C130.707 56.2183 130.659 56.1368 130.607 56.0576C130.373 55.7036 130.076 55.4017 129.725 55.1602C129.481 54.9925 129.219 54.8599 128.944 54.764C128.903 54.7589 128.754 54.7433 128.577 54.7598C128.389 54.7772 128.178 54.8294 128.029 54.9615C127.914 55.0644 127.849 55.2098 127.834 55.3983ZM126.867 55.5314C127.103 55.4793 127.335 55.442 127.563 55.4189C127.576 55.1459 127.671 54.9232 127.852 54.7616C127.935 54.6878 128.03 54.635 128.127 54.5946C127.842 54.572 127.554 54.5845 127.268 54.6375L127.074 54.6795C127.019 54.6929 126.966 54.7101 126.913 54.7262C126.867 54.9901 126.852 55.2597 126.867 55.5314ZM130.711 59.496C130.877 59.2066 131.001 58.897 131.073 58.5697C131.167 58.1408 131.174 57.7021 131.093 57.2664L131.059 57.1045C131.047 57.054 131.034 57.0039 131.019 56.9543C130.957 56.8703 130.632 56.4593 130.02 56.1249C129.619 55.9059 129.175 55.7618 128.7 55.6967C128.426 55.6592 128.141 55.6497 127.847 55.6648C127.886 55.8603 127.992 56.0699 128.186 56.312C128.406 56.5855 128.702 56.8621 129.019 57.1583C129.381 57.4962 129.769 57.8584 130.087 58.262C130.377 58.6311 130.609 59.0378 130.711 59.496ZM126.003 55.7987C126.191 55.7208 126.391 55.6525 126.603 55.5958C126.585 55.3371 126.594 55.0799 126.628 54.8265C126.43 54.9069 126.24 55.0054 126.06 55.1242C125.952 55.1952 125.851 55.2738 125.753 55.3563C125.867 55.4696 125.95 55.6174 126.003 55.7987ZM128.487 61.087C128.914 61.0049 129.313 60.8426 129.673 60.6048C129.991 60.3955 130.266 60.1357 130.493 59.8313C130.457 59.3924 130.278 58.9593 129.939 58.5083C129.626 58.0907 129.226 57.7175 128.836 57.3535C128.516 57.0544 128.21 56.7681 127.977 56.4783C127.751 56.1961 127.62 55.9404 127.577 55.6863C127.353 55.7096 127.124 55.7475 126.892 55.8003C127.033 57.1018 127.28 58.3098 127.611 59.2986C127.877 60.0946 128.188 60.7232 128.487 61.087ZM126.594 60.8901C126.777 60.967 126.966 61.0278 127.161 61.0709C127.498 61.1451 127.84 61.1632 128.183 61.1294C127.616 60.343 126.927 58.5863 126.628 55.8672C126.425 55.9235 126.234 55.9897 126.057 56.0662C126.104 56.5092 125.944 56.9322 125.78 57.3633C125.628 57.7625 125.469 58.1816 125.429 58.6736C125.39 59.162 125.47 59.7248 125.798 60.4113C125.866 60.4662 125.936 60.519 126.008 60.5688C126.194 60.6964 126.39 60.8039 126.594 60.8901ZM124.859 56.5534C125.035 56.3711 125.237 56.2071 125.468 56.0658C125.559 56.0097 125.656 55.9584 125.756 55.9088C125.713 55.7456 125.645 55.624 125.555 55.5376C125.411 55.6806 125.279 55.8357 125.163 56.0051L125.039 56.1987C124.971 56.3133 124.912 56.4322 124.859 56.5534ZM125.321 59.9358C125.183 59.499 125.13 59.0762 125.163 58.6558C125.205 58.1205 125.379 57.6639 125.53 57.2675C125.681 56.8704 125.808 56.531 125.798 56.1902C125.733 56.2244 125.668 56.2572 125.608 56.2944C125.168 56.5639 124.838 56.9145 124.627 57.3361C124.566 57.7081 124.57 58.0858 124.64 58.4617L124.642 58.4721C124.723 58.9041 124.886 59.3077 125.126 59.6714C125.187 59.7632 125.252 59.8512 125.321 59.9358Z" fill="black" stroke="black" stroke-width="0.1"/>
<circle cx="146.158" cy="24.5708" r="3" transform="rotate(80.5987 146.158 24.5708)" fill="white"/>
<path d="M149.027 23.5345C149.161 23.9054 149.22 24.2945 149.205 24.69C149.189 25.0856 149.099 25.4689 148.937 25.8281C148.769 26.2001 148.53 26.5303 148.228 26.8096L148.16 26.8734L148.159 26.8705C147.873 27.1197 147.549 27.3111 147.193 27.4393C146.823 27.5729 146.434 27.633 146.039 27.6176C145.643 27.602 145.26 27.512 144.901 27.3497C144.529 27.1816 144.199 26.9431 143.919 26.6411C143.64 26.3389 143.427 25.9903 143.289 25.6062C143.226 25.4316 143.18 25.2524 143.15 25.0709C143.116 24.8675 143.103 24.6606 143.111 24.4517C143.127 24.056 143.217 23.6728 143.379 23.3135C143.547 22.9416 143.786 22.6114 144.088 22.3321C144.39 22.0528 144.738 21.8401 145.122 21.7016C145.493 21.5678 145.882 21.5087 146.277 21.5241C146.673 21.5396 147.056 21.6296 147.415 21.792C147.787 21.9601 148.117 22.1986 148.397 22.5006L148.499 22.6163C148.729 22.8904 148.906 23.1987 149.027 23.5345ZM144.375 25.7204C144.222 25.5031 144.091 25.2806 143.988 25.0519C143.856 24.7616 143.765 24.4623 143.715 24.1596C143.696 24.0445 143.683 23.9288 143.676 23.8128C143.662 23.595 143.674 23.3993 143.693 23.2318C143.661 23.2914 143.629 23.3513 143.601 23.4135C143.451 23.7441 143.369 24.0967 143.354 24.4609C143.344 24.7124 143.368 24.9608 143.424 25.2027C143.436 25.2298 143.493 25.3484 143.588 25.4725C143.686 25.6002 143.82 25.7273 143.982 25.7736C144.104 25.8088 144.235 25.7912 144.375 25.7204ZM144.913 26.3607C144.772 26.2172 144.642 26.0701 144.523 25.9195C144.32 26.0332 144.115 26.065 143.914 26.0074C143.832 25.9836 143.756 25.9463 143.688 25.9014C143.799 26.1078 143.936 26.3006 144.098 26.4759C144.168 26.552 144.243 26.6224 144.32 26.6895C144.528 26.6032 144.727 26.4929 144.913 26.3607ZM146.021 21.7705C145.742 21.7837 145.469 21.8363 145.205 21.9313C144.852 22.0586 144.531 22.2533 144.253 22.5106C144.185 22.5731 144.122 22.6389 144.062 22.7066C144.028 22.7946 143.882 23.2151 143.919 23.8052C143.943 24.1951 144.042 24.582 144.212 24.9554C144.309 25.1681 144.431 25.3759 144.574 25.5795C144.694 25.4631 144.795 25.2942 144.88 25.0477C144.978 24.7639 145.042 24.4229 145.112 24.0571C145.191 23.6401 145.276 23.1926 145.424 22.7771C145.556 22.4029 145.742 22.0528 146.021 21.7705ZM145.503 26.8679C145.364 26.7692 145.226 26.6577 145.091 26.5332C144.916 26.6607 144.731 26.7704 144.538 26.8604C144.683 26.9635 144.837 27.0542 145.001 27.1282L145.01 27.1316C145.106 27.1744 145.204 27.2099 145.303 27.2416C145.333 27.1109 145.4 26.9863 145.503 26.8679ZM148.203 22.6495C147.949 22.3791 147.65 22.1651 147.314 22.0136C147.019 21.8803 146.707 21.8005 146.384 21.7747C146.085 22.0007 145.854 22.3271 145.683 22.7767C145.524 23.1942 145.436 23.6534 145.351 24.1026C145.281 24.4716 145.214 24.8248 145.11 25.1265C145.01 25.4175 144.885 25.6293 144.722 25.7777C144.839 25.926 144.968 26.0708 145.109 26.2124C145.985 25.5162 146.745 24.7855 147.309 24.0952C147.762 23.5405 148.075 23.0307 148.203 22.6495ZM148.927 24.1105C148.899 23.9435 148.856 23.7789 148.798 23.6181C148.699 23.3447 148.559 23.092 148.381 22.8624C148.066 23.6355 147.108 24.9303 145.287 26.382C145.417 26.5 145.549 26.6049 145.682 26.6966C145.983 26.4611 146.363 26.3832 146.748 26.3054C147.107 26.2329 147.483 26.1565 147.856 25.9606C148.227 25.766 148.598 25.4522 148.945 24.9013C148.953 24.8283 148.959 24.7547 148.962 24.6808C148.969 24.4884 148.958 24.2977 148.927 24.1105ZM146.548 27.3482C146.346 27.3037 146.146 27.2357 145.949 27.1386C145.868 27.0986 145.788 27.053 145.708 27.0042C145.614 27.1053 145.56 27.2053 145.538 27.3046C145.705 27.3423 145.875 27.3677 146.048 27.3745L146.244 27.3757C146.346 27.3727 146.447 27.3622 146.548 27.3482ZM148.806 25.4994C148.558 25.7872 148.283 26.0112 147.972 26.175C147.563 26.39 147.152 26.473 146.796 26.545C146.443 26.6162 146.144 26.6777 145.904 26.8351C145.956 26.8644 146.006 26.8943 146.057 26.9197C146.453 27.115 146.857 27.1922 147.259 27.1523C147.479 27.0584 147.686 26.9373 147.876 26.7898L148.063 26.6311C148.067 26.6278 148.07 26.6238 148.073 26.6205L148.074 26.6203C148.347 26.3655 148.563 26.0656 148.715 25.7282C148.749 25.6532 148.779 25.5766 148.806 25.4994Z" fill="black" stroke="black" stroke-width="0.1"/>
<circle cx="105.365" cy="10.195" r="2.28497" transform="rotate(134.832 105.365 10.195)" fill="white"/>
<path d="M107.292 11.5138C107.122 11.7628 106.907 11.974 106.655 12.1413C106.402 12.3087 106.123 12.4236 105.827 12.4835C105.597 12.53 105.364 12.5417 105.132 12.518L104.9 12.4828L104.809 12.4644L104.813 12.4609C104.537 12.3941 104.28 12.2817 104.047 12.122C103.798 11.9516 103.586 11.737 103.419 11.4844C103.252 11.2318 103.136 10.9533 103.076 10.6575C103.014 10.3511 103.014 10.0388 103.077 9.7301C103.14 9.42152 103.262 9.13409 103.438 8.87623C103.519 8.75913 103.608 8.64999 103.707 8.55019C103.819 8.43807 103.942 8.3372 104.076 8.24873C104.329 8.0814 104.607 7.96577 104.903 7.90587C105.209 7.84392 105.521 7.84465 105.83 7.90729C106.138 7.96999 106.426 8.09085 106.683 8.26732C106.932 8.43788 107.144 8.65292 107.312 8.90561C107.479 9.15824 107.593 9.4368 107.653 9.73256C107.715 10.0388 107.716 10.3507 107.653 10.6593C107.59 10.9679 107.469 11.2559 107.292 11.5138ZM103.855 9.58764C103.92 9.40078 103.998 9.22417 104.091 9.06145C104.213 8.85015 104.357 8.65968 104.523 8.49325C104.586 8.42993 104.652 8.37074 104.721 8.31451C104.829 8.22609 104.935 8.15523 105.033 8.09746C105.004 8.10215 104.973 8.10554 104.944 8.11153C104.675 8.16609 104.422 8.27082 104.192 8.42309C104.033 8.52803 103.891 8.65222 103.767 8.79309C103.756 8.81352 103.709 8.89974 103.676 9.01157C103.641 9.12824 103.622 9.26484 103.664 9.38173C103.695 9.46657 103.758 9.53467 103.855 9.58764ZM103.695 10.2068C103.72 10.0626 103.752 9.92353 103.79 9.78946C103.632 9.71314 103.52 9.60224 103.466 9.45205C103.449 9.40364 103.441 9.35395 103.436 9.30505C103.369 9.4509 103.317 9.60393 103.284 9.76402L103.283 9.77231C103.268 9.84676 103.257 9.92144 103.25 9.99614C103.39 10.0815 103.538 10.1521 103.695 10.2068ZM107.006 8.84643C106.878 8.69125 106.732 8.55433 106.565 8.4403C106.331 8.27974 106.069 8.16961 105.788 8.11251C105.72 8.09871 105.652 8.0885 105.584 8.08134C105.509 8.10152 105.19 8.19963 104.849 8.47986C104.62 8.66764 104.426 8.90006 104.271 9.17002C104.185 9.32004 104.113 9.4827 104.052 9.65611C104.172 9.67436 104.316 9.6606 104.498 9.60578C104.716 9.5401 104.954 9.42877 105.211 9.30882C105.504 9.17229 105.82 9.02523 106.143 8.93113C106.425 8.84932 106.715 8.80678 107.006 8.84643ZM103.642 10.8002C103.642 10.6766 103.649 10.549 103.664 10.4175C103.518 10.3688 103.377 10.3073 103.243 10.2337C103.245 10.3616 103.255 10.4896 103.281 10.6161L103.283 10.6251C103.298 10.6979 103.319 10.7687 103.342 10.839C103.432 10.8044 103.532 10.7916 103.642 10.8002ZM107.453 10.5936C107.505 10.3203 107.503 10.0445 107.448 9.7739C107.4 9.53493 107.312 9.30878 107.186 9.10002C106.917 9.01785 106.616 9.02113 106.265 9.11446C105.938 9.20166 105.616 9.35124 105.3 9.49846C105.041 9.61927 104.791 9.73545 104.558 9.80586C104.337 9.87219 104.153 9.88933 103.989 9.85724C103.951 9.98897 103.921 10.1262 103.897 10.2691C104.713 10.4986 105.498 10.6414 106.172 10.6822C106.712 10.715 107.162 10.6823 107.453 10.5936ZM106.874 11.6925C106.964 11.6016 107.046 11.5024 107.119 11.3956C107.24 11.2197 107.331 11.0281 107.393 10.8251C106.767 10.9691 105.552 10.9488 103.868 10.4784C103.855 10.603 103.849 10.7232 103.851 10.8389C104.13 10.9223 104.347 11.1227 104.563 11.3236C104.768 11.5132 104.982 11.7099 105.267 11.8526C105.55 11.9936 105.905 12.0828 106.396 12.053C106.444 12.026 106.492 11.9971 106.538 11.9663C106.66 11.8857 106.772 11.7945 106.874 11.6925ZM103.787 11.6173C103.737 11.4893 103.697 11.3543 103.673 11.2109C103.662 11.1461 103.657 11.0793 103.651 11.0114C103.558 11.001 103.48 11.009 103.415 11.0342C103.465 11.1498 103.523 11.2622 103.593 11.3686C103.652 11.4569 103.717 11.5396 103.787 11.6173ZM105.898 12.2506C105.636 12.2203 105.397 12.1509 105.175 12.0407C104.859 11.8832 104.624 11.6647 104.421 11.4767C104.226 11.2957 104.06 11.1438 103.867 11.0647C103.871 11.1024 103.873 11.14 103.879 11.1765C103.935 11.5055 104.066 11.7867 104.267 12.015C104.475 12.1403 104.701 12.2293 104.942 12.2782L104.956 12.2803L104.957 12.281C105.233 12.335 105.512 12.334 105.786 12.2785C105.824 12.2709 105.86 12.2602 105.898 12.2506Z" fill="black" stroke="black" stroke-width="0.1"/>
</svg>
