<svg width="85" height="54" viewBox="0 0 85 54" fill="none" xmlns="http://www.w3.org/2000/svg">
<path d="M23.3306 35.1051C22.2407 36.2092 21.6951 37.8218 21.6951 39.9413C21.6951 41.6878 22.0515 43.0687 22.7628 44.0841C23.474 45.0996 24.4361 45.6065 25.6472 45.6065C26.3584 45.6065 26.9941 45.4199 27.5555 45.0468C28.1311 44.6735 28.6153 44.1354 29.0095 43.434H29.101L29.0332 45.2706H32.077V33.9636C30.533 33.6059 29.1846 33.4255 28.035 33.4255C25.9879 33.4255 24.4219 33.9854 23.3306 35.1051ZM28.986 40.1436C28.5917 40.9646 28.1689 41.6209 27.7147 42.1138C27.2605 42.6068 26.7986 42.8524 26.3302 42.8524C25.8459 42.8524 25.4674 42.5834 25.1946 42.047C24.9218 41.4949 24.7861 40.7485 24.7861 39.8077C24.7861 38.6134 25.0132 37.7098 25.4674 37.0986C25.9375 36.4861 26.625 36.1812 27.5334 36.1812C28.0175 36.1812 28.5018 36.248 28.9875 36.3834V40.1436H28.986Z" fill="#4C4C68"/>
<path d="M47.2018 28.9253H46.4626C45.6573 28.9253 45.0044 29.577 45.0044 30.3809C45.0044 31.1848 45.6573 31.8364 46.4626 31.8364H47.2018C48.0071 31.8364 48.66 31.1848 48.66 30.3809C48.66 29.577 48.0071 28.9253 47.2018 28.9253Z" fill="#4C4C68"/>
<path d="M17.3217 42.8758C16.2462 42.8758 15.4135 42.5927 14.8237 42.0252C14.248 41.4577 13.961 40.6521 13.961 39.607C13.961 38.5775 14.2417 37.7487 14.8016 37.122C15.3772 36.4952 16.1341 36.1812 17.0726 36.1812C17.4353 36.1812 17.8216 36.234 18.2301 36.3382C18.6544 36.4284 19.0407 36.5544 19.3877 36.7193L20.0012 34.0538C19.6685 33.889 19.1906 33.7474 18.5708 33.6278C17.9652 33.4939 17.3816 33.4255 16.8218 33.4255C15.6264 33.4255 14.5729 33.6946 13.6646 34.2311C12.7561 34.7537 12.0528 35.5001 11.5529 36.4705C11.053 37.4253 10.8037 38.531 10.8037 39.7843C10.8037 41.6348 11.3336 43.0687 12.3933 44.0841C13.469 45.0996 14.9751 45.6065 16.9133 45.6065C18.0487 45.6065 19.1086 45.4121 20.0927 45.0249L19.6163 42.4715C18.7979 42.7406 18.0345 42.8758 17.3217 42.8758Z" fill="#4C4C68"/>
<path d="M57.5638 33.4255C56.7153 33.4255 55.9741 33.6122 55.3384 33.9854C54.7029 34.3586 54.1431 34.9403 53.6574 35.7317V33.7398H50.5237V45.2722H53.7251V38.576C54.0121 37.8886 54.4285 37.3226 54.9742 36.8747C55.5198 36.4269 56.0938 36.203 56.6996 36.203C57.2137 36.203 57.6237 36.374 57.9265 36.7177C58.2293 37.0458 58.3807 37.5093 58.3807 38.1064V45.2722H61.5821V37.6134C61.5821 36.2994 61.2257 35.2777 60.5145 34.5452C59.8048 33.7988 58.8206 33.4255 57.5638 33.4255Z" fill="#4C4C68"/>
<path d="M75.1231 36.2912C74.6389 35.3799 73.9419 34.6786 73.0336 34.1856C72.1408 33.6786 71.1032 33.4236 69.9219 33.4236C68.7407 33.4236 67.6967 33.6771 66.7884 34.1856C65.8956 34.6925 65.1986 35.4095 64.6987 36.3347C64.2145 37.2461 63.9717 38.305 63.9717 39.5149C63.9717 40.7247 64.2208 41.7916 64.7207 42.7168C65.2207 43.628 65.9162 44.3372 66.8104 44.8441C67.7187 45.3511 68.7627 45.6061 69.944 45.6061C71.1095 45.6061 72.1392 45.3527 73.032 44.8441C73.9404 44.3216 74.6374 43.5969 75.1215 42.6716C75.6214 41.7308 75.8707 40.6563 75.8707 39.4465C75.8738 38.2553 75.623 37.2024 75.1231 36.2912ZM71.876 41.9564C71.3918 42.569 70.7405 42.8739 69.9235 42.8739C69.1066 42.8739 68.4474 42.5676 67.9474 41.9564C67.4632 41.3297 67.2204 40.5086 67.2204 39.493C67.2204 38.4776 67.4632 37.6722 67.9474 37.075C68.4474 36.4623 69.105 36.1574 69.9235 36.1574C70.7405 36.1574 71.3918 36.4638 71.876 37.075C72.3759 37.6722 72.6251 38.4776 72.6251 39.493C72.6251 40.5086 72.3759 41.3297 71.876 41.9564Z" fill="#4C4C68"/>
<path d="M41.582 39.0689C41.1578 38.8295 40.6279 38.5838 39.9924 38.3303C39.9167 38.3007 39.6517 38.2027 39.1975 38.0394C38.6219 37.8452 38.2134 37.6741 37.9706 37.5247C37.7276 37.3755 37.6077 37.1516 37.6077 36.8529C37.6077 36.5389 37.7513 36.301 38.0399 36.1361C38.3427 35.9713 38.7433 35.8903 39.2432 35.8903C39.7273 35.8903 40.243 35.9729 40.7871 36.1361C41.3469 36.2854 41.847 36.4876 42.2854 36.7411L42.7174 34.0757C41.4763 33.6433 40.2951 33.4255 39.1753 33.4255C37.7528 33.4255 36.5937 33.7536 35.7011 34.4115C34.8227 35.0537 34.3843 35.9573 34.3843 37.1204C34.3843 37.8514 34.5514 38.4423 34.8842 38.8901C35.2169 39.338 35.5876 39.6738 35.9976 39.8979C36.4061 40.1062 36.9359 40.3302 37.5872 40.5696L38.2008 40.7935C38.882 41.033 39.3442 41.2336 39.5855 41.3984C39.8283 41.5477 39.9482 41.7639 39.9482 42.0486C39.9482 42.4061 39.7746 42.6829 39.4261 42.8774C39.0776 43.0562 38.647 43.1464 38.1313 43.1464C37.5857 43.1464 37.0037 43.05 36.3824 42.8556C35.761 42.6611 35.1932 42.4077 34.6791 42.0936L34.3843 44.7808C34.8684 45.0343 35.452 45.2364 36.1333 45.3858C36.8303 45.535 37.5495 45.6096 38.2907 45.6096C39.7589 45.6096 40.9402 45.3033 41.8328 44.6922C42.7254 44.0795 43.1733 43.162 43.1733 41.9381C43.1733 41.2071 43.014 40.61 42.697 40.1467C42.3769 39.6661 42.0062 39.307 41.582 39.0689Z" fill="#4C4C68"/>
<path d="M48.2371 33.7399H45.031V36.4488H45.0341V42.5618V45.2723H48.2371V42.5618V33.7399Z" fill="#4C4C68"/>
<path d="M51.8618 11.2066C50.8234 11.2066 49.9038 11.424 49.1049 11.8571C48.3059 12.2714 47.5964 12.9299 46.9785 13.8368V7.35158C46.9785 6.2008 46.0319 5.26929 44.8667 5.26929C43.7014 5.26929 42.7549 6.20286 42.7549 7.35158V26.8357H46.9785V17.6179C47.3987 16.7911 47.9376 16.1305 48.5971 15.638C49.2756 15.1252 49.9849 14.8708 50.7235 14.8708C51.4018 14.8708 51.9429 15.0965 52.3424 15.5499C52.7418 15.9827 52.9415 16.5942 52.9415 17.382V26.8357H57.1651V16.7315C57.1651 14.998 56.695 13.6501 55.7565 12.6837C54.8182 11.699 53.5199 11.2066 51.8618 11.2066Z" fill="#F98323"/>
<path d="M15.7429 11.2068C15.0313 11.2068 14.3656 11.3155 13.7477 11.533C14.1574 10.815 14.1117 10.1933 14.2324 9.41165C14.3738 8.50073 13.3606 7.67798 12.8363 7.38263C12.93 7.48108 13.1464 7.8011 13.265 8.28328C13.3834 8.76546 13.0838 9.0158 12.9175 9.08136C12.8738 8.86802 12.5429 8.03294 11.5756 6.40204C10.3667 4.36268 8.18406 2.67423 5.962 1.60124C4.18514 0.739567 1.44915 0.275906 0.302734 0.150757C0.639785 0.353864 1.56359 0.963188 2.55812 1.77767C3.80024 2.79732 4.66993 4.46937 5.22337 6.23165C5.66655 7.64325 5.44392 9.32348 5.27749 9.98612L8.4608 12.4112C8.18818 12.4459 7.11466 12.4112 6.63819 12.2675C5.94535 12.0604 5.31908 11.5186 5.07773 11.4468C5.24835 11.7895 5.26915 13.3651 6.43014 14.2166C7.59104 15.0679 8.68544 15.4475 9.51772 15.9603C9.93386 16.3708 10.4873 17.0887 10.4873 18.9352C10.4873 20.3037 10.1752 23.4487 10.0941 24.372C11.1114 21.3971 11.2406 18.9864 11.3196 17.2938C11.4195 15.1787 10.7931 13.1271 9.51772 9.97995C8.49827 7.46259 6.4135 4.0529 5.50009 2.66192C6.16382 3.40664 7.3664 4.84276 9.03302 7.38058C10.6996 9.92055 11.0095 11.0366 11.6338 12.8829C11.64 12.8685 11.6482 12.8667 11.6588 12.8726L12.4515 15.9233C12.595 15.7737 12.7447 15.6383 12.8987 15.5193C13.4584 15.0659 14.0576 14.8402 14.6963 14.8402C15.4746 14.8402 16.0738 15.1951 16.4941 15.903C16.9331 16.6127 17.1536 17.6058 17.1536 18.8859C17.1536 20.4412 16.8248 21.6228 16.1652 22.4311C15.5265 23.2395 14.5882 23.6415 13.3482 23.6415C13.2212 23.6415 13.0985 23.6374 12.9737 23.6312C12.7801 23.578 12.5742 23.5492 12.3619 23.5492C11.2134 23.5492 10.2814 24.3761 10.2814 25.3957C10.2814 26.3928 11.1718 27.2011 12.2829 27.2379C12.2641 27.2667 12.366 27.2749 12.8967 27.2749C15.6328 27.2749 17.7299 26.5364 19.1884 25.0593C20.647 23.5821 21.3751 21.4444 21.3751 18.6479C21.3751 16.305 20.8758 14.4832 19.8771 13.1826C18.8785 11.8674 17.501 11.2068 15.7429 11.2068Z" fill="url(#paint0_linear_3004_31108)"/>
<path d="M38.9469 15.211C38.3082 14.0086 37.3886 13.0835 36.1902 12.433C35.0126 11.7642 33.6436 11.4277 32.085 11.4277C30.5267 11.4277 29.1494 11.7621 27.951 12.433C26.7732 13.1018 25.8537 14.0477 25.1941 15.2683C25.1587 15.3361 25.1276 15.4058 25.0943 15.4755L25.1048 15.4817C24.9153 15.7937 24.8052 16.1587 24.8052 16.5486C24.8052 17.6996 25.7517 18.6329 26.919 18.6329C27.872 18.6329 28.6791 18.0093 28.9412 17.1539C29.085 16.8195 29.2618 16.5136 29.4803 16.245C30.1398 15.4367 31.0073 15.0344 32.0873 15.0344C33.165 15.0344 34.0243 15.4387 34.663 16.245C34.9397 16.5753 35.1541 16.9547 35.3143 17.3816H35.3289C35.6555 18.118 36.3982 18.6329 37.2659 18.6329C38.4332 18.6329 39.3797 17.6996 39.3797 16.5486C39.3797 16.1751 39.2799 15.8263 39.1051 15.5248C39.0552 15.4202 39.0031 15.3135 38.9469 15.211Z" fill="#F98323"/>
<path d="M74.2465 15.211C73.6078 14.0086 72.6882 13.0835 71.4898 12.433C70.3122 11.7642 68.9431 11.4277 67.3846 11.4277C65.8263 11.4277 64.449 11.7621 63.2506 12.433C62.0728 13.1018 61.1532 14.0477 60.4937 15.2683C60.4583 15.3361 60.4272 15.4058 60.3938 15.4755L60.4043 15.4817C60.2149 15.7937 60.1047 16.1587 60.1047 16.5486C60.1047 17.6996 61.0513 18.6329 62.2186 18.6329C63.1715 18.6329 63.9787 18.0093 64.2408 17.1539C64.3845 16.8195 64.5614 16.5136 64.7799 16.245C65.4394 15.4367 66.3069 15.0344 67.3869 15.0344C68.4646 15.0344 69.3238 15.4387 69.9626 16.245C70.2393 16.5753 70.4537 16.9547 70.6139 17.3816H70.6285C70.955 18.118 71.6978 18.6329 72.5655 18.6329C73.7327 18.6329 74.6793 17.6996 74.6793 16.5486C74.6793 16.1751 74.5794 15.8263 74.4046 15.5248C74.3548 15.4202 74.3027 15.3135 74.2465 15.211Z" fill="#F98323"/>
<path d="M37.2325 20.3135C36.3815 20.3135 35.6493 20.816 35.3225 21.5341L35.3102 21.528C35.15 21.9567 34.9377 22.3446 34.6651 22.6851C34.0263 23.4935 33.1671 23.8955 32.0894 23.8955C31.0116 23.8955 30.1419 23.4914 29.4824 22.6851C29.2534 22.3896 29.0703 22.0593 28.9227 21.6982C28.6416 20.8715 27.8532 20.2765 26.919 20.2765C25.7517 20.2765 24.8052 21.21 24.8052 22.361C24.8052 22.7281 24.9028 23.0728 25.0714 23.3724L25.0673 23.3745C25.1192 23.4812 25.1692 23.5878 25.2234 23.6904C25.8829 24.8926 26.8004 25.8281 27.9801 26.4969C29.1785 27.1657 30.556 27.5022 32.1143 27.5022C33.6518 27.5022 35.0106 27.1678 36.1882 26.4969C37.3865 25.8076 38.3061 24.8517 38.9449 23.6308C38.997 23.5344 39.0406 23.4359 39.0884 23.3375L39.0863 23.3354C39.2383 23.0481 39.3256 22.724 39.3256 22.3793C39.3278 21.2386 38.3893 20.3135 37.2325 20.3135Z" fill="#F98323"/>
<path d="M72.5321 20.3135C71.6811 20.3135 70.9489 20.816 70.6221 21.5341L70.6097 21.528C70.4495 21.9567 70.2372 22.3446 69.9646 22.6851C69.3259 23.4935 68.4666 23.8955 67.3889 23.8955C66.3112 23.8955 65.4415 23.4914 64.7819 22.6851C64.553 22.3896 64.3699 22.0593 64.2223 21.6982C63.9412 20.8715 63.1528 20.2765 62.2186 20.2765C61.0513 20.2765 60.1047 21.21 60.1047 22.361C60.1047 22.7281 60.2023 23.0728 60.371 23.3724L60.3669 23.3745C60.4187 23.4812 60.4688 23.5878 60.5229 23.6904C61.1825 24.8926 62.1 25.8281 63.2796 26.4969C64.478 27.1657 65.8555 27.5022 67.4138 27.5022C68.9514 27.5022 70.3101 27.1678 71.4877 26.4969C72.6861 25.8076 73.6057 24.8517 74.2444 23.6308C74.2965 23.5344 74.3402 23.4359 74.3879 23.3375L74.3859 23.3354C74.5378 23.0481 74.6251 22.724 74.6251 22.3793C74.6274 21.2386 73.6889 20.3135 72.5321 20.3135Z" fill="#F98323"/>
<defs>
<linearGradient id="paint0_linear_3004_31108" x1="0.294055" y1="3.52178" x2="25.997" y2="12.6504" gradientUnits="userSpaceOnUse">
<stop stop-color="#FF2828"/>
<stop offset="1" stop-color="#FF8704"/>
</linearGradient>
</defs>
</svg>
