<svg width="120" height="44" viewBox="0 0 120 44" fill="none" xmlns="http://www.w3.org/2000/svg">
<mask id="mask0_14738_28540" style="mask-type:luminance" maskUnits="userSpaceOnUse" x="1" y="0" width="119" height="44">
<path d="M119.8 0H1V44H119.8V0Z" fill="white"/>
</mask>
<g mask="url(#mask0_14738_28540)">
<path d="M33.9031 28.959L32.823 31.3827L31.6916 32.5571L30.9974 32.3073L27.6039 36.2797L27.4498 36.0047L25.7524 37.354L19.1259 43.9951V10.0445V0L30.612 5.09714L27.1667 6.19661L27.3209 6.6466L27.9892 6.44647L33.1831 9.91927V10.519L32.7718 10.969L37.0914 17.0656L36.6543 25.8104L36.6283 26.3353L36.14 26.6103L35.1369 30.9579L34.9057 31.3827" fill="#00081F"/>
<path d="M19.1259 0.782654L30.046 5.04735L23.3614 6.24628L19.1449 10.7105L19.1259 0.782654Z" fill="#00081F"/>
<path d="M19.1259 10.0444L19.1449 0.816406L20.6192 1.78205L19.1259 10.0444Z" fill="#D1B17E"/>
<path d="M21.7847 2.51514L20.6192 1.78217L19.1259 10.0445L21.7847 2.51514Z" fill="#FFEEC9"/>
<path d="M22.9161 2.88169L21.7847 2.5152L19.1259 10.0446L22.9161 2.88169Z" fill="#F7DFAD"/>
<path d="M30.2861 4.99104L22.9161 2.88171L19.1259 10.0446L22.5042 5.24274L30.2861 4.99104Z" fill="#BE9961"/>
<path d="M19.1259 10.6774L22.7442 5.91357L23.2244 6.28007L19.1259 10.6774Z" fill="#E8C798"/>
<path d="M22.8382 5.81364L23.3866 6.19671L30.2853 4.99103L25.5198 5.14512L22.8382 5.81364Z" fill="#BE9961"/>
<path d="M27.1667 6.19644L23.9015 6.92084L19.1259 11.9683V13.867L20.0191 12.1929L22.3589 9.84422L27.3209 6.64643L27.1667 6.19644Z" fill="#071232"/>
<path d="M27.7835 7.19591L33.1826 9.91915L27.9888 6.44635L22.3585 8.97007L27.7835 7.19591Z" fill="url(#paint0_linear_14738_28540)"/>
<path d="M21.9984 9.7695L24.9554 10.4189L27.9635 15.8661C27.9635 15.8661 27.2181 16.5904 27.0634 18.3897L26.9092 19.5144L24.8265 21.7133L24.7495 24.8613L22.6156 26.9099L19.4785 25.6858L19.3756 24.8865L20.2498 23.4875L20.8929 23.2874L21.8954 22.5126L22.0243 21.6132L21.6131 22.2382L20.8158 21.9982L19.1444 22.2634L19.1248 13.8678L20.133 12.0783L20.6181 11.244L21.9984 9.7695Z" fill="url(#paint1_linear_14738_28540)"/>
<path d="M24.8262 21.7128L24.4257 21.2757L23.5439 20.3137L22.5382 18.1399L23.3865 17.1153L24.7049 16.7655L25.9064 15.1165L25.0833 15.4167L23.2223 15.4412L23.0524 14.6917L22.204 15.941L22.3581 16.491L21.5868 17.69L22.5382 20.3137L22.0751 21.4629L23.0321 20.5237L24.8262 21.7128Z" fill="#031131"/>
<path d="M24.2984 20.2546L23.8094 19.1932L22.9611 17.8936L24.5296 17.3902L25.9067 15.1163L24.7052 16.7652L23.3869 17.1151L22.5384 18.1397L23.5441 20.3135L24.8265 21.7126L24.3237 20.7623L24.2984 20.2546Z" fill="#D1B379"/>
<path d="M22.0177 10.5602L22.5382 10.7848L25.9065 15.1165L24.5293 17.3903L27.9633 15.8661L26.4964 14.3485L21.9982 9.7695L20.6185 11.244L20.3746 11.6633L21.0203 11.1096L22.0177 10.5602Z" fill="#FCEFCA"/>
<path d="M26.5484 14.3485L27.9627 15.866L24.9855 10.476L22.1006 9.88177L26.5484 14.3485Z" fill="#B99B63"/>
<path d="M23.3439 13.3594L23.0527 14.6916L23.2226 15.4411L24.2226 15.4276L23.3439 13.3594Z" fill="#D2B686"/>
<path d="M25.7703 14.9423L25.9061 15.1167L25.0829 15.4168L24.222 15.4279L22.1973 10.6383L22.5378 10.785L25.7703 14.9423Z" fill="#7E5E2C"/>
<path d="M26.3434 11.4939L31.1518 14.292L33.6969 18.5395L36.345 24.9608L36.1909 25.3107L35.2907 24.1615L32.9768 19.5389L29.7887 16.2411L29.8404 14.9918L26.3434 11.4939Z" fill="url(#paint2_linear_14738_28540)"/>
<path d="M28.108 16.6407L32.4112 19.7887L35.0851 23.7508L35.3776 24.272L28.108 16.6407Z" fill="#92703B"/>
<path d="M27.9631 19.914L34.0305 24.9859L32.1797 25.4108L27.9631 19.914Z" fill="url(#paint3_linear_14738_28540)"/>
<path d="M30.8425 31.582L32.1798 25.4106L34.0307 24.9858L32.051 30.6329L30.8425 31.582Z" fill="url(#paint4_linear_14738_28540)"/>
<path d="M27.6037 36.2798L30.8429 31.5822L32.0514 30.6331L31.8714 31.3827L27.6037 36.2798Z" fill="#EDDBB9"/>
<path d="M25.6497 21.1136L26.3432 20.4567L30.7354 31.7382L27.6035 36.2798L28.6577 31.7572L25.6497 21.1136Z" fill="#102139"/>
<path d="M22.1145 21.4506L19.1259 20.6575V22.2812L20.7967 22.0166L21.5939 22.2566L22.1145 21.4506Z" fill="#EED4A3"/>
<path d="M19.1259 20.1222L19.2579 20.1817L21.9584 21.4021L19.1259 20.6385V20.1222Z" fill="#6E502A"/>
<path d="M21.2183 16.7322L19.2771 20.1817L21.977 21.4021L22.5385 20.3137L21.5872 17.6899L21.2183 16.7322Z" fill="url(#paint5_linear_14738_28540)"/>
<path d="M19.1259 24.9861L19.316 24.8363L19.7848 23.9149V23.4814L20.5958 22.5489H21.5876L21.7847 22.4489V22.1824L21.5876 22.3598L20.8245 22.0824H20.6192L19.1259 22.482V24.9861Z" fill="#03152E"/>
<path d="M19.4009 42.9263L25.8543 28.0345L23.7464 38.1288L19.3498 43.4757L19.4009 42.9263Z" fill="#010D25"/>
<path d="M25.8547 26.4355L19.1442 37.6789V43.1763L25.8547 26.4355Z" fill="#12253E"/>
<path d="M19.3503 43.4757C19.3762 43.4008 23.747 38.1288 23.747 38.1288L25.8549 28.0345L25.7519 37.3546L19.1248 43.9957L19.3503 43.4757Z" fill="url(#paint6_linear_14738_28540)"/>
<path d="M21.0798 27.1347L22.5194 27.9093L23.7278 26.9849V29.5337L23.3677 29.7332L21.9022 31.8824V29.0341L19.1259 35.4302V27.3348L21.0798 27.1347Z" fill="url(#paint7_linear_14738_28540)"/>
<path d="M19.1274 15.158L21.2177 16.732L19.2765 20.1815L19.1439 20.1219L19.1274 15.158Z" fill="#B69355"/>
<path d="M21.3786 17.1465L21.1789 16.804L21.8448 16.0827L19.8322 12.6141L19.1259 13.8671L19.1285 15.1581L21.2187 16.7322L21.2648 16.8071L21.3786 17.1465Z" fill="url(#paint8_linear_14738_28540)"/>
<path d="M22.1013 15.8328L21.8442 16.0827L19.8316 12.6141L22.1013 15.8328Z" fill="#6A4B28"/>
<path d="M19.2771 20.1816L21.4141 17.2393C21.4141 17.2393 21.3313 16.6879 21.2189 16.7322C21.1065 16.7764 19.2771 20.1816 19.2771 20.1816Z" fill="#C9A96E"/>
<path d="M22.805 16.4767C22.805 16.4767 22.7501 15.9199 23.3458 15.8659C23.9414 15.8119 24.1689 15.9372 24.1689 15.9372C24.1689 15.9372 24.1588 16.3589 23.7463 16.5301C23.3344 16.7021 22.86 16.4767 22.86 16.4767" fill="#F5EFCC"/>
<path d="M23.2901 15.9371C23.2793 15.9524 23.2269 16.0543 23.2269 16.0543L23.2585 16.182L23.3217 16.2329H23.4795L23.5902 16.182L23.6375 16.1052V16.0186L23.6059 15.9371H23.2901Z" fill="#00030D"/>
<path d="M24.7305 21.5305L24.5012 20.5421V20.1222L23.8189 18.2026L26.0824 16.8042V16.701L24.5296 17.3904L22.9612 17.8938L23.8095 19.1934L24.2985 20.2548L24.3237 20.7625L24.7305 21.5305Z" fill="url(#paint9_linear_14738_28540)"/>
<path d="M27.8994 15.9371L26.082 16.7007V16.8039L24.3146 18.9899L24.5009 20.1219L24.5217 20.6308L24.7302 21.5302L24.8262 21.7125L26.9089 19.5142L27.3201 16.732L27.8994 15.9371Z" fill="#EFD29F"/>
<path d="M21.0469 27.3348L22.6755 28.6061L23.544 27.7344L22.6022 29.2507L21.0469 27.3348Z" fill="#F4DFB7"/>
<path d="M20.6634 27.4534L19.1959 28.5056L19.1782 27.3208L21.0917 27.1538L22.5319 27.9286L23.7404 27.0041V29.5523L23.3803 29.7524L21.9147 31.9011V29.0526L21.2502 30.5843L20.6634 27.4534Z" fill="url(#paint10_linear_14738_28540)"/>
<path d="M20.6671 26.1501L24.7516 24.7541L21.8439 24.67L20.9072 24.7694L19.4063 24.9861L19.4783 25.686L20.6671 26.1501Z" fill="url(#paint11_linear_14738_28540)"/>
<path d="M23.7468 23.8037C23.7468 23.8037 24.3463 23.9836 24.424 22.2629C24.424 22.2629 24.5781 21.7066 23.9609 21.1394L23.0323 20.5237C23.0323 20.5237 23.6937 21.4212 23.2275 21.9043C23.2275 21.9043 23.1214 23.2377 23.7468 23.8037Z" fill="url(#paint12_linear_14738_28540)"/>
<path d="M19.3756 24.886L20.79 24.6693L21.977 24.5361L22.4994 24.2721L23.5436 23.6036L24.2214 23.0204L24.3143 22.8541L23.7458 22.9707L24.3143 22.2629C24.3143 22.2629 23.9302 22.0381 23.6364 22.2629C23.6364 22.2629 24.1999 21.555 23.7458 21.3217C23.7458 21.3217 23.6757 21.9712 23.2265 21.905L23.0856 21.6053L21.8942 22.5133L20.8917 23.2881L20.2486 23.4882L19.3744 24.8872L19.3756 24.886Z" fill="#FDF0CE"/>
<path d="M20.5598 23.9036C20.5598 23.9036 22.1719 23.2338 22.4891 22.7937C22.8062 22.3536 23.1372 23.2148 20.5598 23.9036Z" fill="url(#paint13_linear_14738_28540)"/>
<path d="M22.1168 23.7801C22.1168 23.7801 23.0744 23.2509 23.2405 22.9544C23.4067 22.6579 23.6758 23.1723 22.1168 23.7801Z" fill="url(#paint14_linear_14738_28540)"/>
<path d="M21.0469 27.3348L22.6022 28.6061L23.544 27.7344L22.6022 29.2507L21.0469 27.3348Z" fill="#F6E8C8"/>
<path d="M35.1194 25.4109L36.1477 26.3685L35.1194 31.0826V25.5023" fill="#CEB183"/>
<path d="M35.0684 25.3108L35.378 24.2721L27.6466 16.3744L27.3206 17.3235L35.0684 25.3108Z" fill="#081935"/>
<path d="M4.22608 28.9631L5.31891 31.3868L6.46354 32.5612L7.16599 32.3113L10.5998 36.2845L10.7559 36.0094L12.4728 37.3588L19.1789 43.9998V10.0492V0.00469971L7.55574 5.10183L11.0421 6.20131L10.886 6.65068L10.2095 6.45116L4.95442 9.92396V10.5237L5.37071 10.9737L1 17.0703L1.44219 25.8151L1.46809 26.34L1.9627 26.6144L2.97721 30.9626L3.21157 31.3868" fill="#00081F"/>
<path d="M19.1788 0.787506L8.12856 5.05159L14.8921 6.25114L19.1592 10.7154L19.1788 0.787506Z" fill="#00081F"/>
<path d="M19.1783 10.0494L19.1588 0.82074L17.6673 1.787L19.1783 10.0494Z" fill="#755528"/>
<path d="M16.4881 2.52004L17.6681 1.78705L19.1791 10.0494L16.4881 2.52004Z" fill="#FFEEC9"/>
<path d="M15.3429 2.88657L16.4875 2.52008L19.1786 10.0495L15.3429 2.88657Z" fill="#F7DFAD"/>
<path d="M7.88528 4.99565L15.3431 2.88632L19.1788 10.0492L15.7594 5.24734L7.88528 4.99565Z" fill="#BE9961"/>
<path d="M19.1783 10.6824L15.5164 5.91791L15.0306 6.2844L19.1783 10.6824Z" fill="#E8C798"/>
<path d="M15.4214 5.8185L14.8661 6.20156L7.88528 4.99588L12.7077 5.14997L15.4214 5.8185Z" fill="#BE9961"/>
<path d="M11.0421 6.20157L14.3465 6.92596L19.179 11.9734V13.8722L18.2744 12.198L15.9075 9.84933L10.8861 6.65093L11.0421 6.20157Z" fill="#071232"/>
<path d="M10.4176 7.20101L4.95403 9.92423L10.2091 6.45145L15.907 8.97454L10.4176 7.20101Z" fill="url(#paint15_linear_14738_28540)"/>
<path d="M16.2712 9.77435L13.2795 10.4238L10.2353 15.8709C10.2353 15.8709 10.9896 16.5952 11.1456 18.3946L11.3016 19.5192L13.409 21.7182L13.4873 24.8663L15.6465 26.9148L18.8207 25.6906L18.9249 24.8914L18.0406 23.4923L17.39 23.2922L16.3754 22.5175L16.2453 21.6181L16.6616 22.2431L17.4683 22.003L19.1593 22.2682L19.1789 13.8727L18.1587 12.0832L17.6679 11.2489L16.2712 9.77435Z" fill="url(#paint16_linear_14738_28540)"/>
<path d="M13.4098 21.7177L13.8154 21.2806L14.7074 20.3186L15.725 18.1448L14.8665 17.1202L13.5323 16.7703L12.317 15.1214L13.1496 15.421L15.0326 15.4462L15.2051 14.6966L16.0636 15.9458L15.9075 16.4959L16.6877 17.6948L15.725 20.3186L16.1937 21.4678L15.2253 20.5285L13.4098 21.7177Z" fill="#031131"/>
<path d="M13.9443 20.2597L14.4389 19.1977L15.2973 17.8987L13.7105 17.3947L12.317 15.1214L13.5323 16.7704L14.8665 17.1203L15.725 18.1448L14.7074 20.3187L13.4098 21.7177L13.9183 20.7668L13.9443 20.2597Z" fill="#D1B379"/>
<path d="M16.2516 10.565L15.7248 10.7897L12.3168 15.1213L13.7103 17.3945L10.2353 15.8709L11.7198 14.3533L16.2712 9.77435L17.6679 11.2483L17.9142 11.6676L17.2611 11.1144L16.2516 10.565Z" fill="#FCEFCA"/>
<path d="M11.6668 14.3533L10.2353 15.8708L13.2479 10.4808L16.1676 9.88666L11.6668 14.3533Z" fill="#B99B63"/>
<path d="M14.9096 13.3638L15.2047 14.6966L15.0322 15.4461L14.0209 15.4327L14.9096 13.3638Z" fill="#D2B686"/>
<path d="M12.454 14.9469L12.317 15.1214L13.1496 15.4209L14.0213 15.4325L16.0693 10.6429L15.725 10.7897L12.454 14.9469Z" fill="#7E5E2C"/>
<path d="M11.8743 11.4982L7.00959 14.2969L4.43353 18.5444L1.75388 24.9657L1.90991 25.3156L2.82081 24.1664L5.16251 19.5438L8.38796 16.246L8.33615 14.9961L11.8743 11.4982Z" fill="url(#paint17_linear_14738_28540)"/>
<path d="M10.0893 16.6455L5.73505 19.7936L3.02886 23.7551L2.73323 24.2768L10.0893 16.6455Z" fill="#92703B"/>
<path d="M10.235 19.9188L4.09554 24.9908L5.96852 25.4156L10.235 19.9188Z" fill="url(#paint18_linear_14738_28540)"/>
<path d="M7.32161 31.5872L5.96852 25.4157L4.09554 24.9909L6.09865 30.6375L7.32161 31.5872Z" fill="url(#paint19_linear_14738_28540)"/>
<path d="M10.6 36.2846L7.32218 31.5872L6.09923 30.6375L6.28115 31.3871L10.6 36.2846Z" fill="#EDDBB9"/>
<path d="M12.5776 21.118L11.8752 20.4611L7.43118 31.7426L10.6004 36.2847L9.53347 31.7622L12.5776 21.118Z" fill="#102139"/>
<path d="M16.1737 21.4365L19.1982 20.6434V22.2671L17.5072 22.0025L16.7005 22.2425L16.1737 21.4365Z" fill="#EED4A3"/>
<path d="M19.1983 20.1454L19.0644 20.2056L16.3317 21.4254L19.1983 20.6617V20.1454Z" fill="#6E502A"/>
<path d="M17.0614 16.7371L19.026 20.1866L16.2932 21.407L15.7253 20.3185L16.6881 17.6948L17.0614 16.7371Z" fill="url(#paint20_linear_14738_28540)"/>
<path d="M19.1791 24.991L18.9858 24.8412L18.512 23.9191V23.4863L17.6909 22.5532H16.6877L16.4881 22.4531V22.1867L16.6877 22.3647L17.4597 22.0872H17.6681L19.1791 22.4869V24.991Z" fill="#03152E"/>
<path d="M18.8991 42.9307L12.3693 28.0389L14.5025 38.1337L18.951 43.4807L18.8991 42.9307Z" fill="#010D25"/>
<path d="M12.3693 26.4401L19.1594 37.6835V43.1802L12.3693 26.4401Z" fill="#12253E"/>
<path d="M18.9511 43.4806C18.9252 43.4057 14.502 38.1336 14.502 38.1336L12.3688 28.0394L12.473 37.3595L19.1785 44.0006L18.9511 43.4806Z" fill="url(#paint21_linear_14738_28540)"/>
<path d="M17.2211 27.1584L15.7637 27.9325L14.5414 27.0087V29.5569L14.9053 29.757L16.3885 31.9056V29.0572L19.1983 35.4539L19.1787 27.3579L17.2211 27.1584Z" fill="url(#paint22_linear_14738_28540)"/>
<path d="M19.2146 15.1631L17.0997 16.7372L19.0642 20.1866L19.1981 20.127L19.2146 15.1631Z" fill="#B69355"/>
<path d="M16.8993 17.1515L17.1014 16.8089L16.4274 16.0876L18.464 12.6185L19.1791 13.8721L19.1759 15.1631L17.061 16.7371L17.0143 16.8113L16.8993 17.1515Z" fill="url(#paint23_linear_14738_28540)"/>
<path d="M16.1674 15.8377L16.4271 16.0876L18.4637 12.6185L16.1674 15.8377Z" fill="#6A4B28"/>
<path d="M19.0255 20.1865L16.8632 17.2441C16.8632 17.2441 16.9472 16.6928 17.0609 16.7371C17.1746 16.7812 19.0255 20.1865 19.0255 20.1865Z" fill="#C9A96E"/>
<path d="M15.4551 16.4819C15.4551 16.4819 15.5106 15.925 14.908 15.871C14.3047 15.8171 14.0748 15.9423 14.0748 15.9423C14.0748 15.9423 14.0856 16.364 14.5018 16.5353C14.9188 16.7072 15.3989 16.4819 15.3989 16.4819" fill="#F5EFCC"/>
<path d="M14.9644 15.9422C14.9752 15.9575 15.0282 16.0594 15.0282 16.0594L14.996 16.1871L14.9323 16.238H14.7724L14.6605 16.1871L14.6126 16.1103V16.0237L14.6448 15.9422H14.9644Z" fill="#00030D"/>
<path d="M13.5066 21.5353L13.7385 20.547V20.1271L14.429 18.2074L12.1391 16.809V16.7059L13.71 17.3947L15.2969 17.8987L14.4384 19.1977L13.9438 20.2597L13.9179 20.7667L13.5066 21.5353Z" fill="url(#paint24_linear_14738_28540)"/>
<path d="M10.3007 15.9422L12.1396 16.7058V16.809L13.9273 18.995L13.739 20.127L13.7182 20.6359L13.5072 21.5353L13.4099 21.7176L11.3026 19.5187L10.8862 16.7372L10.3007 15.9422Z" fill="#EFD29F"/>
<path d="M17.234 27.3396L15.5866 28.611L14.7073 27.7392L15.6598 29.255L17.234 27.3396Z" fill="#F4DFB7"/>
<path d="M17.6347 27.4206L19.1956 28.5053L19.1779 27.3205L17.2007 27.121L15.744 27.8951L14.521 26.9706V29.5195L14.8855 29.7196L16.3681 31.8682V29.0197L17.0409 30.5514L17.6347 27.4206Z" fill="url(#paint25_linear_14738_28540)"/>
<path d="M17.6178 26.1541L13.4846 24.7588L16.4271 24.674L17.3753 24.7741L18.8938 24.9908L18.8206 25.6906L17.6178 26.1541Z" fill="url(#paint26_linear_14738_28540)"/>
<path d="M14.5024 23.8078C14.5024 23.8078 13.8953 23.9877 13.8169 22.267C13.8169 22.267 13.6609 21.7108 14.285 21.1435L15.225 20.5278C15.225 20.5278 14.556 21.4253 15.028 21.9085C15.028 21.9085 15.1353 23.2419 14.5024 23.8078Z" fill="url(#paint27_linear_14738_28540)"/>
<path d="M18.9247 24.8908L17.4939 24.6741L16.2924 24.5409L15.7637 24.2769L14.7068 23.6084L14.0209 23.0252L13.9267 22.8588L14.5016 22.9755L13.9267 22.2676C13.9267 22.2676 14.3152 22.043 14.6121 22.2676C14.6121 22.2676 14.0417 21.5599 14.5016 21.3266C14.5016 21.3266 14.5723 21.9761 15.0272 21.9097L15.1693 21.6102L16.3745 22.5182L17.389 23.2928L18.0397 23.493L18.9241 24.8921L18.9247 24.8908Z" fill="#FDF0CE"/>
<path d="M17.7265 23.908C17.7265 23.908 16.0954 23.2382 15.7745 22.7981C15.4536 22.358 15.1188 23.2192 17.7265 23.908Z" fill="url(#paint28_linear_14738_28540)"/>
<path d="M16.1523 23.7852C16.1523 23.7852 15.1833 23.256 15.0152 22.9595C14.8472 22.6631 14.5743 23.1774 16.1523 23.7852Z" fill="url(#paint29_linear_14738_28540)"/>
<path d="M17.234 27.3396L15.6598 28.611L14.7073 27.7392L15.6598 29.255L17.234 27.3396Z" fill="#F6E8C8"/>
<path d="M2.99412 25.4155L1.95372 26.3732L2.99412 31.0873V25.507" fill="#CEB183"/>
<path d="M3.04656 25.3157L2.73323 24.277L10.5561 16.3793L10.8859 17.3284L3.04656 25.3157Z" fill="#081935"/>
<path d="M3.22604 25.9516L4.25508 28.7497L3.22604 31.2703V25.9516Z" fill="#10223A"/>
<path d="M23.8812 17.1006C24.0846 17.1006 24.0846 16.7936 23.8812 16.7936C23.6778 16.7936 23.6778 17.1006 23.8812 17.1006Z" fill="#00081F"/>
<path d="M34.8907 25.9467L33.8737 28.7448L34.8907 31.2661V25.9467Z" fill="#10223A"/>
<path d="M26.3434 8.9701C26.4463 8.94493 32.2313 10.3195 32.2313 10.3195L37.0911 17.0655L36.6539 25.8104L36.1909 25.3106L36.345 24.9608L35.5996 15.9157L31.1 11.193L26.3434 8.9701Z" fill="url(#paint30_linear_14738_28540)"/>
<path d="M11.6642 8.91202C11.5625 8.88686 5.84382 10.2613 5.84382 10.2613L1.03976 17.0074L1.47185 25.7522L1.92919 25.2526L1.77695 24.9026L2.51414 15.8575L6.96255 11.1349L11.6649 8.91141L11.6642 8.91202Z" fill="url(#paint31_linear_14738_28540)"/>
<path d="M59.7125 13.5421C59.734 13.5271 59.7574 13.5126 59.7826 13.4988C59.7644 13.5077 59.7485 13.5164 59.7359 13.524C59.7359 13.524 59.7353 13.524 59.7347 13.524C59.7258 13.5303 59.7175 13.5366 59.7125 13.5421Z" fill="white"/>
<path d="M62.9038 20.5047V20.5065C62.9544 20.4851 63.0023 20.4641 63.0465 20.4427C63.008 20.4605 62.9594 20.482 62.9038 20.5047Z" fill="white"/>
<path d="M63.1256 20.4002C63.101 20.4152 63.0744 20.4304 63.0466 20.4441C63.0669 20.4348 63.0851 20.4259 63.0997 20.4178C63.0997 20.4178 63.1003 20.4178 63.101 20.4178C63.111 20.4115 63.1192 20.4059 63.1256 20.4002Z" fill="white"/>
<path d="M61.475 16.1201C61.5433 16.0913 61.5951 16.068 61.6311 16.0483L61.6286 16.049C61.6052 16.0606 61.5767 16.0735 61.5445 16.0876C61.5218 16.0981 61.4984 16.1084 61.475 16.1189V16.1201Z" fill="white"/>
<path d="M66.455 14.3483C66.4986 14.3348 66.5245 14.3274 66.5238 14.3274C66.6401 14.2918 66.7456 14.2587 66.8132 14.1991H66.455V14.3483Z" fill="white"/>
<path d="M40.7496 23.7208H44.428V19.1197H48.6527V16.2172H44.428V14.359H49.8549V11.3325H40.7496V23.7208Z" fill="white"/>
<path d="M60.5222 21.537C60.4218 21.5825 60.2676 21.6205 60.1287 21.685C60.1122 21.7329 60.1179 21.8637 60.1179 21.8637C60.0883 21.8765 59.9758 21.7845 59.8514 21.841C59.7452 21.8895 59.7376 21.8888 59.7541 21.8808C59.6163 21.9429 59.3946 22.049 59.3833 21.9766C59.3833 21.9766 59.3214 22.0853 59.195 21.9858C59.1097 22.1816 59.0542 22.2848 58.8602 22.1921C58.8716 22.3695 58.725 22.4174 58.5671 22.4407C58.5109 22.5187 58.4079 22.51 58.2538 22.5844C58.6303 22.4039 58.5109 22.4597 58.2115 22.6009C58.2746 22.5696 58.1571 22.6243 58.0409 22.6783C57.5754 22.8943 57.1256 23.1025 56.6966 23.2953C56.6972 23.2965 57.1464 22.9638 57.9329 22.4597C58.0643 22.3757 58.2045 22.2878 58.1312 22.1675C58.5052 22.1012 58.756 22.1761 58.8305 21.693C58.8305 21.693 59.1722 21.7065 59.3662 21.5862C59.5386 21.499 59.7301 21.3928 59.9291 21.2853C60.0946 21.1958 60.2651 21.1061 60.2626 20.855C60.6182 20.9237 60.7964 20.8335 61.0099 20.6137C61.0478 20.623 61.0977 20.6137 61.1539 20.5947C61.3258 20.0305 61.4426 19.3859 61.5001 18.6493C61.471 18.6616 61.4413 18.6745 61.4116 18.6868C61.3061 18.7316 61.2007 18.777 61.0952 18.823C60.9896 18.8685 60.8841 18.9145 60.785 18.9471C60.6725 19.0078 60.7288 18.9789 60.4976 18.9483C60.3863 19.1797 60.425 18.9667 60.344 19.0575C60.3346 19.0538 60.1546 19.1472 60.0958 19.2368C60.0958 19.2368 60.013 19.2172 60.013 19.1109C59.8545 19.5002 59.8924 19.3559 59.6562 19.1521C59.8368 19.3817 59.8071 19.3946 59.4856 19.3504C59.5248 19.5229 59.4066 19.5763 59.291 19.6291C59.1779 19.6819 59.0674 19.7335 58.9423 19.7918C58.8337 19.8428 58.7131 19.8998 58.5702 19.9686C58.5507 19.9777 58.5292 19.9882 58.5052 19.9998C58.5279 19.9888 58.5488 19.979 58.5702 19.9686C58.8646 19.8274 58.7111 19.8992 58.4547 20.0208C58.4174 20.0373 58.2626 20.1104 58.1085 20.184C57.9544 20.2577 57.8008 20.3314 57.8343 20.3166C57.6644 20.3971 57.5425 20.456 57.5248 20.362C57.5116 20.4111 57.516 20.4339 57.5419 20.4363C57.6183 20.4216 57.6985 20.3841 57.7863 20.343C57.6562 20.4032 57.5779 20.44 57.5419 20.4363C57.4831 20.448 57.4262 20.4462 57.3681 20.4228C57.3404 20.4873 57.3113 20.5487 57.2804 20.604C57.0617 20.9932 56.6796 21.2589 56.0422 21.2589C55.9967 21.2589 55.9525 21.2571 55.9096 21.2546C55.8944 21.262 55.8792 21.2694 55.8641 21.2768C55.2873 21.5616 54.7308 21.8373 54.2002 22.0951C54.2015 22.0963 54.6576 21.7329 55.4724 21.17C55.1617 21.0613 54.9468 20.8593 54.8035 20.604C54.643 20.3185 54.5223 19.9053 54.4402 19.397C54.3789 19.4523 54.2969 19.5069 54.1983 19.5646C54.42 19.4443 54.4149 19.4486 53.9759 19.6899C54.0562 19.645 54.1307 19.6045 54.1983 19.5646C54.125 19.6045 54.0259 19.658 53.9102 19.7211C54.0088 19.6659 53.8269 19.7636 53.6462 19.8618C52.9254 20.2534 52.2343 20.639 51.5793 21.0054C51.5812 21.0079 52.2697 20.4394 53.4965 19.588C53.7011 19.4461 53.921 19.2982 53.818 19.1503C54.0549 19.0815 54.2349 19.014 54.3764 18.9121C54.3329 18.4927 54.3113 18.0268 54.3113 17.5247C54.3113 16.144 54.475 15.0292 54.8028 14.4454C55.0214 14.0562 55.4036 13.7904 56.041 13.7904C56.6783 13.7904 57.0605 14.0556 57.2791 14.4454C57.3119 14.5037 57.3423 14.5688 57.372 14.6369C57.3909 14.6271 57.4105 14.6167 57.43 14.6062C57.5968 14.519 57.768 14.4313 57.8621 14.1796C58.1192 14.2551 58.298 14.1679 58.4812 14.0802C58.6233 14.012 58.768 13.9445 58.6271 14.0095C58.7137 13.969 58.7888 13.9346 58.8602 13.9021C58.931 13.8696 58.9973 13.8395 59.0674 13.8242C59.135 13.7774 59.2064 13.7456 59.317 13.8008C59.3668 13.6737 59.4566 13.6338 59.6075 13.6473C59.6296 13.6087 59.6599 13.5773 59.6966 13.5497C59.6612 13.5454 59.6801 13.5375 59.7332 13.5221C59.7692 13.4981 59.8368 13.4687 59.9366 13.4257C59.8804 13.4496 59.828 13.4723 59.7812 13.4969C59.8292 13.4736 59.8937 13.4466 59.9676 13.4153C59.9682 13.4153 60.123 13.3514 60.279 13.2888C60.3567 13.2575 60.435 13.2262 60.514 13.1955C60.5386 13.1857 60.5626 13.1765 60.5866 13.1672C60.3637 12.802 60.1046 12.4865 59.8109 12.2151C58.6821 11.1709 57.2614 10.9407 56.0416 10.9407C54.8217 10.9407 53.4011 11.1709 52.2722 12.2151C51.1611 13.2415 50.5421 14.8874 50.5421 17.5247C50.5421 20.1619 51.1611 21.8072 52.2722 22.8342C53.4011 23.8784 54.8217 24.1086 56.0416 24.1086C57.2614 24.1086 58.6821 23.8784 59.8109 22.8342C60.2329 22.4444 60.5841 21.9643 60.857 21.375C60.8387 21.386 60.8197 21.3965 60.8014 21.4087C60.615 21.5352 60.6221 21.4898 60.5209 21.5352L60.5222 21.537Z" fill="white"/>
<path d="M71.4268 17.5623V17.5267C72.7382 17.1902 73.3933 16.3762 73.3933 14.6242C73.3933 12.2527 71.8633 11.3325 68.2575 11.3325H62.9033V12.3915C63.0379 12.354 63.24 12.2975 63.247 12.381C63.247 12.381 63.312 12.2724 63.4263 12.4215C63.518 12.2196 63.5793 12.1164 63.7567 12.2798C63.7586 12.0722 63.9026 12.0605 64.0549 12.0827C64.1156 12.0108 64.2129 12.052 64.3657 12.017C63.9917 12.1048 64.1099 12.0778 64.408 12.0114C64.3449 12.0268 64.4617 12.0023 64.5773 11.979C65.0409 11.8868 65.4927 11.8156 65.9229 11.7684C65.9229 11.769 65.4452 11.9544 64.655 12.2637C64.5236 12.3153 64.3834 12.3712 64.4408 12.532C64.0884 12.4873 63.8521 12.3282 63.7548 12.8611C63.7548 12.8611 63.4358 12.7482 63.2482 12.8353C63.1402 12.8716 63.024 12.9157 62.904 12.9636V14.7015C63.0107 14.7064 63.1282 14.6887 63.252 14.658C63.3885 14.6242 63.5325 14.5763 63.4642 14.6359C63.8831 14.4603 63.9115 14.5241 63.9109 14.5235C64.1434 14.4137 64.2033 14.3976 64.3897 14.2147C64.5268 14.1767 64.7396 14.1644 65.1168 14.2049C65.1489 14.1564 65.1913 14.0606 65.1913 14.0606C65.1913 14.0606 65.5457 13.987 65.8691 13.9329C65.8489 13.8679 66.1938 13.8188 66.1938 13.8194C66.1938 13.8188 66.6518 13.7586 66.6474 13.6247C67.0807 13.6579 67.341 13.72 67.3845 13.2724C67.7181 13.4222 68.1003 13.4885 68.3372 13.095C68.3536 13.3258 68.569 13.2853 68.7869 13.2466C68.9998 13.2111 69.2152 13.1754 69.43 13.1422C70.5039 12.9765 71.5677 12.866 72.598 12.812C72.5999 12.8163 71.4072 13.0306 69.5544 13.4885C69.2898 13.5542 69.0125 13.626 68.9133 13.6524C68.7434 13.6966 68.5961 13.7359 68.4996 13.7617C68.5488 13.7494 68.5986 13.7365 68.6511 13.7224C68.3151 13.812 68.3226 13.8089 68.4996 13.7617C68.2809 13.8163 68.0983 13.8495 67.9581 13.7942C67.7269 13.9735 67.5601 14.0214 67.3309 13.8801C67.2531 14.1097 67.1161 14.1503 66.8779 14.1103C66.8647 14.1472 66.8426 14.1761 66.8141 14.2006H68.3132C69.351 14.2006 69.6606 14.6254 69.6606 15.5278C69.6606 15.5561 69.6606 15.5843 69.6593 15.612C69.9878 15.5732 70.3131 15.5408 70.6346 15.5161C70.6353 15.518 70.2733 15.6095 69.6498 15.7838C69.5797 16.5837 69.1571 16.8907 68.3132 16.8907H66.4554V16.72C66.3985 16.7575 66.3207 16.7562 66.2178 16.7317C66.1932 16.8526 66.082 16.8907 65.9544 16.9349C65.9557 16.9336 65.6935 17.0239 65.4263 17.119C65.1812 17.2056 64.9304 17.2965 64.7428 17.5696C64.4251 17.4831 64.1661 17.5801 63.9058 17.6795C63.703 17.7569 63.499 17.8367 63.6986 17.7612C63.5761 17.8078 63.4699 17.8489 63.3701 17.8876C63.2703 17.9263 63.1775 17.9631 63.0827 17.984C63.0258 18.0159 62.969 18.0423 62.9046 18.0491V19.8742C63.0158 19.8134 63.1093 19.725 63.1415 19.5408C63.4422 19.666 63.6153 19.5998 63.8193 19.4438C63.8938 19.4562 63.9753 19.4463 64.0606 19.4254C64.1459 19.4046 64.2349 19.3726 64.1951 19.4162C64.4523 19.2965 64.4743 19.3456 64.4743 19.345C64.6159 19.2683 64.6531 19.2578 64.7605 19.1228C64.8451 19.0976 64.9803 19.0939 65.2242 19.1344C65.2418 19.0983 65.2621 19.0251 65.2621 19.0251C65.2621 19.0251 65.4831 18.9766 65.6846 18.9417C65.6676 18.8914 65.883 18.86 65.883 18.86C65.883 18.86 66.1698 18.8207 66.1572 18.717C66.4345 18.7483 66.6537 18.6599 66.6676 18.7023C66.8344 18.6525 66.9487 18.563 67.1881 18.3223C67.2159 18.5003 67.3492 18.4702 67.4831 18.4401C67.6145 18.4125 67.7478 18.3843 67.8804 18.3579C68.5444 18.2284 68.3245 18.3444 68.96 18.2602C68.9619 18.2633 69.1192 18.2658 67.9853 18.6255C67.8236 18.6777 67.6543 18.7336 67.5936 18.7538C67.49 18.7882 67.401 18.8177 67.3416 18.8373C67.3713 18.8281 67.4016 18.8183 67.4332 18.8079C67.2273 18.8766 67.2324 18.8741 67.3416 18.8373C67.2071 18.8797 67.094 18.9042 67.0005 18.8607C66.8672 18.9982 66.7649 19.0331 66.6095 18.9221C66.5772 19.0989 66.4933 19.1283 66.3385 19.0946C66.3195 19.1897 66.2311 19.221 66.1294 19.2578C66.1307 19.2572 65.9222 19.3315 65.7093 19.4094C65.5141 19.4807 65.3145 19.555 65.1648 19.7716C64.9114 19.7066 64.7055 19.7858 64.4977 19.8662C64.336 19.9288 64.173 19.9933 64.3322 19.9319C64.2343 19.97 64.1497 20.0025 64.07 20.0338C63.9905 20.0651 63.9159 20.0946 63.8407 20.1111C63.763 20.1553 63.6835 20.1873 63.5755 20.1462C63.5046 20.2591 63.4061 20.2996 63.2489 20.3002C63.2204 20.3352 63.1844 20.3647 63.1428 20.3917C63.1794 20.3923 63.1585 20.4009 63.101 20.4187C63.0637 20.4402 62.9987 20.4684 62.9046 20.5084V23.7227H66.4559V19.5814H67.7674C69.4793 19.5814 69.6429 19.9884 69.6612 21.0682C69.6795 21.8822 69.6978 22.6784 69.7704 23.7227H73.5398V23.5987C73.3939 22.59 73.3578 22.1652 73.3212 20.1652C73.3029 18.838 72.9934 17.8293 71.4274 17.5635L71.4268 17.5623Z" fill="white"/>
<path d="M74.3489 14.394H77.5908V23.7208H81.2692V14.394H84.511V11.3325H74.3489V14.394Z" fill="white"/>
<path d="M92.9243 18.0221C92.9243 18.9601 92.8883 19.5439 92.8154 19.9509C92.6696 20.7471 92.2331 21.1898 91.3034 21.1898C90.3745 21.1898 89.938 20.7471 89.792 19.9509C89.7194 19.5439 89.6828 18.9601 89.6828 18.0221V11.3325H86.0044V18.7299C86.0044 22.5347 87.9709 24.11 91.3034 24.11C94.6361 24.11 96.6026 22.5347 96.6026 18.7299V11.3325H92.9243V18.0221Z" fill="white"/>
<path d="M104.97 17.7746H104.952L101.638 11.3325H97.9946V23.7208H101.582V17.2965H101.601L104.916 23.7208H108.557V11.3325H104.97V17.7746Z" fill="white"/>
<path d="M119.8 14.2706V11.3325H110.166V23.7208H119.8V20.7477H113.663V18.7299H117.724V15.9342H113.663V14.2706H119.8Z" fill="white"/>
<path d="M84.0782 34.4737C84.0081 34.4786 83.9216 34.4565 83.9967 34.3147C85.065 32.241 86.576 29.4386 88.7054 26.1966C88.4255 26.2292 88.2701 26.0334 88.2083 25.7497C88.1665 25.5606 88.1091 25.1389 88.1002 25.0161C88.0857 24.811 88.1924 24.7221 88.5095 24.6183C88.8127 24.5158 89.3839 24.4096 89.9713 24.3291C90.0724 24.1579 90.188 23.9995 90.3042 23.8405C90.4975 23.5809 90.62 23.5176 90.8234 23.6005C90.9688 23.6594 91.2914 23.8301 91.4984 23.9669C91.5722 24.0167 91.6361 24.1088 91.6577 24.2169C92.5343 24.2549 93.284 24.4655 93.8132 24.9651C94.1147 25.2334 94.319 25.7411 94.3451 26.1095C94.4891 28.1574 91.7333 30.5215 89.7603 30.9678C89.1627 31.1035 88.8842 30.9574 88.7325 30.8027C88.5955 30.6608 88.4704 30.4908 88.3737 30.3189C87.5412 31.7321 86.7168 33.0489 86.1382 33.8555C85.9449 34.1152 85.7256 34.2122 85.3883 34.2343C84.7301 34.3055 84.3454 34.4547 84.0782 34.4719V34.4737ZM91.0511 25.6301C90.4988 26.6135 89.7218 28.0089 88.9025 29.4079C90.6965 29.0279 93.239 27.2409 93.473 25.7577C93.1634 25.5588 92.6909 25.4667 92.0024 25.5121C91.7207 25.5305 91.3985 25.5655 91.0511 25.6301Z" fill="#BE9961"/>
<path d="M93.6351 33.2774C93.2886 32.7654 93.0159 32.3031 93.357 31.7322C94.7178 29.392 97.1928 25.4557 98.3394 23.692C98.6319 23.2335 98.712 23.1733 98.8587 23.2463C99.1233 23.3931 99.4626 23.6042 99.6561 23.7424C100.028 24.0058 99.9342 24.2863 99.5976 24.9124C98.7084 26.5214 96.8427 29.7045 95.2461 32.2932C96.6366 31.9949 98.127 31.7045 99.5067 31.4615C99.6876 31.4221 99.747 31.459 99.7515 31.5277C99.756 31.5965 99.6984 31.7782 99.6552 31.9728C99.6228 32.1121 99.6255 32.1533 99.2835 32.2994C98.0226 32.8359 95.6349 33.6113 94.6287 33.7605C94.0977 33.8366 93.8718 33.6316 93.6351 33.2774Z" fill="#BE9961"/>
<path d="M106.093 33.1771C106.227 31.8788 106.51 30.2826 106.868 28.7497C105.388 29.3833 104.05 30.0205 103.005 30.6246C102.195 31.7486 101.895 32.3029 101.782 32.9003C101.749 33.0396 101.728 33.1372 101.615 33.1445C101.489 33.1532 101.084 33.0015 100.653 32.7008C100.031 32.2895 100.011 31.7971 100.596 30.88C101.946 28.8013 105.532 24.8049 106.862 23.6464C107.674 22.9478 107.942 22.7514 108.28 22.7293C108.518 22.7134 108.985 22.916 109.457 23.008C110.045 23.1338 110.183 23.4948 109.937 24.005C109.444 25.0252 108.975 26.1812 108.551 27.3894C108.609 27.4127 108.669 27.4502 108.729 27.5011C108.923 27.6662 108.972 27.759 108.977 27.8277C108.981 27.8823 108.955 27.9112 108.653 28.0278L108.282 28.1757C107.826 29.5226 107.432 30.9481 107.08 32.357C106.98 32.7474 106.849 32.88 106.634 33.0451C106.566 33.0905 106.391 33.1986 106.283 33.2741C106.203 33.3343 106.076 33.3429 106.093 33.1771ZM107.108 27.746C107.398 26.6428 107.693 25.622 107.989 24.8067C107.012 25.7631 105.738 27.1371 104.505 28.6595C105.344 28.3434 106.225 28.0376 107.108 27.746Z" fill="#BE9961"/>
<path d="M109.722 32.0034C110.276 31.0476 111.108 29.6344 111.991 28.1353C112.158 26.2997 112.348 24.1744 112.503 22.7649C112.548 22.4052 112.612 22.3051 112.723 22.2978C112.92 22.2849 113.65 22.4285 113.868 22.5095C114.232 22.6636 114.378 22.9423 114.295 23.9762C114.222 24.7355 114.15 25.9197 114.07 26.9953C115.893 25.0222 117.515 23.3924 118.93 22.0363C119.088 21.8748 119.173 21.8828 119.241 22.043C119.294 22.2038 119.314 22.2714 119.319 22.353C119.324 22.4212 119.317 22.5176 119.225 22.6201C117.387 24.5802 115.896 26.2568 114.109 28.3507C113.478 29.4213 112.873 30.449 112.391 31.2219C112.125 31.651 111.956 31.8677 111.497 31.9672C111.024 32.0672 110.506 32.1293 110.133 32.236C109.69 32.3613 109.582 32.2312 109.721 32.0028L109.722 32.0034Z" fill="#BE9961"/>
<path d="M60.6748 16.4491C60.5396 16.5056 60.4045 16.5634 60.2693 16.6211C60.1341 16.6787 59.9989 16.7371 59.8738 16.7806C59.7285 16.855 59.8012 16.8194 59.52 16.8107C59.3589 17.0649 59.4284 16.8371 59.3198 16.9415C59.3084 16.9384 59.0779 17.0551 58.9958 17.1558C58.9958 17.1558 58.896 17.1441 58.9073 17.0324C58.6711 17.4584 58.733 17.3025 58.4651 17.114C58.6622 17.3357 58.6243 17.3522 58.2358 17.3418C58.2655 17.5186 58.1151 17.5886 57.9686 17.6573C57.9023 17.6886 57.8372 17.72 57.7709 17.7519C57.7602 18.5671 57.6894 19.2792 57.5587 19.8323C57.7545 19.7267 57.9667 19.6052 58.1871 19.4812C58.3931 19.3657 58.6054 19.2504 58.594 18.9311C59.0444 19.0152 59.2668 18.8999 59.5296 18.6187C59.7291 18.6653 60.172 18.3314 60.4164 18.2178C60.8454 18.0177 61.1233 17.9845 61.5389 17.8298C61.5409 17.7303 61.5421 17.6297 61.5421 17.5265C61.5421 17.0226 61.5194 16.5547 61.4752 16.1201C61.4177 16.1447 61.3507 16.1723 61.2704 16.2055C61.3425 16.1754 61.4107 16.1471 61.4752 16.1189C61.4752 16.1189 61.4752 16.1183 61.4752 16.1176C61.4012 16.149 61.3141 16.1846 61.2174 16.2245C61.2162 16.2245 60.9452 16.3356 60.6748 16.4491Z" fill="white"/>
<path d="M58.3677 16.5646C58.6072 16.5916 59.1864 16.1944 59.4991 16.052C60.1226 15.7665 60.4852 15.7266 61.1523 15.4534C61.2255 15.4233 61.2988 15.3938 61.3695 15.3595C61.2697 14.8039 61.1276 14.3122 60.9463 13.8764C60.6614 13.9764 60.453 13.977 60.1264 14.1145C59.9766 14.1778 59.8257 14.2422 59.8244 14.5431C59.5237 14.3705 59.3695 14.4356 59.2072 14.6044C59.1352 14.5854 59.0607 14.5922 58.9843 14.6124C58.9085 14.632 58.8307 14.6652 58.8598 14.6167C58.6425 14.745 58.6122 14.6885 58.6122 14.6885C58.4959 14.7733 58.4631 14.7849 58.3936 14.939C58.3203 14.9666 58.1952 14.9678 57.9577 14.9206C57.9502 14.9629 57.9495 15.047 57.9495 15.047C57.9495 15.047 57.7556 15.1035 57.5775 15.1489C57.5869 15.1667 57.5743 15.1833 57.5534 15.1974C57.6678 15.6719 57.7373 16.2674 57.7619 16.9464C57.983 16.8788 58.1643 16.7518 58.3677 16.5646Z" fill="white"/>
<path d="M63.0485 17.1329C63.1425 17.1495 63.2449 17.1378 63.3523 17.112C63.4597 17.0862 63.5721 17.047 63.5216 17.1016C63.8444 16.9525 63.8728 17.015 63.8728 17.015C64.0503 16.9193 64.0977 16.9063 64.2323 16.7363C64.339 16.7056 64.5096 16.7031 64.8159 16.759C64.8381 16.713 64.8633 16.621 64.8633 16.621C64.8633 16.621 65.1413 16.5632 65.3959 16.522C65.3744 16.4576 65.646 16.422 65.646 16.422C65.646 16.422 66.0067 16.3778 65.9921 16.2458C66.2518 16.2802 66.3984 16.2305 66.4552 16.0218V14.3483C66.339 14.3839 66.0919 14.46 65.8412 14.5398C65.5247 14.6405 65.2007 14.7473 64.936 15.0383C64.5474 14.9677 64.2139 15.0832 63.8785 15.2028C63.6177 15.2961 63.3542 15.3926 63.6113 15.3004C63.4534 15.3569 63.317 15.4073 63.1887 15.4539C63.0902 15.4902 62.9967 15.5251 62.9038 15.5521V17.2318C62.9518 17.2035 62.9998 17.1697 63.0491 17.1317L63.0485 17.1329Z" fill="white"/>
</g>
<defs>
<linearGradient id="paint0_linear_14738_28540" x1="24.6061" y1="6.60473" x2="30.7681" y2="12.4601" gradientUnits="userSpaceOnUse">
<stop stop-color="#FEE8C1"/>
<stop offset="0.6" stop-color="#9E7A45"/>
</linearGradient>
<linearGradient id="paint1_linear_14738_28540" x1="17.8507" y1="14.1342" x2="26.8326" y2="22.6692" gradientUnits="userSpaceOnUse">
<stop stop-color="#FEE8C1"/>
<stop offset="0.6" stop-color="#9E7A45"/>
</linearGradient>
<linearGradient id="paint2_linear_14738_28540" x1="28.5782" y1="15.2306" x2="35.7324" y2="22.029" gradientUnits="userSpaceOnUse">
<stop stop-color="#FEE8C1"/>
<stop offset="0.6" stop-color="#9E7A45"/>
</linearGradient>
<linearGradient id="paint3_linear_14738_28540" x1="27.6194" y1="20.2749" x2="33.3405" y2="25.712" gradientUnits="userSpaceOnUse">
<stop stop-color="#FEE8C1"/>
<stop offset="0.6" stop-color="#9E7A45"/>
</linearGradient>
<linearGradient id="paint4_linear_14738_28540" x1="30.8242" y1="26.8366" x2="33.3643" y2="29.2511" gradientUnits="userSpaceOnUse">
<stop stop-color="#FEE8C1"/>
<stop offset="0.6" stop-color="#9E7A45"/>
</linearGradient>
<linearGradient id="paint5_linear_14738_28540" x1="20.1431" y1="20.3272" x2="23.0853" y2="17.629" gradientUnits="userSpaceOnUse">
<stop stop-color="#FEE8C1"/>
<stop offset="0.51" stop-color="#9E7A45"/>
</linearGradient>
<linearGradient id="paint6_linear_14738_28540" x1="22.4892" y1="35.9691" x2="22.5781" y2="42.5083" gradientUnits="userSpaceOnUse">
<stop stop-color="#FEE8C1"/>
<stop offset="0.47" stop-color="#9E7A45"/>
</linearGradient>
<linearGradient id="paint7_linear_14738_28540" x1="19.1259" y1="31.2078" x2="23.7278" y2="31.2078" gradientUnits="userSpaceOnUse">
<stop stop-color="#FEE8C1"/>
<stop offset="0.6" stop-color="#9E7A45"/>
</linearGradient>
<linearGradient id="paint8_linear_14738_28540" x1="21.071" y1="17.2766" x2="19.7171" y2="13.2129" gradientUnits="userSpaceOnUse">
<stop stop-color="#FEE8C1"/>
<stop offset="0.51" stop-color="#9E7A45"/>
</linearGradient>
<linearGradient id="paint9_linear_14738_28540" x1="23.4602" y1="17.3689" x2="26.2057" y2="19.9783" gradientUnits="userSpaceOnUse">
<stop stop-color="#FEE8C1"/>
<stop offset="0.6" stop-color="#9E7A45"/>
</linearGradient>
<linearGradient id="paint10_linear_14738_28540" x1="20.2964" y1="30.5603" x2="22.3716" y2="26.5484" gradientUnits="userSpaceOnUse">
<stop stop-color="#FEE8C1"/>
<stop offset="0.51" stop-color="#9E7A45"/>
</linearGradient>
<linearGradient id="paint11_linear_14738_28540" x1="21.3417" y1="26.2937" x2="23.6303" y2="21.6143" gradientUnits="userSpaceOnUse">
<stop stop-color="#FEE8C1"/>
<stop offset="0.51" stop-color="#9E7A45"/>
</linearGradient>
<linearGradient id="paint12_linear_14738_28540" x1="22.9136" y1="22.1499" x2="25.5551" y2="22.2422" gradientUnits="userSpaceOnUse">
<stop stop-color="#FEE8C1"/>
<stop offset="0.51" stop-color="#9E7A45"/>
</linearGradient>
<linearGradient id="paint13_linear_14738_28540" x1="21.1815" y1="24.2075" x2="22.0732" y2="22.3846" gradientUnits="userSpaceOnUse">
<stop stop-color="#FEE8C1"/>
<stop offset="0.51" stop-color="#9E7A45"/>
</linearGradient>
<linearGradient id="paint14_linear_14738_28540" x1="22.5267" y1="23.9276" x2="22.9561" y2="22.7299" gradientUnits="userSpaceOnUse">
<stop stop-color="#FEE8C1"/>
<stop offset="0.51" stop-color="#9E7A45"/>
</linearGradient>
<linearGradient id="paint15_linear_14738_28540" x1="14.4801" y1="6.60984" x2="8.31527" y2="12.5265" gradientUnits="userSpaceOnUse">
<stop stop-color="#FEE8C1"/>
<stop offset="0.6" stop-color="#9E7A45"/>
</linearGradient>
<linearGradient id="paint16_linear_14738_28540" x1="21.3028" y1="14.1384" x2="12.3173" y2="22.7633" gradientUnits="userSpaceOnUse">
<stop stop-color="#FEE8C1"/>
<stop offset="0.6" stop-color="#9E7A45"/>
</linearGradient>
<linearGradient id="paint17_linear_14738_28540" x1="10.4677" y1="15.2356" x2="3.31097" y2="22.1051" gradientUnits="userSpaceOnUse">
<stop stop-color="#FEE8C1"/>
<stop offset="0.6" stop-color="#9E7A45"/>
</linearGradient>
<linearGradient id="paint18_linear_14738_28540" x1="11.4362" y1="20.2798" x2="5.71187" y2="25.7737" gradientUnits="userSpaceOnUse">
<stop stop-color="#FEE8C1"/>
<stop offset="0.6" stop-color="#9E7A45"/>
</linearGradient>
<linearGradient id="paint19_linear_14738_28540" x1="8.19954" y1="26.8418" x2="5.65827" y2="29.2808" gradientUnits="userSpaceOnUse">
<stop stop-color="#FEE8C1"/>
<stop offset="0.6" stop-color="#9E7A45"/>
</linearGradient>
<linearGradient id="paint20_linear_14738_28540" x1="18.9887" y1="20.3315" x2="16.0434" y2="17.6047" gradientUnits="userSpaceOnUse">
<stop stop-color="#FEE8C1"/>
<stop offset="0.51" stop-color="#9E7A45"/>
</linearGradient>
<linearGradient id="paint21_linear_14738_28540" x1="16.618" y1="35.974" x2="16.53" y2="42.5133" gradientUnits="userSpaceOnUse">
<stop stop-color="#FEE8C1"/>
<stop offset="0.47" stop-color="#9E7A45"/>
</linearGradient>
<linearGradient id="paint22_linear_14738_28540" x1="20.0355" y1="31.231" x2="15.3869" y2="31.231" gradientUnits="userSpaceOnUse">
<stop stop-color="#FEE8C1"/>
<stop offset="0.6" stop-color="#9E7A45"/>
</linearGradient>
<linearGradient id="paint23_linear_14738_28540" x1="18.0516" y1="17.2816" x2="19.3941" y2="13.2093" gradientUnits="userSpaceOnUse">
<stop stop-color="#FEE8C1"/>
<stop offset="0.51" stop-color="#9E7A45"/>
</linearGradient>
<linearGradient id="paint24_linear_14738_28540" x1="15.6377" y1="17.3738" x2="12.8909" y2="20.0104" gradientUnits="userSpaceOnUse">
<stop stop-color="#FEE8C1"/>
<stop offset="0.6" stop-color="#9E7A45"/>
</linearGradient>
<linearGradient id="paint25_linear_14738_28540" x1="18.8543" y1="30.5226" x2="16.791" y2="26.4939" gradientUnits="userSpaceOnUse">
<stop stop-color="#FEE8C1"/>
<stop offset="0.51" stop-color="#9E7A45"/>
</linearGradient>
<linearGradient id="paint26_linear_14738_28540" x1="17.7769" y1="26.2984" x2="15.5024" y2="21.6011" gradientUnits="userSpaceOnUse">
<stop stop-color="#FEE8C1"/>
<stop offset="0.51" stop-color="#9E7A45"/>
</linearGradient>
<linearGradient id="paint27_linear_14738_28540" x1="16.189" y1="22.1547" x2="13.521" y2="22.2482" gradientUnits="userSpaceOnUse">
<stop stop-color="#FEE8C1"/>
<stop offset="0.51" stop-color="#9E7A45"/>
</linearGradient>
<linearGradient id="paint28_linear_14738_28540" x1="17.9383" y1="24.2125" x2="17.0526" y2="22.3821" gradientUnits="userSpaceOnUse">
<stop stop-color="#FEE8C1"/>
<stop offset="0.51" stop-color="#9E7A45"/>
</linearGradient>
<linearGradient id="paint29_linear_14738_28540" x1="16.5997" y1="24.0348" x2="16.1733" y2="22.8332" gradientUnits="userSpaceOnUse">
<stop stop-color="#FEE8C1"/>
<stop offset="0.51" stop-color="#9E7A45"/>
</linearGradient>
<linearGradient id="paint30_linear_14738_28540" x1="25.4072" y1="9.95543" x2="39.2338" y2="23.0951" gradientUnits="userSpaceOnUse">
<stop stop-color="#FEE8C1"/>
<stop offset="0.6" stop-color="#9E7A45"/>
</linearGradient>
<linearGradient id="paint31_linear_14738_28540" x1="12.1291" y1="9.89727" x2="-1.68979" y2="22.8989" gradientUnits="userSpaceOnUse">
<stop stop-color="#FEE8C1"/>
<stop offset="0.6" stop-color="#9E7A45"/>
</linearGradient>
</defs>
</svg>
