<?xml version="1.0" encoding="utf-8"?>
<!-- Generator: Adobe Illustrator 25.3.1, SVG Export Plug-In . SVG Version: 6.00 Build 0)  -->
<svg version="1.1" id="ч_x2F_б" xmlns="http://www.w3.org/2000/svg" xmlns:xlink="http://www.w3.org/1999/xlink" x="0px" y="0px"
	 viewBox="0 0 1447.9 660.6" style="enable-background:new 0 0 1447.9 660.6;" xml:space="preserve">
<style type="text/css">
	.st0{fill:#FFFFFF;}
	.st1{fill:#CBCBCB;}
	.st2{fill:#001BA0;}
	.st3{fill:#5470FA;}
	.st4{fill:#F4253F;}
</style>
<g>
	<path class="st0" d="M168.3,592.5l2.3,6.9c-6.7,3.6-13.9,5.4-21.5,5.4c-11.3,0-20.3-3.6-26.9-10.8c-6.6-7.2-9.8-16.5-9.8-28
		c0-11.5,3.5-21,10.6-28.7c7.2-7.6,16.4-11.5,27.6-11.5c8,0,14.3,1.4,19.1,4.1v8.2c-5.8-3.2-12.2-4.8-18.9-4.8
		c-8.7,0-15.7,3.1-21.2,9.2c-5.4,6.2-8.1,13.8-8.1,22.8c0,9.5,2.6,17.2,7.7,23c5.1,5.8,12,8.8,20.7,8.8
		C156.2,597.3,162.3,595.7,168.3,592.5z M333.1,603.6l29.2-77.3h6l29.5,77.3h-9.4l-7.6-20.7h-31l-7.6,20.7H333.1z M352.5,575.7H378
		l-8-22.2c-1.7-4.7-3.2-9.1-4.6-13.3h-0.2c-0.8,2.3-2.3,6.8-4.7,13.3L352.5,575.7z M561.9,598.9l3.6-6.8c5.2,3.4,10.8,5.1,16.7,5.1
		c4.5,0,8.2-1,11.1-3c3-2,4.4-5.2,4.4-9.5c0-3.4-1.2-6.3-3.5-8.8c-2.3-2.6-5.2-4.7-8.5-6.4c-3.3-1.8-6.6-3.6-9.9-5.5
		c-3.3-1.9-6.1-4.4-8.4-7.5c-2.3-3.2-3.5-6.9-3.5-11.1c0-5.6,2-10.3,6.1-13.9c4.1-3.7,9.6-5.6,16.6-5.6c6.5,0,12,1.2,16.7,3.5v8.1
		c-5-2.8-10.5-4.2-16.5-4.2c-3.9,0-7.2,0.9-9.9,2.8c-2.7,1.9-4,4.7-4,8.5c0,3.2,1.2,6,3.5,8.4c2.3,2.4,5.1,4.5,8.4,6.3
		c3.4,1.7,6.7,3.5,9.9,5.5c3.4,1.9,6.2,4.4,8.5,7.7c2.3,3.3,3.5,7.1,3.5,11.6c0,6.4-2.3,11.4-6.8,15.1c-4.4,3.7-10.4,5.5-17.9,5.5
		C574.2,604.8,567.5,602.8,561.9,598.9z M779.2,603.6v-77.1h8.7v77.1H779.2z M1027.5,603.6h-7.3l-37-48.9
		c-3.7-4.8-7.4-9.8-10.9-14.9h-0.2c0.2,3.8,0.4,8.2,0.4,13.2v50.5h-8.7v-77.1h8.3l35.6,47c3.7,4.8,7.4,10,11.2,15.6h0.2
		c-0.2-2.7-0.2-7.3-0.2-13.6v-49h8.5V603.6z M1243.2,604.8c-10.9,0-19.9-3.6-27-10.8c-7-7.3-10.5-16.8-10.5-28.5
		c0-11.6,3.5-21.1,10.5-28.4c7.1-7.4,16.1-11.1,27-11.1s19.9,3.7,26.9,11.1c7.1,7.4,10.6,16.9,10.6,28.4c0,11.8-3.6,21.3-10.8,28.5
		C1262.9,601.2,1254,604.8,1243.2,604.8z M1222.5,588.6c5.2,5.8,12.1,8.7,20.7,8.7c8.6,0,15.4-2.9,20.6-8.7
		c5.2-5.8,7.8-13.6,7.8-23.2c0-9.4-2.5-17-7.6-23c-5-6-11.9-9-20.8-9c-8.6,0-15.5,3-20.7,8.9c-5.1,5.8-7.7,13.6-7.7,23.2
		S1217.4,582.8,1222.5,588.6z"/>
	<g>
		<path class="st0" d="M1002.3,482.2L963,382.9H826.6l-41,99.4h-76.4L891,52h15.2L1088,482.2H1002.3L1002.3,482.2z M853.7,315.8
			h83.1l-40.5-103.4L853.7,315.8z"/>
		<path class="st1" d="M906.2,52L1088,482.2h-85.7L963,382.9H826.6l-41,99.4h-76.4L891,52H906.2 M853.7,315.8h83.1l-40.5-103.4
			L853.7,315.8 M908.2,49h-2H891h-2l-0.8,1.8L706.5,481.2l-1.8,4.2h4.5h76.4h2l0.8-1.9l40.2-97.5H961l38.5,97.4l0.8,1.9h2h85.7h4.5
			l-1.8-4.2L909,50.9L908.2,49L908.2,49z M858.2,312.8l38-92.4l36.2,92.4H858.2L858.2,312.8z"/>
	</g>
	<g>
		<path class="st2" d="M779.5,316.1l-9.5,22.3h257.2l-9.4-22.3C913.5,316.1,883.8,316.1,779.5,316.1z"/>
		<path class="st2" d="M760.7,360.6l-9.4,22.3h294.8l-9.2-22.3C921,360.6,876.4,360.6,760.7,360.6z"/>
		<path class="st2" d="M971.7,405.1l8.7,22.3h75.3l5.5-8.6l-5.8-13.7C1038.9,405.1,995.3,405.1,971.7,405.1z"/>
		<path class="st2" d="M741.8,405.1l-6.8,16.1l3.9,6.2h69.3l9.2-22.3C793.9,405.1,758.3,405.1,741.8,405.1z"/>
		<path class="st2" d="M989.4,449.7l8.8,22.3h29.1l14.2-22.3C1020.8,449.7,1003.8,449.7,989.4,449.7z"/>
		<path class="st2" d="M753,449.7l14,22.3h22.9l9.2-22.3C775.3,449.7,783.6,449.7,753,449.7z"/>
		<path class="st2" d="M836.1,182.2l-9.4,22.3h144l-9.4-22.3C894.5,182.2,902.8,182.2,836.1,182.2z"/>
		<path class="st2" d="M817.2,226.8l-9.4,22.3h73.5l9.2-22.3C877.6,226.8,827.4,226.8,817.2,226.8z"/>
		<path class="st2" d="M798.4,271.3l-9.4,22.3h73.9l9.2-22.3C863.7,271.3,815.6,271.3,798.4,271.3z"/>
		<path class="st2" d="M901.9,226.8l8.7,22.3h78.8l-9.4-22.3C969.9,226.8,914.8,226.8,901.9,226.8z"/>
		<path class="st2" d="M919.4,271.3l8.7,22.3h80.2l-9.4-22.3C981.7,271.3,927.8,271.3,919.4,271.3z"/>
		<path class="st2" d="M873.7,93.1l-9.4,22.3H933l-9.4-22.3C906.2,93.1,890.6,93.1,873.7,93.1z"/>
		<path class="st2" d="M854.9,137.7l-9.7,22.3h106.6l-9.4-22.3C889.4,137.7,907.9,137.7,854.9,137.7z"/>
		<path class="st2" d="M891,52l-7.9,18.7h31.1L906.2,52C906.2,52,896.1,52,891,52z"/>
	</g>
	<g>
		<g>
			<g>
				<polygon class="st0" points="365.8,482.3 365.8,323.8 276.1,450.8 264.5,450.8 177.2,329.7 177.2,482.3 115.4,482.3 
					115.4,159.2 131.8,159.2 270.8,356.8 412.1,159.2 428.8,159.2 428.8,482.3 				"/>
				<path class="st1" d="M428.8,159.2v323.1h-63V323.8l-89.7,127h-11.6l-87.3-121.1v152.6h-61.8V159.2h16.4l139,197.6l141.3-197.6
					H428.8 M431.8,156.2h-3h-16.7h-1.5l-0.9,1.3L270.9,351.7L134.3,157.5l-0.9-1.3h-1.6h-16.4h-3v3v323.1v3h3h61.8h3v-3V339
					l81.9,113.6l0.9,1.2h1.5h11.6h1.6l0.9-1.3l84.2-119.3v149.1v3h3h63h3v-3V159.2V156.2L431.8,156.2z"/>
			</g>
		</g>
		<g>
			<g>
				<rect x="467.7" y="207.2" class="st0" width="54.9" height="275.1"/>
				<path class="st1" d="M522.6,207.2v275.1h-54.9V207.2H522.6 M525.6,204.2h-3h-54.9h-3v3v275.1v3h3h54.9h3v-3V207.2V204.2
					L525.6,204.2z"/>
			</g>
		</g>
		<g>
			<g>
				<path class="st0" d="M705.2,482.2l-59.6-92.4h-30.4v92.5h-54.9V207.2h78.9c19.1,0,36.5,3.4,51.6,10.2
					c15.5,7,27.8,17.3,36.6,30.7c8.9,13.5,13.4,30,13.4,48.9c0,15.9-3.5,31.5-10.4,46.5c-5.7,12.3-14.6,22.5-26.4,30.2l-1.6,1.1
					l67.4,107.4H705.2L705.2,482.2z M615.2,335.9h28.2c11.3,0,19.9-2,25.5-6c5.8-4.1,9.7-8.8,11.9-14.4c2.4-6.1,3.6-11.9,3.6-17.1
					s-1.3-10.9-3.8-17c-2.3-5.7-6.2-10.5-11.9-14.6c-5.4-3.9-13.2-5.9-23.2-5.9h-30.4v75H615.2z"/>
				<path class="st1" d="M639.2,207.2c19.1,0,36.5,3.4,51.6,10.2c15.5,7,27.8,17.3,36.6,30.7c8.9,13.5,13.4,30,13.4,48.9
					c0,15.9-3.5,31.5-10.4,46.5c-5.7,12.3-14.6,22.5-26.4,30.2l-1.6,1.1l67.4,107.4h-64.6l-59.6-92.4h-30.4v92.5h-54.9V207.2H639.2
					 M615.1,335.9h0.1h28.2c11.3,0,19.9-2,25.5-6c5.8-4.1,9.7-8.8,11.9-14.4c2.4-6.1,3.6-11.9,3.6-17.1c0-5.2-1.3-10.9-3.8-17
					c-2.3-5.7-6.2-10.5-11.9-14.6c-5.4-3.9-13.2-5.9-23.2-5.9h-30.4V335.9 M639.2,204.2h-78.9h-3v3v275.1v3h3h54.9h3v-3v-89.5H644
					l58.7,91l0.9,1.4h1.6h64.6h5.4l-2.9-4.6l-65.9-104.9c11.9-7.9,20.8-18.3,26.6-30.9c7.1-15.4,10.7-31.5,10.7-47.8
					c0-19.6-4.7-36.6-13.9-50.6c-9.1-13.8-21.8-24.5-37.9-31.8C676.6,207.8,658.9,204.2,639.2,204.2L639.2,204.2z M618.1,263.9h27.4
					c9.3,0,16.5,1.8,21.4,5.3c5.2,3.8,8.8,8.1,10.9,13.3c2.4,5.8,3.6,11.1,3.6,15.9c0,4.9-1.1,10.3-3.4,16c-2,5-5.5,9.3-10.8,13
					c-5.1,3.6-13.1,5.4-23.8,5.4h-25.3V263.9L618.1,263.9z"/>
			</g>
		</g>
		<g>
			<g>
				<polygon class="st0" points="1206,482.3 1146.4,390 1091.6,482.3 1024.3,482.3 1114.4,340.7 1027.7,207.2 1095.9,207.2 
					1153.4,295.3 1205.4,207.2 1271.7,207.2 1184.8,343.1 1275.4,482.3 				"/>
				<path class="st1" d="M1271.7,207.2l-86.9,135.9l90.6,139.2H1206l-59.6-92.3l-54.8,92.3h-67.3l90.1-141.6l-86.7-133.5h68.2
					l57.5,88.1l52-88.1H1271.7 M1277.2,204.2h-5.5h-66.3h-1.7l-0.9,1.5l-49.5,83.9l-54.9-84.1l-0.9-1.4h-1.6h-68.2h-5.5l3,4.6
					l85.6,131.9l-89.1,140l-2.9,4.6h5.5h67.3h1.7l0.9-1.5l52.3-88.1l57,88.2l0.9,1.4h1.6h69.4h5.5l-3-4.6l-89.5-137.6l85.9-134.3
					L1277.2,204.2L1277.2,204.2z"/>
			</g>
		</g>
	</g>
	<g>
		<path class="st3" d="M177.2,485.3h3v-3V339l81.9,113.6l0.9,1.2h1.5h11.6h1.6l0.9-1.3l84.2-119.3v149.1v3h3h63h3v-3V324.7
			c-20.8-14.3-58.5-37.3-107.5-47.8l-53.5,74.8L219.1,278c-51.3,12.9-90.7,41-106.6,53.8v150.6v3h3H177.2z"/>
		<g>
			<path class="st3" d="M615.2,485.3h3v-3v-53.6c-17.8-8.5-39.2-19.6-60.9-31.1v84.8v3h3H615.2z"/>
			<path class="st3" d="M702.7,483.9l0.9,1.4h1.6h64.6h17.8c-11.7-2.6-64.6-16.4-103.7-30.5L702.7,483.9z"/>
		</g>
		<path class="st3" d="M522.6,485.3h3v-3v-102c-24.2-13.3-46.3-25.8-60.9-34.3v136.2v3h3H522.6z"/>
		<path class="st4" d="M1091.6,485.3h1.7l0.9-1.5l52.3-88.1l57,88.2l0.9,1.4h1.6h69.4h5.5l-3-4.6l-89.5-137.6c0,0,32-50.1,33.4-52.2
			c0,0,0,0,0,0c-0.1-0.1-52.5,69-72.9,92c-25.5,28.7-67.9,68.3-130,102.4h5.5H1091.6z"/>
	</g>
</g>
</svg>
