<svg width="101" height="47" viewBox="0 0 101 47" fill="none" xmlns="http://www.w3.org/2000/svg">
<path d="M39.0812 35.6839C41.7091 26.8884 38.3162 15.9577 31.9072 8.66699C25.2348 1.08054 13.9419 -3.55058 6.09205 3.45161C-3.37278 11.893 -0.0989861 31.983 13.0707 41.9446C24.4634 50.5642 35.9144 46.2824 39.082 35.6831L39.0812 35.6839Z" fill="#FFBC0D"/>
<path d="M38.0206 34.6474C40.5732 26.548 37.4323 16.3158 31.4139 9.53806C25.1248 2.45646 14.7435 -1.47209 7.79719 5.11601C-0.38729 12.8799 2.53805 30.7294 14.2605 39.845C24.5057 47.8115 34.9988 44.2338 38.0206 34.6474Z" fill="#232634"/>
<path d="M30.7414 27.6541C32.2356 24.2572 30.9601 19.2184 27.876 15.9965C24.6378 12.6125 20.2101 12.0501 17.946 15.1618C15.4339 18.6139 16.6997 24.8519 20.8017 28.5366C24.6694 32.0122 29.1004 31.3849 30.7414 27.6541Z" fill="#FFBC0D"/>
<path d="M17.5571 11.5831C17.5571 11.5831 18.8196 10.8319 22.1866 11.3035C25.2748 11.737 26.8088 12.6195 26.8088 12.6195C26.8088 12.6195 25.4036 11.2849 22.0666 10.7946C18.4023 10.2557 17.5563 11.5831 17.5563 11.5831H17.5571ZM16.8472 9.86353C16.9039 9.82869 18.2467 9.03941 21.7936 9.61476C25.099 10.1512 26.7261 11.1641 26.7261 11.1641C26.7261 11.1641 25.1703 9.62853 21.6574 9.03212C17.8448 8.38546 16.8707 9.82707 16.8472 9.86353ZM16.0798 8.36115C16.1382 8.32144 17.5546 7.40008 21.4435 8.10346C25.0333 8.75579 26.7772 9.94051 26.7772 9.94051C26.7772 9.94051 25.103 8.14236 21.2814 7.41548C17.0976 6.62134 16.1041 8.31901 16.0798 8.36115ZM15.2857 6.81745V6.81501C15.2851 6.81555 15.2846 6.81609 15.2841 6.81663L15.2857 6.81745ZM15.2857 6.81582C15.3456 6.77126 16.8351 5.69998 21.0772 6.55165C24.9628 7.33363 26.8282 8.70879 26.8282 8.70879C26.8282 8.70879 25.0317 6.61972 20.8868 5.74374C16.3164 4.77781 15.31 6.76639 15.2857 6.81582ZM14.3027 5.13031C14.3027 5.13031 15.9413 3.77055 20.6704 4.82481C24.9547 5.77858 26.9781 7.42034 26.9781 7.42034C26.9781 7.42034 25.0171 4.91232 20.4379 3.83619C15.2622 2.62067 14.3035 5.13112 14.3035 5.13112L14.3027 5.13031ZM27.2634 33.3319C30.5931 32.7793 31.3799 31.2728 31.3799 31.2728C31.3799 31.2728 30.2139 32.2655 27.1313 32.7485C23.8316 33.2695 22.1153 32.4592 22.035 32.4195C22.112 32.4924 23.6744 33.9283 27.2634 33.3319ZM22.0869 34.3959L22.0901 34.3975C22.0891 34.3967 22.088 34.3967 22.0869 34.3959ZM27.7318 35.3845C31.2341 34.6949 32.0752 32.9227 32.0752 32.9227C32.0752 32.9227 30.8735 34.0864 27.577 34.7006C24.0196 35.3667 22.176 34.4421 22.0901 34.3975C22.1736 34.4786 23.9426 36.1309 27.7318 35.3845ZM21.9759 36.1625C21.9759 36.1625 23.9045 38.2758 28.1702 37.3115C31.9772 36.4501 32.8045 34.3327 32.8045 34.3327C32.8045 34.3327 31.5631 35.7184 27.9854 36.4834C23.9904 37.3399 21.9759 36.1625 21.9759 36.1625ZM21.8543 38.0214C21.8543 38.0214 23.9653 40.5602 28.6313 39.3552C32.7575 38.2904 33.5492 35.784 33.5492 35.784C33.5492 35.784 32.277 37.4242 28.4068 38.3625C24.0439 39.4192 21.8535 38.0206 21.8535 38.0206L21.8543 38.0214ZM21.5885 40.0959C21.5885 40.0959 23.945 43.2886 29.1734 41.7449C33.7226 40.403 34.4503 37.3253 34.4503 37.3253C34.4503 37.3253 33.1522 39.3252 28.8914 40.4986C24.1209 41.8138 21.5885 40.0959 21.5885 40.0959Z" fill="#EE3A4C"/>
<path d="M25.7747 22.6597C26.1166 22.0277 25.88 21.0204 25.2455 20.39C24.611 19.7595 23.7869 19.7328 23.4182 20.3543C23.043 20.988 23.2804 22.0358 23.9482 22.68C24.6159 23.3242 25.427 23.3007 25.7747 22.6597Z" fill="#232634"/>
<path d="M41.324 25.6241C45.9186 24.9628 52.1866 21.1064 53.0172 15.2776C53.5926 11.3418 51.5708 9.00391 48.3367 8.20329C45.0175 7.38484 41.6546 8.22355 38.5396 9.418C32.6549 11.7242 27.8285 16.156 28.2636 20.3212C28.6445 23.9726 32.9037 24.5901 32.2862 23.945C32.2862 23.945 29.5658 20.6567 33.5487 16.9963C36.9416 13.866 43.9859 9.51037 48.7232 11.9155C49.9387 12.5459 50.8747 13.6472 50.412 15.6147C49.3018 20.2628 43.3952 22.5707 40.1327 22.9888C39.9885 22.9986 39.8451 23.0277 39.7008 23.0358C40.273 20.8476 40.996 18.7015 41.8645 16.613C42.3401 15.4593 42.9876 14.3843 43.785 13.4243C44.5418 12.5954 44.772 11.9633 44.2517 11.8904C41.012 11.3377 37.9472 16.8837 36.6426 22.3487C36.4285 22.1811 36.2477 21.9749 36.1094 21.7409C36.1094 21.7409 35.8946 21.2588 35.6507 21.6842C35.5186 21.8989 35.5859 23.0302 36.2877 24.0423C35.5511 28.3582 36.0697 32.2089 38.6425 32.3264C38.726 32.3418 39.3475 32.367 39.1044 32.0923C38.3476 31.1871 38.461 28.9303 38.931 26.3842C39.9731 30.6993 44.6926 36.9867 48.5603 37.6682C50.5667 38.0248 52.1445 37.0653 52.3908 34.9455C52.4346 34.6335 52.2693 34.2923 52.0148 34.5346C51.5829 34.8669 51.01 34.956 50.4979 34.768C47.8683 33.7251 43.0078 30.6239 41.324 25.6241ZM76.6404 13.9738C77.4297 14.0102 78.2514 13.6115 78.4685 13.0824C78.6849 12.5548 78.223 12.0857 77.4135 12.0508C76.6242 12.0143 75.8009 12.4138 75.5837 12.9422C75.3674 13.4713 75.8292 13.9397 76.638 13.9746L76.6404 13.9738ZM92.1229 14.8408C92.5604 14.8773 92.9235 15.434 92.601 16.2994C92.4778 16.7322 92.1974 17.1017 91.8141 17.3367C90.6723 18.0028 91.7306 18.3739 92.5167 18.0174C92.3092 19.7434 91.9859 21.6202 90.2437 22.2393C89.3717 22.5375 88.5444 22.1939 88.7664 20.7158C89.0232 19.2116 89.5392 17.7633 90.2915 16.4356C91.0086 15.2784 91.7047 14.8044 92.1212 14.8416L92.1229 14.8408ZM91.1342 27.0778C91.0427 27.0955 90.9482 27.0908 90.8588 27.0643C90.7695 27.0377 90.6878 26.99 90.6207 26.9253C90.5537 26.8605 90.5031 26.7805 90.4735 26.6922C90.4438 26.6038 90.4359 26.5095 90.4503 26.4174C90.4025 25.2651 91.2947 24.2635 91.99 23.4378C91.7525 25.3502 91.4389 27.0406 91.131 27.0795L91.1342 27.0778ZM58.6499 17.7961C58.8136 18.3067 58.8736 18.8431 58.825 19.3763C57.543 19.3893 56.7213 17.7451 57.1994 17.0976C57.697 16.408 58.4514 17.2719 58.6483 17.797L58.6499 17.7961ZM54.9775 19.7045C55.255 20.3243 55.7308 20.8341 56.33 21.1538C56.9291 21.4734 57.6175 21.5848 58.2869 21.4703H58.308C57.791 22.7434 56.7975 23.7645 55.539 24.3162C54.317 24.6363 53.9751 23.7684 54.0804 22.7506C54.2287 21.6972 54.5301 20.6713 54.975 19.7053L54.9775 19.7045ZM94.8326 20.7928C95.7783 19.6429 98.1364 18.2046 99.4168 17.4761L98.8171 16.7897C97.627 17.2656 96.4711 17.8231 95.3578 18.4582C95.6041 17.3424 95.9331 16.2468 96.3423 15.1804C96.7702 14.0199 97.2118 14.1383 96.9039 13.8465C95.7889 12.8385 94.1017 13.6804 93.8724 14.0037C93.5894 13.7786 93.2627 13.615 92.9129 13.5232C90.0014 12.93 87.3767 15.4145 86.3508 18.3464C86.0809 19.0489 85.8954 19.7807 85.7973 20.5262C85.7503 20.9152 85.7487 21.3082 85.7941 21.698C85.4772 22.1137 85.0291 22.4111 84.5218 22.5407C83.2512 22.7393 83.6466 19.3074 86.0858 15.4299C87.1068 13.8012 86.1838 13.6075 85.081 13.8376C82.7496 14.3044 81.8023 15.7638 80.3785 17.5814C80.6905 16.904 81.0236 16.2419 81.3185 15.6269C81.5333 15.2638 81.6508 14.8522 81.6605 14.43C81.573 13.6512 77.4832 14.4689 78.2027 15.0864C78.4215 15.2808 78.3729 15.5102 78.2133 15.9534C77.7546 17.1292 75.8819 20.4776 76.0091 22.8349C75.8333 22.9558 75.633 23.0365 75.4225 23.0715C74.151 23.2692 74.5473 19.8382 76.9856 15.9607C77.5917 15.0167 77.9937 14.477 77.4524 14.4267C75.0343 14.1156 73.8431 15.6504 72.7459 18.0879C72.2787 19.1268 71.9475 20.2217 71.7605 21.3455V21.3479C71.1981 22.2555 70.3854 23.3089 69.5945 23.4127C68.4049 23.5861 68.8368 21.4549 69.5742 19.2442C71.0677 17.3707 73.0036 14.6074 73.7799 12.9049C73.9622 12.5046 74.903 10.8223 73.5117 10.3021C68.9121 9.51929 66.3587 18.7718 65.9333 21.6874C65.9084 21.8756 65.8924 22.0649 65.8855 22.2547C65.3685 22.9799 64.7316 23.6509 64.1084 23.7327C62.9188 23.9062 63.3507 21.7749 64.0882 19.5643C65.6829 17.5628 67.7817 14.5483 68.4357 12.8936C68.3733 13.0516 69.3967 10.9609 68.0256 10.6214C64.7275 10.0598 62.4804 14.6625 61.3168 18.3853C61.0875 18.5149 60.8565 18.6405 60.632 18.7548C60.5892 17.8674 60.2308 17.0246 59.6215 16.378C59.2819 16.0345 58.8658 15.776 58.4073 15.6236C57.9488 15.4712 57.4608 15.4293 56.9831 15.5013C55.005 15.6382 51.7272 18.2451 51.1121 22.5545C50.7491 25.1354 52.702 27.0235 54.7506 26.6759V26.6962C57.3218 26.4425 59.8128 23.4475 60.4684 20.5602C60.5688 20.5011 60.6693 20.4387 60.7682 20.3763C60.638 20.915 60.5304 21.459 60.4457 22.0067C60.1426 24.2125 61.0559 27.0487 63.7438 25.9831C64.6943 25.5189 65.4931 24.7937 66.0468 23.8924C66.4195 25.3267 67.4219 26.3785 69.2306 25.6605C70.2525 25.2586 71.1211 24.2295 71.7694 23.2141C72.0822 24.992 73.3196 26.0017 75.0586 25.3186C75.6007 25.085 76.0875 24.7399 76.4872 24.3057C76.7194 24.5862 77.0064 24.8163 77.3306 24.982C77.6549 25.1477 78.0096 25.2454 78.3729 25.2691C78.4572 25.2837 79.0585 25.3113 78.8761 25.0325C77.7457 23.3648 79.7067 18.8115 81.5754 18.2273C81.2309 19.0543 80.9905 19.921 80.8599 20.8074C80.4498 23.6598 81.8736 25.6824 84.1588 24.7838C84.9771 24.4005 85.679 23.8068 86.1927 23.0634C86.854 24.3664 88.1797 24.9709 89.4957 24.2846C87.5444 26.6078 88.8555 29.5243 91.0597 29.3735C93.823 29.192 94.2905 24.8907 94.8326 20.792V20.7928Z" fill="#FFBC0D"/>
<path d="M41.324 25.6241C45.9186 24.9628 52.1866 21.1064 53.0172 15.2776C53.5926 11.3418 51.5708 9.00391 48.3367 8.20329C45.0175 7.38484 41.6546 8.22355 38.5396 9.418C32.6549 11.7242 27.8285 16.156 28.2636 20.3212C28.6445 23.9726 32.9037 24.5901 32.2862 23.945C32.2862 23.945 29.5658 20.6567 33.5487 16.9963C36.9416 13.866 43.9859 9.51037 48.7232 11.9155C49.9387 12.5459 50.8747 13.6472 50.412 15.6147C49.3018 20.2628 43.3952 22.5707 40.1327 22.9888C39.9885 22.9986 39.8451 23.0277 39.7008 23.0358C40.273 20.8476 40.996 18.7015 41.8645 16.613C42.3401 15.4593 42.9876 14.3843 43.785 13.4243C44.5418 12.5954 44.772 11.9633 44.2517 11.8904C41.012 11.3377 37.9472 16.8837 36.6426 22.3487C36.4285 22.1811 36.2477 21.9749 36.1094 21.7409C36.1094 21.7409 35.8946 21.2588 35.6507 21.6842C35.5186 21.8989 35.5859 23.0302 36.2877 24.0423C35.5511 28.3582 36.0697 32.2089 38.6425 32.3264C38.726 32.3418 39.3475 32.367 39.1044 32.0923C38.3476 31.1871 38.461 28.9303 38.931 26.3842C39.9731 30.6993 44.6926 36.9867 48.5603 37.6682C50.5667 38.0248 52.1445 37.0653 52.3908 34.9455C52.4346 34.6335 52.2693 34.2923 52.0148 34.5346C51.5829 34.8669 51.01 34.956 50.4979 34.768C47.8683 33.7251 43.0078 30.6239 41.324 25.6241ZM76.6404 13.9738C77.4297 14.0102 78.2514 13.6115 78.4685 13.0824C78.6849 12.5548 78.223 12.0857 77.4135 12.0508C76.6242 12.0143 75.8009 12.4138 75.5837 12.9422C75.3674 13.4713 75.8292 13.9397 76.638 13.9746L76.6404 13.9738ZM92.1229 14.8408C92.5604 14.8773 92.9235 15.434 92.601 16.2994C92.4778 16.7322 92.1974 17.1017 91.8141 17.3367C90.6723 18.0028 91.7306 18.3739 92.5167 18.0174C92.3092 19.7434 91.9859 21.6202 90.2437 22.2393C89.3717 22.5375 88.5444 22.1939 88.7664 20.7158C89.0232 19.2116 89.5392 17.7633 90.2915 16.4356C91.0086 15.2784 91.7047 14.8044 92.1212 14.8416L92.1229 14.8408ZM91.1342 27.0778C91.0427 27.0955 90.9482 27.0908 90.8588 27.0643C90.7695 27.0377 90.6878 26.99 90.6207 26.9253C90.5537 26.8605 90.5031 26.7805 90.4735 26.6922C90.4438 26.6038 90.4359 26.5095 90.4503 26.4174C90.4025 25.2651 91.2947 24.2635 91.99 23.4378C91.7525 25.3502 91.4389 27.0406 91.131 27.0795L91.1342 27.0778ZM58.6499 17.7961C58.8136 18.3067 58.8736 18.8431 58.825 19.3763C57.543 19.3893 56.7213 17.7451 57.1994 17.0976C57.697 16.408 58.4514 17.2719 58.6483 17.797L58.6499 17.7961ZM54.9775 19.7045C55.255 20.3243 55.7308 20.8341 56.33 21.1538C56.9291 21.4734 57.6175 21.5848 58.2869 21.4703H58.308C57.791 22.7434 56.7975 23.7645 55.539 24.3162C54.317 24.6363 53.9751 23.7684 54.0804 22.7506C54.2287 21.6972 54.5301 20.6713 54.975 19.7053L54.9775 19.7045ZM94.8326 20.7928C95.7783 19.6429 98.1364 18.2046 99.4168 17.4761L98.8171 16.7897C97.627 17.2656 96.4711 17.8231 95.3578 18.4582C95.6041 17.3424 95.9331 16.2468 96.3423 15.1804C96.7702 14.0199 97.2118 14.1383 96.9039 13.8465C95.7889 12.8385 94.1017 13.6804 93.8724 14.0037C93.5894 13.7786 93.2627 13.615 92.9129 13.5232C90.0014 12.93 87.3767 15.4145 86.3508 18.3464C86.0809 19.0489 85.8954 19.7807 85.7973 20.5262C85.7503 20.9152 85.7487 21.3082 85.7941 21.698C85.4772 22.1137 85.0291 22.4111 84.5218 22.5407C83.2512 22.7393 83.6466 19.3074 86.0858 15.4299C87.1068 13.8012 86.1838 13.6075 85.081 13.8376C82.7496 14.3044 81.8023 15.7638 80.3785 17.5814C80.6905 16.904 81.0236 16.2419 81.3185 15.6269C81.5333 15.2638 81.6508 14.8522 81.6605 14.43C81.573 13.6512 77.4832 14.4689 78.2027 15.0864C78.4215 15.2808 78.3729 15.5102 78.2133 15.9534C77.7546 17.1292 75.8819 20.4776 76.0091 22.8349C75.8333 22.9558 75.633 23.0365 75.4225 23.0715C74.151 23.2692 74.5473 19.8382 76.9856 15.9607C77.5917 15.0167 77.9937 14.477 77.4524 14.4267C75.0343 14.1156 73.8431 15.6504 72.7459 18.0879C72.2787 19.1268 71.9475 20.2217 71.7605 21.3455V21.3479C71.1981 22.2555 70.3854 23.3089 69.5945 23.4127C68.4049 23.5861 68.8368 21.4549 69.5742 19.2442C71.0677 17.3707 73.0036 14.6074 73.7799 12.9049C73.9622 12.5046 74.903 10.8223 73.5117 10.3021C68.9121 9.51929 66.3587 18.7718 65.9333 21.6874C65.9084 21.8756 65.8924 22.0649 65.8855 22.2547C65.3685 22.9799 64.7316 23.6509 64.1084 23.7327C62.9188 23.9062 63.3507 21.7749 64.0882 19.5643C65.6829 17.5628 67.7817 14.5483 68.4357 12.8936C68.3733 13.0516 69.3967 10.9609 68.0256 10.6214C64.7275 10.0598 62.4804 14.6625 61.3168 18.3853C61.0875 18.5149 60.8565 18.6405 60.632 18.7548C60.5892 17.8674 60.2308 17.0246 59.6215 16.378C59.2819 16.0345 58.8658 15.776 58.4073 15.6236C57.9488 15.4712 57.4608 15.4293 56.9831 15.5013C55.005 15.6382 51.7272 18.2451 51.1121 22.5545C50.7491 25.1354 52.702 27.0235 54.7506 26.6759V26.6962C57.3218 26.4425 59.8128 23.4475 60.4684 20.5602C60.5688 20.5011 60.6693 20.4387 60.7682 20.3763C60.638 20.915 60.5304 21.459 60.4457 22.0067C60.1426 24.2125 61.0559 27.0487 63.7438 25.9831C64.6943 25.5189 65.4931 24.7937 66.0468 23.8924C66.4195 25.3267 67.4219 26.3785 69.2306 25.6605C70.2525 25.2586 71.1211 24.2295 71.7694 23.2141C72.0822 24.992 73.3196 26.0017 75.0586 25.3186C75.6007 25.085 76.0875 24.7399 76.4872 24.3057C76.7194 24.5862 77.0064 24.8163 77.3306 24.982C77.6549 25.1477 78.0096 25.2454 78.3729 25.2691C78.4572 25.2837 79.0585 25.3113 78.8761 25.0325C77.7457 23.3648 79.7067 18.8115 81.5754 18.2273C81.2309 19.0543 80.9905 19.921 80.8599 20.8074C80.4498 23.6598 81.8736 25.6824 84.1588 24.7838C84.9771 24.4005 85.679 23.8068 86.1927 23.0634C86.854 24.3664 88.1797 24.9709 89.4957 24.2846C87.5444 26.6078 88.8555 29.5243 91.0597 29.3735C93.823 29.192 94.2905 24.8907 94.8326 20.792V20.7928Z" stroke="#232634" stroke-width="0.810345" stroke-miterlimit="20" stroke-linejoin="round"/>
<path d="M83.3937 33.5044C86.289 36.6169 82.6433 38.6266 81.9156 36.1299C81.8818 36.0145 81.8606 35.8958 81.8524 35.7758C82.2025 35.2004 82.4059 34.8009 82.4059 34.8009L82.2486 34.4079C82.5315 33.9991 82.9303 33.6844 83.3937 33.5044ZM79.8711 29.7476C80.6912 29.4786 81.4626 29.212 82.0299 29.0183C81.6425 29.9356 81.8905 31.1106 82.5112 32.2346C79.9213 33.2799 78.8541 35.3252 79.3403 36.9856C79.0794 37.2158 78.765 37.3746 78.4254 37.4492C77.893 37.5423 77.6524 36.9783 77.7204 36.0254C77.8096 35.1113 78.7966 32.207 79.8711 29.7476ZM72.0083 31.5709C72.1728 32.0806 72.2336 32.6179 72.1858 33.1511C70.9038 33.164 70.0813 31.519 70.5602 30.8716C71.057 30.182 71.8122 31.0458 72.0083 31.5709ZM68.3358 33.4793C68.6137 34.0993 69.0899 34.6093 69.6895 34.9289C70.2892 35.2484 70.9781 35.3594 71.6477 35.2442H71.6688C71.1519 36.5174 70.1584 37.5385 68.8998 38.0901C67.6778 38.4102 67.3359 37.5423 67.4412 36.5245C67.5895 35.4711 67.891 34.4452 68.3358 33.4793ZM54.5089 35.1996C57.4043 38.3114 53.7585 40.321 53.0309 37.8252C52.9126 37.2824 52.9977 36.7151 53.2702 36.2311C53.5427 35.7471 53.9835 35.38 54.5089 35.1996ZM90.8691 31.5174C91.2589 31.1236 90.5822 30.5231 89.9404 30.558C88.3869 30.7051 86.8465 30.9679 85.332 31.344C85.1294 31.0677 84.5452 30.276 84.4755 30.156C83.6684 28.759 86.1375 28.5313 85.4787 29.6228C84.9763 30.5402 86.1999 30.2411 86.6132 29.5361C87.588 27.8474 85.8563 27.2477 84.482 27.4519C84.0493 27.517 83.6284 27.6445 83.2324 27.8304C82.3691 27.7999 81.5053 27.8733 80.6596 28.0492C80.8508 27.6359 81.0696 27.238 81.3127 26.8539C81.8994 25.9317 82.3005 25.3928 81.7803 25.3199C80.0704 25.11 78.9732 25.794 78.0989 27.084C77.7812 27.5663 77.4922 28.0669 77.2334 28.5832C75.8826 28.8263 74.838 29.0118 74.838 29.0118C73.6558 29.3084 74.565 31.0304 75.3915 31.0029C75.6832 30.9883 75.9725 30.9372 76.2513 30.8489C76.1905 31.002 76.1314 31.1568 76.073 31.314C75.3972 31.7512 74.7014 32.1568 73.988 32.5295C73.9451 31.6422 73.5868 30.7993 72.9775 30.1528C72.6376 29.8092 72.2215 29.5507 71.7628 29.3984C71.3042 29.246 70.8161 29.2041 70.3382 29.276C68.361 29.4122 65.0831 32.0207 64.4681 36.3293C64.4246 36.6341 64.4138 36.9427 64.4356 37.2498C64.0843 37.7856 63.5537 38.1788 62.9389 38.3592C61.7485 38.5318 62.1805 36.4006 62.9179 34.1899C64.6155 32.0604 66.8853 28.7841 67.374 27.2169C67.4355 27.0022 67.4615 26.7785 67.4509 26.5549C67.489 25.3499 66.6827 25.2235 66.6989 25.2251C63.6869 24.8572 61.5735 28.8003 60.3766 32.3124C59.0558 32.4898 57.7438 32.7338 56.4473 33.0425C56.2447 32.7654 55.6596 31.9737 55.5907 31.8545C54.7836 30.4567 57.2527 30.229 56.5931 31.3197C56.0907 32.2378 57.3143 31.9388 57.7276 31.2338C58.7033 29.545 56.9716 28.9454 55.5972 29.1496C52.586 29.6358 52.4912 31.8707 53.6265 33.9306C49.202 35.7174 49.2141 40.4239 53.8485 41.1427C54.3676 41.2472 54.9023 41.2474 55.4215 41.1433C55.9407 41.0391 56.434 40.8328 56.8727 40.5362C57.3114 40.2396 57.6867 39.8587 57.9768 39.4156C58.2668 38.9726 58.4658 38.4763 58.5623 37.9556C58.7916 36.249 58.2114 35.54 57.3087 34.2718C58.1856 33.9839 59.0785 33.7469 59.9828 33.5619C59.6828 34.5692 59.4484 35.5948 59.281 36.6323C58.978 38.8381 59.8912 41.6743 62.5791 40.6087C63.4923 40.1684 64.2642 39.4816 64.8076 38.6258C65.3748 39.9061 66.7249 40.6516 68.1106 40.4491V40.4701C70.681 40.2157 73.1728 37.2206 73.8284 34.3342C74.3802 34.0036 74.9142 33.6438 75.428 33.2564C74.8073 35.3893 74.5171 37.497 75.1241 38.6549C75.3778 39.1809 75.8287 39.5856 76.3789 39.7813C76.9292 39.977 77.5343 39.9479 78.0632 39.7003C78.8335 39.3594 79.5169 38.8488 80.0623 38.2068C80.7939 38.8999 81.7317 39.3353 82.7332 39.4467C83.2523 39.5512 83.787 39.5514 84.3061 39.4473C84.8253 39.3432 85.3185 39.1369 85.7572 38.8404C86.1959 38.5439 86.5712 38.1631 86.8613 37.7201C87.1514 37.2772 87.3505 36.781 87.447 36.2604C87.6763 34.5538 87.0961 33.8447 86.1934 32.5766C87.7186 32.0896 89.283 31.7353 90.8691 31.5174Z" fill="#FFBC0D"/>
<path d="M83.3937 33.5044C86.289 36.6169 82.6433 38.6266 81.9156 36.1299C81.8818 36.0145 81.8606 35.8958 81.8524 35.7758C82.2025 35.2004 82.4059 34.8009 82.4059 34.8009L82.2486 34.4079C82.5315 33.9991 82.9303 33.6844 83.3937 33.5044ZM79.8711 29.7476C80.6912 29.4786 81.4626 29.212 82.0299 29.0183C81.6425 29.9356 81.8905 31.1106 82.5112 32.2346C79.9213 33.2799 78.8541 35.3252 79.3403 36.9856C79.0794 37.2158 78.765 37.3746 78.4254 37.4492C77.893 37.5423 77.6524 36.9783 77.7204 36.0254C77.8096 35.1113 78.7966 32.207 79.8711 29.7476ZM72.0083 31.5709C72.1728 32.0806 72.2336 32.6179 72.1858 33.1511C70.9038 33.164 70.0813 31.519 70.5602 30.8716C71.057 30.182 71.8122 31.0458 72.0083 31.5709ZM68.3358 33.4793C68.6137 34.0993 69.0899 34.6093 69.6895 34.9289C70.2892 35.2484 70.9781 35.3594 71.6477 35.2442H71.6688C71.1519 36.5174 70.1584 37.5385 68.8998 38.0901C67.6778 38.4102 67.3359 37.5423 67.4412 36.5245C67.5895 35.4711 67.891 34.4452 68.3358 33.4793ZM54.5089 35.1996C57.4043 38.3114 53.7585 40.321 53.0309 37.8252C52.9126 37.2824 52.9977 36.7151 53.2702 36.2311C53.5427 35.7471 53.9835 35.38 54.5089 35.1996ZM90.8691 31.5174C91.2589 31.1236 90.5822 30.5231 89.9404 30.558C88.3869 30.7051 86.8465 30.9679 85.332 31.344C85.1294 31.0677 84.5452 30.276 84.4755 30.156C83.6684 28.759 86.1375 28.5313 85.4787 29.6228C84.9763 30.5402 86.1999 30.2411 86.6132 29.5361C87.588 27.8474 85.8563 27.2477 84.482 27.4519C84.0493 27.517 83.6284 27.6445 83.2324 27.8304C82.3691 27.7999 81.5053 27.8733 80.6596 28.0492C80.8508 27.6359 81.0696 27.238 81.3127 26.8539C81.8994 25.9317 82.3005 25.3928 81.7803 25.3199C80.0704 25.11 78.9732 25.794 78.0989 27.084C77.7812 27.5663 77.4922 28.0669 77.2334 28.5832C75.8826 28.8263 74.838 29.0118 74.838 29.0118C73.6558 29.3084 74.565 31.0304 75.3915 31.0029C75.6832 30.9883 75.9725 30.9372 76.2513 30.8489C76.1905 31.002 76.1314 31.1568 76.073 31.314C75.3972 31.7512 74.7014 32.1568 73.988 32.5295C73.9451 31.6422 73.5868 30.7993 72.9775 30.1528C72.6376 29.8092 72.2215 29.5507 71.7628 29.3984C71.3042 29.246 70.8161 29.2041 70.3382 29.276C68.361 29.4122 65.0831 32.0207 64.4681 36.3293C64.4246 36.6341 64.4138 36.9427 64.4356 37.2498C64.0843 37.7856 63.5537 38.1788 62.9389 38.3592C61.7485 38.5318 62.1805 36.4006 62.9179 34.1899C64.6155 32.0604 66.8853 28.7841 67.374 27.2169C67.4355 27.0022 67.4615 26.7785 67.4509 26.5549C67.489 25.3499 66.6827 25.2235 66.6989 25.2251C63.6869 24.8572 61.5735 28.8003 60.3766 32.3124C59.0558 32.4898 57.7438 32.7338 56.4473 33.0425C56.2447 32.7654 55.6596 31.9737 55.5907 31.8545C54.7836 30.4567 57.2527 30.229 56.5931 31.3197C56.0907 32.2378 57.3143 31.9388 57.7276 31.2338C58.7033 29.545 56.9716 28.9454 55.5972 29.1496C52.586 29.6358 52.4912 31.8707 53.6265 33.9306C49.202 35.7174 49.2141 40.4239 53.8485 41.1427C54.3676 41.2472 54.9023 41.2474 55.4215 41.1433C55.9407 41.0391 56.434 40.8328 56.8727 40.5362C57.3114 40.2396 57.6867 39.8587 57.9768 39.4156C58.2668 38.9726 58.4658 38.4763 58.5623 37.9556C58.7916 36.249 58.2114 35.54 57.3087 34.2718C58.1856 33.9839 59.0785 33.7469 59.9828 33.5619C59.6828 34.5692 59.4484 35.5948 59.281 36.6323C58.978 38.8381 59.8912 41.6743 62.5791 40.6087C63.4923 40.1684 64.2642 39.4816 64.8076 38.6258C65.3748 39.9061 66.7249 40.6516 68.1106 40.4491V40.4701C70.681 40.2157 73.1728 37.2206 73.8284 34.3342C74.3802 34.0036 74.9142 33.6438 75.428 33.2564C74.8073 35.3893 74.5171 37.497 75.1241 38.6549C75.3778 39.1809 75.8287 39.5856 76.3789 39.7813C76.9292 39.977 77.5343 39.9479 78.0632 39.7003C78.8335 39.3594 79.5169 38.8488 80.0623 38.2068C80.7939 38.8999 81.7317 39.3353 82.7332 39.4467C83.2523 39.5512 83.787 39.5514 84.3061 39.4473C84.8253 39.3432 85.3185 39.1369 85.7572 38.8404C86.1959 38.5439 86.5712 38.1631 86.8613 37.7201C87.1514 37.2772 87.3505 36.781 87.447 36.2604C87.6763 34.5538 87.0961 33.8447 86.1934 32.5766C87.7186 32.0896 89.283 31.7353 90.8691 31.5174Z" stroke="#232634" stroke-width="0.810345" stroke-miterlimit="20" stroke-linejoin="round"/>
</svg>
