<svg fill="none" height="56" viewBox="0 0 205 56" width="205" xmlns="http://www.w3.org/2000/svg"><path d="m41.1226 12.9121s1.5086-2.5038-.5382-3.63848c0 0-3.108-1.6188-6.0644-1.52803 0 0 1.0082-4.86395 7.1409-6.61891 0 0-5.549-1.1573625-10.628-.249626 0 0-4.7 1.361606-7.429 4.084816 0 0-4.1693 5.29513-4.3209 7.26193z" fill="#686868"/><path clip-rule="evenodd" d="m41.7692.60832c.0001.000027.0002.00005-.1083.51836l.1083-.51836 2.0985.43769-2.0606.58967c-2.9381.84078-4.6267 2.41647-5.5834 3.76459-.4806.67719-.7791 1.30095-.9565 1.75155-.0098.02498-.0193.04941-.0284.07329 1.3204.06918 2.6043.40999 3.5946.74971.5909.20272 1.0865.40834 1.4355.56374.1746.07777.3129.14315.4084.18958.0478.02321.085.0417.1107.05465.0128.00647.0228.01156.0298.01517l.0083.00427.0033.0017.0003.00015c.0001.00006.0002.00012-.2453.46954l.2453-.46954.0064.00331.006.00335c.6174.34227.9951.80795 1.1875 1.32616.1878.5059.1852 1.0234.1156 1.4639-.0698.4419-.2114.8347-.3318 1.1126-.0608.1403-.1178.2547-.1603.3354-.0213.0404-.0391.0726-.0521.0956-.003.0052-.0057.01-.0082.0143-.0029.0051-.0055.0095-.0076.0132-.002.0034-.0037.0062-.005.0084l-.0017.0028-.0006.001-.0003.0005c-.0001.0002-.0002.0004-.455-.2725l.4548.2729-.1604.2662-22.7057-.7157.0426-.5524c.0473-.613.3877-1.3998.7997-2.1725.4246-.79609.9713-1.6595 1.5068-2.45148.5366-.79362 1.0676-1.52393 1.464-2.05534.1984-.26591.3634-.48251.4791-.63291.0578-.07521.1034-.1339.1345-.17395.0156-.02003.0277-.0354.0358-.04586l.0128-.01621c0-.00007.0001-.00013.4173.32702l-.4173-.32702.0197-.02502.0224-.02238c1.4314-1.42838 3.3567-2.48115 4.8953-3.17207.7742-.34765 1.4611-.60832 1.9553-.782351.2472-.087077.4467-.152629.5852-.196678.0693-.022028.1234-.038691.1607-.04999.0186-.005649.0331-.009959.0431-.012929l.0117-.003451.0033-.000973.0014-.000399c.0001-.000038.0002-.000071.1482.508445l-.1482-.508445.0271-.007853.0275-.004921c2.6041-.465403 5.3129-.3997757 7.3583-.221881 1.0254.089182 1.8901.207148 2.4995.30302.3048.047953.5461.090427.712.121091.083.015333.1472.027718.191.036365.022.004323.0388.007712.0504.010068l.0135.002748zm-10.6139.78481c-.0061.00184-.0133.00402-.0216.00653-.0329.00998-.0825.02523-.147.04575-.1292.04105-.3182.10315-.5542.18627-.4724.16637-1.1311.4163-1.873.74945-1.4849.66681-3.2621 1.64889-4.5578 2.93272-.0068.00873-.0154.01971-.0256.03286-.03.03848-.0742.09547-.1307.16889-.1129.14686-.2748.35931-.4697.62054-.39.5229-.9108 1.23929-1.4355 2.0153-.5258.77764-1.0498 1.60678-1.4497 2.35666-.2489.4668-.4341.8749-.5481 1.2067l20.8615.6575c.0115-.025.0234-.0515.0354-.0794.0985-.227.2061-.5311.2576-.857.0517-.3272.0424-.6485-.0625-.9311-.0999-.269-.2995-.54027-.7011-.76462l-.0003-.00018c-.0049-.00252-.0128-.00651-.0234-.01187-.0213-.01072-.0538-.02692-.0968-.04779-.0859-.04175-.2135-.10213-.3765-.1747-.3262-.1453-.7923-.3387-1.348-.52933-1.1196-.38411-2.566-.74401-3.952-.70145l-.6722.02063.1362-.65715.5197.10725c-.5197-.10725-.5196-.10756-.5196-.10788l.0002-.00075.0004-.00182.001-.00498c.0009-.00391.002-.00899.0034-.01521.0028-.01245.0068-.02947.0121-.05081.0105-.04269.0262-.10272.048-.17811.0437-.15072.1122-.3632.2139-.62149.2033-.51623.5401-1.21815 1.0782-1.97631.8412-1.18529 2.1679-2.49853 4.2215-3.45349-.4102-.05144-.8721-.10214-1.3737-.14576-1.9911-.17318-4.5837-.232579-7.0501.20415z" fill="#141414" fill-rule="evenodd"/><path d="m41.0392 12.0725-8.4144-2.0424h-7.3304l-6.0872 2.1937-1.8194.9077-4.9273 2.8745-2.4107 2.2239-1.22802 3.1469-3.03981 1.9516-2.63046 3.109-2.06192 1.5961-.454837 1.059.530637.9078 2.27418 1.2103 2.72901.9834h5.16992l4.8364-.6052 6.5193-2.7232 3.669-2.8064 1.9407-3.3965.9854-1.6642.9021.1135.3108.8699.5307 1.8155-.2274 2.9501-1.3645 2.7838-1.3645 1.8306-1.8952 1.1346-1.9709.9834-.9855.6808.6822.3782h1.5162l3.487-.9833 2.9564-1.8912 1.8194-1.2859 2.9564-.7565 1.7511.5447 1.1295.4387.5307 1.5129-.2274 2.6476-.8339 1.6642-1.1371 1.2103v.9077l.6823.8321.758.3026 1.7435-.2118 1.8573-.2875.9476.0454 3.7144-4.0092 2.4258-4.6899.9855-2.8745.3032-3.3284-.1516-2.7232-.8338-1.8155 1.4403-3.404.379-4.3117-.8339-1.3616-1.7435 1.7398-4.0177 2.7232-2.5016-1.8155z" fill="#72939b"/><path d="m39.0077 21.1347 2.3348 1.1498 1.7435 2.0424 1.031 2.0424.1819 2.1937v2.4509s6.1251-1.5432 4.9956-9.9397l2.5092-4.69-.3791-3.056-.0758-2.6173s-2.259 6.5281-5.9431 8.4797c0 0-14.5244-10.41624-28.3211-3.5855 0 0 9.8548-2.4585 12.4322.2572 0 0-6.4435-.4615-8.7935.5976 0 0-2.5774.9077-4.9274 3.0257-2.35 2.1181-4.6241 4.6144-7.27734 4.2362 0 0 .30322 1.8154 3.33544 1.1346 3.0322-.6808 2.8124-1.5204 2.8124-1.5204l1.9255-1.2406.4927.5673 2.0316-.1815 2.7821-1.3465.9627-.2723 1.5616.1664 1.2432-.3404 1.645-1.0061 1.266-1.3313 1.4554-.6052 1.3266.6052 1.0689 1.0968s.7581 1.8231 6.58 1.6869z" fill="#608189"/><path d="m22.5426 17.8971-.9021.2269-1.8269.6808-1.7435 1.8155-1.5844 2.1181 3.0247-.1513 2.3879-1.4524.9021-2.1332z" fill="#282828"/><path d="m37.8478 18.4796s-2.873-.9607-3.8585-.9607c0 0-2.8048-2.3147-3.8282-2.1408l1.6298 1.3087 1.4404 1.2103s-2.3045-1.7398-4.0329-1.2103c0 0-.9703.3026-1.7284 1.286 0 0-2.1984 2.4206-3.4871 1.6641-1.2887-.7564 1.1295-2.0575 1.1295-2.0575l1.3266-.8926s-2.8502-.3782-4.6241 0c0 0-4.5787.7564-4.9577 4.6143l2.0922-2.4509 3.5553-1.2784.3336.7641-.3336 1.8759.3563.6506.8794.1513 1.7359-.1513 1.4555-.8321 1.0082-.9834.8035-.8245.5534-.4766.9249.0681.902.2345 1.2812 1.286s1.2129 2.118 6.2918 1.6641z" fill="#495c60"/><path d="m44.2989 27.0501s.9855-5.8246-4.3967-6.8837c0 0-3.7145-5.2194-5.3822-5.2194l3.3127 4.0696 1.175 2.1181 1.8572.6808 1.7132 1.6491 1.2584 2.2239z" fill="#495c60"/><path d="m51.0304 11.316s-1.0916 7.2922-3.5325 9.5464c0 0 1.8572 2.4433 1.7663 3.994-.0379.6808.7959-4.8412.7959-4.8412l1.4176-2.8745.5685-3.0485z" fill="#495c60"/><path d="m.710559 27.9957s4.176901 2.6097 10.612841-2.7989l2.2741-.7942 2.2742-1.7399h2.5016l2.9564-1.059 1.2887-.7564 1.41.2874 1.9255-.4387 1.5919-1.286 1.7435-1.6642 1.6678.1513 1.2887 1.4373s.8717.9077 2.8579 1.3994c1.9936.4917 3.904.4009 3.904.4009l2.3348 1.1498 1.7435 2.0424 1.2129 2.7232v3.9638l-.9855 1.9365-1.6677 3.2527-3.0322 3.1771-1.0613-1.5205.5306-.8245 1.2811-1.2254.6823-2.9048.0758-1.6944-.6064-.9078-1.2887-.6808h-1.5162l-3.2293.9532-3.9646 2.64-5.0032 1.5507-.9097-.4539.379-.9077 2.2742-.9078 2.3652-1.8835s1.5616-2.3147 1.5691-2.4509c.0076-.1286.7126-2.7308.7126-2.7308l-.326-3.4494-.3108-.8699-.902-.1135-.3715.6733-1.5161 2.7913-2.115 2.5038-4.1541 2.4812-4.4044 1.8381-6.92104 1.2103-5.79156-1.1271-2.8503-1.3691z" fill="#bee8f1"/><path d="m45.292 14.3796c-.7126-.5522-3.8965-2.9728-5.0563-3.1392-.0151 0-.0379-.0076-.0531-.0152-.4927-.1739-8.2779-2.90472-14.2969-1.88352-.0076 0-.0152 0-.0152 0-.2426.06052-5.6172 1.30862-7.4062 2.45842 0 0-4.4877 2.7611-5.6248 3.4419 0 0-.0152.0075-.0455.0302-1.7587 1.0893-3.15352 2.6703-4.0177 4.5538-.06823.1513-.12887.2875-.18193.4085-.37903.9078-1.13709 1.8911-1.36451 2.0424-.18951.1286-.92483.7943-1.37208 1.0439-.235.1286-.46242.2723-.68226.4236-.71257.522-2.02401 1.4902-2.19078 1.702-.22742.3026-1.66773 1.5129-1.81934 1.5886-.15162.0756-1.364508.7791-1.1370907 1.5583 0 0 .6064467 2.5265 3.1838407 3.056 2.5774.5295 2.27418.9834 6.67091.8321 0 0 7.42894-.2269 10.30964-1.8911 2.7441-1.5886 4.9349-3.1015 5.1396-3.2452.0076-.0075.0227-.0151.0303-.0227.2047-.1891 2.729-2.5492 3.3203-4.3647 0-.0075.0076-.0151.0076-.0227.0606-.1437.7656-1.7247 1.0537-1.6566.3032.0757.5306.6808.5306.7565 0 .0756 1.1371 3.177.3791 4.6899-.7581 1.5129-1.0613 3.0939-3.2445 4.4555-.0076.0076-.0152.0151-.0228.0151-.1743.1665-5.7536 3.1166-5.602 2.5871.0379-.1437-.0758.8321 0 .9834.1667.3252-.3032-.2875.9855-.1513.0379.0075.7277.3555.758.3782.1744.1362 1.8497.4463 5.7537-1.2103.0076 0 .0076-.0076.0151-.0076.1289-.0605 2.2287-1.0893 3.2521-2.1937 1.0158-1.0817 3.4037-1.5431 3.6235-1.5885.0076 0 .0228 0 .0303-.0076.1971-.0151 2.2136-.121 2.8655.4539 0 0 1.1219.9682.6216 2.5341-.0076.0227-.0151.0529-.0151.0756-.0076.3102-.091 2.4434-1.2812 3.5175-.053.053-.0834.121-.0834.1967v.1437c0 .2572.326.3707.4852.174.5989-.7262 1.554-2.1256 1.7132-3.7671 0-.0076 0-.0076 0-.0151.0228-.1286.3411-2.1408-.7505-3.3889-.0075-.0076-.0151-.0151-.0227-.0227-.1289-.121-1.3342-1.1649-3.6084-.6733-.0075 0-.0227.0076-.0303.0076-.2122.0151-2.4713.2269-3.9874 1.8004-.0076.0075-.0227.0227-.0303.0302-.2729.1967-3.4871 2.5341-4.8061 2.6325-.0151 0-.0303-.0001-.0455.0075-.1743.0454-1.9861.764-2.8578.8245-.2957.0227-1.122-.8699.6064-1.2859 1.0082-.2421 2.3651-.9456 3.108-1.5886 1.0689-.9304 1.9407-2.1937 2.0392-2.3298.0076-.0076.0076-.0151.0152-.0227.1137-.2194 1.5464-3.0107 1.3645-4.1907 0-.0227-.0076-.0454 0-.0605.0227-.2799.1516-2.4207-.8187-4.1756-.0076-.0152-.0228-.0378-.0379-.053-.1213-.1361-.7353-.7489-1.3418-.2799 0 0-.758.3783-1.7814 2.8367-.9931 2.3753-3.5705 4.0092-3.7448 4.1151-.0076.0075-.0152.0075-.0152.0151-.2198.1664-4.5938 3.3889-7.4744 3.5477-.0152 0-.0228.0001-.0379.0076-.3563.0757-6.35258 1.2482-11.20415.2269 0 0-3.3961-.8094-3.77513-1.997-.00758-.0302-.02274-.0529-.0379-.0832-.10613-.1513-.515478-.7791-.05306-1.1725.51548-.4387 2.82755-2.171 2.94884-2.2617.00758 0 .00758-.0076.00758-.0076.11371-.0908 1.90273-1.5961 2.41821-1.8836 0 0 1.74353-.9833 2.34998-2.4962s1.89513-3.631 2.19833-3.8579c.2199-.1664 7.5048-5.976 16.3589-7.2619h.0304c.3259-.0151 6.3222-.26477 10.446 1.1347 3.9571 1.3389 6.724 3.3359 7.6412 4.4554.0986.1211.2805.1362.3942.0378l.1819-.1588c.1138-.0983.1289-.2648.0304-.3782-.1062-.1286-.0758-.3253.0758-.4085l4.5332-2.6324c.144-.0833.3335-.0227.3942.1361.2349.6127.6595 2.1105.0227 3.7898-.4548 1.2028-1.266 3.2452-1.9027 4.8413-.1213.3026.2956.5219.4775.2572l.235-.348c.1365-.1967.4473-.1362.4928.0983.3184 1.5054.9551 5.4616-.3639 8.2302 0 .0076-.0076.0151-.0076.0227-.0834.2345-1.4933 4.1302-3.3278 5.9683l-3.8282 3.8882c-.1062.1059-.1062.2799 0 .3858l.2198.2193c.1061.1059.2805.1059.3866 0 .8945-.9001 4.6166-4.6824 5.4125-6.0061.9021-1.5054 3.5781-6.8988 2.8807-9.1909-.0076-.0302-.0152-.0529-.0152-.0832.0076-.3555.0076-2.8972-.9931-4.9774-.0379-.0757-.0379-.1664 0-.2421.3488-.711 2.1226-4.463 1.9862-6.2709 0 0-.0607-3.34352-1.2887-4.67486-.1592-.16642-.4397-.08321-.47.14372-.1516.99095-1.0007 3.31324-5.5035 5.90784-.1062.053-.2199.0454-.3108-.0227z" fill="#141414"/><path d="m32.4959 17.0801s2.9337 1.4978 3.0853 3.3133c.1516 1.8079.4018 3.6612-1.5464 5.1211l.6368-1.6415.1516-1.9667-.3791-2.1181-.3032-1.2103z" fill="#ff8f00"/><path d="m38.2344 19.0318s-.9096-1.5129-1.7435-1.6642c0 0 2.729 4.221 1.5161 7.9729l.561-.6051.5761-1.9214z" fill="#ff8f00"/><path d="m32.0942 18.5779s-1.1371-1.2103-1.8194-1.2103c0 0-1.3645-.3026-2.1983.6051 0 0-1.3645 2.1937-2.1226 2.4207 0 0-1.1371.8321-2.9564.2269l-.1516-.6051s.6064-1.7399.1516-2.4963c0 0 .9096-.1513 1.3645-.1513 0 0-.9855-.4539-2.1984-.2269 0 0-1.5919.3782-2.4258.9077 0 0-1.3645 1.059-1.9709 1.7398-.6065.6808-1.8952 2.1937-1.8952 2.1937s-1.8951 2.0424-2.5016 2.1937c0 0-1.2129.9834-3.3354.8321 0 0 1.3569.4085 2.35.0151 0 0 .3032-.0151 1.8193-.6203 0 0 1.3418.8246 2.3045.7943 0 0 2.2438-.0378 2.7745-1.4751 0 0-1.2129.8321-2.5016.6808 0 0-1.7435-.3025-1.7435-.6808l.9854-.7564s1.8952.4539 2.9565.1513c1.0612-.3026 2.1983-.5598 3.4491-1.9819 0 0 .1137 1.0741-.1895 1.6037 0 0-.3032.7564-.8339 1.1346 0 0 1.1371-.6051 1.5162-1.7398 0 0 .144-.7111.1516-.9985 0 0 1.6677.2118 2.2741 0 0 0 1.5162-.3631 2.5774-1.6491 1.0613-1.2859 1.3645-1.2859 1.3645-1.2859s1.0613-.3026 1.7436.1513c0 0 .9855.8321 1.2129 1.4372 0 0 .758 1.8155.758 2.0424 0-.0832 0-.2269 0-.2269s.0758-2.0424-.9096-3.0258zm-10.9388 2.5568s-1.1144 1.3011-4.0708 1.1498c0 0 1.5161-1.8911 1.6677-2.1181.1517-.2269.9855-1.2859 1.971-1.5885s1.4403-.3026 1.4403-.4539c0 0 .0758 2.1937-1.0082 3.0107z" fill="#141414"/><path d="m31.7909 16.6868s2.1226 2.118 2.4258 2.8745c0 0 1.0613 2.7232-.1516 4.8413 0 0-.9097 2.6475-1.6677 3.1014 0 0 2.4258-1.6642 2.5774-4.1605 0 0 .8339-2.7988-.8339-4.7656 0 0-1.4403-1.5885-2.35-1.8911z" fill="#141414"/><path d="m37.5522 18.351s2.5774 5.4464.1516 7.2619c0 0 1.8951-.7565 1.6677-4.0092 0 0 1.7436.7564 2.5016 1.5129 0 0 2.0468 2.4963 2.0468 3.8579 0 0 .6822 2.7232-.3033 4.6899 0 0-1.3645 3.7823-2.5774 4.8413l-1.5161 1.8911s3.1839-2.2693 4.1694-4.8412c.9854-2.572 1.137-4.4631.9096-5.749 0 0-.6064-3.5553-2.2742-4.9169 0 0-2.4257-2.1181-3.2596-2.4207 0 0-.3032-1.7398-1.5161-2.118z" fill="#141414"/><path d="m20.1927 21.0742c.4605 0 .8338-.3726.8338-.8321 0-.4596-.3733-.8321-.8338-.8321-.4606 0-.8339.3725-.8339.8321 0 .4595.3733.8321.8339.8321z" fill="#ff8f00"/><path d="m33.0038.574469.9097 2.118051-7.4669 2.59461-.4927-2.21639z" fill="#3f3f3f"/><path clip-rule="evenodd" d="m33.1705.194393 1.1498 2.677177-8.0959 2.81317-.6246-2.80968zm-6.8625 3.072037.3608 1.62309 6.8379-2.37605-.6695-1.558926z" fill="#141414" fill-rule="evenodd"/><path d="m39.5989 1.33092s-3.9419 2.11805-5.0031 4.76561c0 0-.6065 1.45238-.6823 2.16344 0 0-.7581-1.78521-.6064-2.01215 0 0-6.671.98338-8.9451 2.26934 0 0 14.4031-7.03495 15.2369-7.18624z" fill="#828282"/><path d="m24.0208 8.97103c.314 0 .5686-.254.5686-.56733s-.2546-.56734-.5686-.56734-.5685.25401-.5685.56734.2545.56733.5685.56733z" fill="#ff8f00"/><path clip-rule="evenodd" d="m24.0208 7.91201c-.2721 0-.4927.22013-.4927.49169 0 .27155.2206.49169.4927.49169.2722 0 .4928-.22014.4928-.49169 0-.27156-.2206-.49169-.4928-.49169zm-.6443.49169c0-.35511.2885-.64298.6443-.64298.3559 0 .6444.28787.6444.64298 0 .3551-.2885.64298-.6444.64298-.3558 0-.6443-.28788-.6443-.64298z" fill="#141414" fill-rule="evenodd"/><path d="m31.9805 8.59281c.314 0 .5685-.25401.5685-.56734s-.2545-.56733-.5685-.56733-.5686.254-.5686.56733.2546.56734.5686.56734z" fill="#ff8f00"/><path clip-rule="evenodd" d="m31.9805 7.53378c-.2722 0-.4928.22014-.4928.49169 0 .27156.2206.49169.4928.49169.2721 0 .4927-.22013.4927-.49169 0-.27155-.2206-.49169-.4927-.49169zm-.6444.49169c0-.35511.2885-.64298.6444-.64298.3558 0 .6443.28787.6443.64298s-.2885.64298-.6443.64298c-.3559 0-.6444-.28787-.6444-.64298z" fill="#141414" fill-rule="evenodd"/><path d="m27.7353 8.59281c.314 0 .5686-.25401.5686-.56734s-.2546-.56733-.5686-.56733-.5685.254-.5685.56733.2545.56734.5685.56734z" fill="#ff8f00"/><path clip-rule="evenodd" d="m27.7353 7.53378c-.2721 0-.4927.22014-.4927.49169 0 .27156.2206.49169.4927.49169.2722 0 .4928-.22013.4928-.49169 0-.27155-.2206-.49169-.4928-.49169zm-.6443.49169c0-.35511.2885-.64298.6443-.64298.3559 0 .6444.28787.6444.64298s-.2885.64298-.6444.64298c-.3558 0-.6443-.28787-.6443-.64298z" fill="#141414" fill-rule="evenodd"/><path d="m43.7683 40.2123-1.1371-1.4373s-3.7145-.6581-4.321-1.997c0 0-.2198-.2723-3.4794 1.6188 0 0-1.2963 1.2103-3.9495.227 0 0-4.5484-1.9668-7.2016-1.5129 0 0-2.8275.2647-4.3361 1.3767 0 0-2.8654 2.7081-1.9558 3.0107 0 0 .4549.3782 1.6678-.1513 1.2129-.5296 3.8282.2799 3.8282.2799s4.5104 1.4599 5.4201 2.9728c0 0 2.1225 2.6854 1.2129 6.0364 0 0-.7581 2.6627-3.8661 3.5705 0 0-1.7436.5295-.6065 1.2103 0 0 1.0613.5295 7.2016-1.7398 6.1402-2.2694 6.4435-5.0077 6.4435-5.0077s1.2129-2.2694 0-5.5523z" fill="#686868"/><path clip-rule="evenodd" d="m38.72 36.4416c.0017.0021.0035.0042-.4098.3364l.4133-.3322.0424.0526.0279.0615c.0816.1803.3073.4026.7129.6365.3896.2247.8729.4192 1.3582.5796.4821.1592.9487.2792 1.2961.3594.1732.04.3156.0699.414.0896.0491.0099.0872.0172.1126.022.0127.0024.0223.0041.0284.0052l.0066.0012.0013.0003.1987.0352 1.6436 2.0774-5.2328 2.9927c.4947 1.553.4851 2.8787.3351 3.8463-.0816.5261-.2045.9451-.3091 1.2367-.0523.1459-.1002.2601-.1363.3403-.0089.0198-.0171.0376-.0245.0532-.0052.0252-.0118.0542-.0202.0869-.0267.1045-.071.2458-.144.4173-.1464.3438-.406.8043-.8638 1.3299-.9155 1.0511-2.6092 2.3467-5.7405 3.504-3.0877 1.1411-4.9267 1.5895-6.0106 1.7483-.5429.0795-.9077.0881-1.152.0704-.1228-.0089-.2181-.0247-.2922-.0429-.0371-.0091-.0693-.0188-.0971-.0288-.0139-.005-.0267-.01-.0386-.0151-.0031-.0013-.0061-.0026-.0091-.0039-.0027-.0012-.0054-.0024-.008-.0036-.0027-.0013-.0053-.0025-.0079-.0038l-.0039-.0018-.0019-.001c-.0009-.0004-.0019-.0009.2354-.4745l-.2373.4736-.0182-.0091-.0175-.0105c-.3289-.1969-.6532-.5005-.6424-.9433.0099-.4068.3056-.6702.4761-.7964.198-.1466.4265-.2536.5879-.3204.084-.0348.1575-.0617.2105-.0802.0267-.0092.0485-.0165.0643-.0216.0079-.0026.0144-.0046.0192-.0061l.0059-.0019.0021-.0006.0011-.0003c.0001-.0001.0003-.0001.1548.5065l-.1548-.5065.003-.0009.0027-.0008c1.422-.4153 2.2978-1.2271 2.8211-1.9325.2629-.3543.4366-.6818.5436-.9178.0534-.1178.0899-.2121.1123-.2745.0112-.0312.0189-.0543.0234-.0684.002-.0062.0033-.0106.0041-.0132.4147-1.5335.1396-2.922-.2504-3.9419-.1949-.5098-.4165-.9214-.5881-1.2039-.0857-.141-.1585-.2491-.2086-.3203-.025-.0356-.0444-.0619-.0568-.0785-.0061-.0083-.0106-.0141-.0131-.0174l-.0019-.0024-.0002-.0003-.0002-.0002-.0002-.0003-.0203-.0257-.0174-.029c-.161-.2677-.5244-.5881-1.0605-.9284-.5204-.3304-1.1438-.6427-1.7524-.9144-.6065-.2708-1.187-.496-1.6165-.6538-.2145-.0787-.3906-.1404-.5125-.1822-.061-.0208-.1083-.0368-.1402-.0473-.0159-.0053-.0279-.0093-.0358-.0119l-.0074-.0024-.002-.0006c-.0041-.0013-.0106-.0032-.0194-.0059-.0176-.0052-.0443-.0131-.0792-.023-.0697-.0199-.1719-.0482-.2987-.0806-.2542-.0651-.6041-.1462-.9884-.2112-.3862-.0653-.7958-.1123-1.1723-.1136-.3852-.0013-.6905.0459-.8953.1353-.671.2929-1.1812.3559-1.558.3156-.1877-.0201-.3358-.0652-.4471-.1144-.0485-.0214-.0893-.0432-.1227-.0634-.1074-.0476-.212-.1201-.2963-.2262-.1055-.1327-.1508-.2819-.1623-.4172-.0207-.2459.0666-.4812.1482-.653.1719-.3621.4832-.7728.7884-1.1349.3135-.3718.6536-.7305.9129-.9941.1303-.1324.2413-.242.3201-.3187.0394-.0385.0708-.0687.0925-.0896.0109-.0104.0194-.0185.0252-.024l.0068-.0065.0026-.0025c.0001 0 .0001-.0001.365.3844l-.365-.3844.0237-.0223.026-.0192c.8457-.6234 2.019-.9867 2.9303-1.1955.4647-.1065.8797-.1768 1.1788-.2205.1498-.0219.2712-.0373.356-.0472.0423-.005.0756-.0086.0987-.011.0065-.0007.0122-.0013.0171-.0018 1.4565-.2427 3.3521.1699 4.8172.6038.7501.2221 1.4144.4584 1.8911.639.2386.0904.4309.1672.5641.2215.0666.0273.1185.0489.1542.0639.0178.0075.0315.0133.041.0174l.0015.0006c1.2204.4498 2.09.3851 2.6322.2365.2757-.0755.476-.1753.6022-.2513.0631-.038.1077-.07.1337-.09.013-.0099.0213-.0168.025-.02.0003-.0002.0005-.0004.0008-.0006l.0399-.0373.0519-.0301c1.6372-.9498 2.5396-1.3736 3.047-1.5583.2504-.0912.4365-.1362.5841-.1445.0758-.0042.1635-.0002.2536.0271.0465.0141.0956.035.1438.0657.0241.0154.0475.0328.0697.0526.0111.0098.0218.0201.032.0308.0052.0054.0102.0109.015.0164.0025.0028.0049.0056.0073.0084zm-8.0497 2.668-.0022-.0009-.0086-.0037c-.0079-.0034-.02-.0085-.0362-.0153-.0323-.0136-.0807-.0338-.1436-.0595-.1259-.0514-.3097-.1248-.5389-.2116-.4591-.174-1.0977-.4011-1.8163-.6139-1.466-.4341-3.161-.7762-4.3551-.5719l-.02.0034-.0201.0019h-.0006l-.0047.0005c-.0044.0004-.0114.0011-.0209.0021-.0191.002-.048.0052-.0859.0096-.0758.0089-.1871.0229-.3259.0432-.2782.0407-.6644.1061-1.0952.2048-.8681.1989-1.8485.5182-2.5112.9962-.0018.0017-.0036.0035-.0056.0054-.0198.019-.0491.0472-.0862.0834-.0744.0725-.1801.1769-.3043.3031-.2495.2536-.5689.5909-.8581.9339-.283.3357-.509.6444-.6246.8723.0055.0007.0113.0014.0173.0021.1539.0164.4775.0038 1.0195-.2329.4016-.1753.878-.2255 1.3243-.224.455.0016.9266.0576 1.3459.1285.4212.0712.8009.1593 1.0749.2294.1374.0352.249.066.327.0883.039.0112.0697.0202.091.0265.0106.0032.019.0057.0248.0075l.007.0021.003.0009c.0001.0001.0001.0001-.157.5059.1637-.5037.1638-.5037.1639-.5037l.004.0014.0107.0035c.0093.003.0227.0074.04.0132.0347.0115.0851.0285.1493.0504.1283.044.3117.1082.5343.19.4446.1632 1.0486.3975 1.6834.6809.6327.2824 1.3075.6187 1.8886.9876.5549.3522 1.0866.7722 1.384 1.2495.0033.0043.0068.009.0107.0142.0183.0244.0437.0591.0749.1035.0624.0887.1484.2166.2475.3797.1979.3257.4501.7948.6721 1.3754.4434 1.1593.7745 2.7868.2817 4.6021l-.0008.0031-.0009.0031-.5104-.1447c.5104.1447.5103.145.5103.1453l-.0006.0019-.001.0034c-.0008.0027-.0017.0059-.0029.0098-.0024.0078-.0055.0181-.0096.0308-.0081.0254-.0198.0603-.0354.1037-.0311.0868-.0782.2076-.1444.3537-.1322.2916-.3423.6864-.6575 1.1113-.6322.8522-1.6882 1.8247-3.3717 2.3175-.0018.0006-.0048.0015-.0089.0028-.0091.003-.0237.0078-.0425.0144-.0378.0131-.0917.0329-.1533.0584-.1.0413-.2036.091-.2897.144.0105.001.0221.002.0349.0029.1466.0107.4309.0098.9208-.0619.9818-.1438 2.7436-.5654 5.7962-1.6936 3.0089-1.1121 4.537-2.3203 5.3081-3.2057.3856-.4426.5855-.8086.6879-1.0491.0514-.1207.0787-.211.0926-.2652.0069-.0271.0105-.0452.012-.0537.0002-.0012.0004-.0022.0006-.003l.0103-.0938.0469-.0877.0004-.0007.0002-.0004c.001-.0019.003-.0058.0059-.0118.006-.0121.0157-.0324.0285-.0608.0255-.0568.0629-.1454.1054-.2636.0848-.2365.1894-.5901.2594-1.0416.1397-.9007.1431-2.1966-.4283-3.7432l-.1552-.42 4.9342-2.8219-.6337-.8009c-.1049-.0213-.2466-.0513-.415-.0902-.3681-.085-.868-.2133-1.3904-.3859-.5191-.1715-1.0781-.3926-1.5556-.6679-.3418-.1971-.6862-.4469-.9318-.7621-.0212.0072-.0442.0153-.0692.0244-.4138.1506-1.2404.531-2.8358 1.4549-.013.0106-.0282.0227-.0456.0361-.0552.0424-.1326.0972-.2325.1573-.1997.1202-.4893.2615-.8693.3657-.7675.2103-1.8687.2591-3.295-.2696l-.0132-.0049zm-5.5053 15.7375c.0002 0 .0019.002.0043.006-.0034-.0039-.0045-.006-.0043-.006zm.0008.1987c-.0002 0 .0006-.0013.0027-.0039-.0016.0026-.0026.0039-.0027.0039zm-2.282-13.4189.1639-.5037-.0035-.0011-.0034-.0011z" fill="#141414" fill-rule="evenodd"/><path d="m30.8509 39.0701-.523 2.2466-7.5578-2.3072.9096-2.0726z" fill="#3f3f3f"/><path clip-rule="evenodd" d="m23.5095 36.5705 7.7013 2.2909-.661 2.8395-8.1941-2.5014zm.3405.7328-.6656 1.5163 6.9216 2.113.3851-1.6539z" fill="#141414" fill-rule="evenodd"/><path d="m35.4296 46.4908-2.1225 2.7232-.8112-2.7232-.1743 1.1347.1516 3.0258h.4548l1.5161-.9078.9855-1.528.4549-1.1195z" fill="#828282"/><path d="m32.4959 46.4908h-1.2432s.9173 3.9335.1592 5.0682c0 0 4.4726-.3782 5.079-5.0682h-1.0613s.1516 2.4963-2.5774 3.7822z" fill="#141414"/><path d="m34.103 40.5527-1.0234 3.5175-8.7176-3.1771 7.6867 1.4221z" fill="#828282"/><path d="m24.7789 39.002c.314 0 .5685-.254.5685-.5674 0-.3133-.2545-.5673-.5685-.5673s-.5685.254-.5685.5673c0 .3134.2545.5674.5685.5674z" fill="#ff8f00"/><path clip-rule="evenodd" d="m24.7789 37.943c-.2721 0-.4927.2201-.4927.4916 0 .2716.2206.4917.4927.4917s.4927-.2201.4927-.4917c0-.2715-.2206-.4916-.4927-.4916zm-.6443.4916c0-.3551.2884-.6429.6443-.6429s.6444.2878.6444.6429c0 .3552-.2885.643-.6444.643s-.6443-.2878-.6443-.643z" fill="#141414" fill-rule="evenodd"/><path d="m20.9128 40.1367c.314 0 .5685-.2541.5685-.5674s-.2545-.5673-.5685-.5673-.5685.254-.5685.5673.2545.5674.5685.5674z" fill="#ff8f00"/><path clip-rule="evenodd" d="m20.9128 39.0776c-.2721 0-.4927.2202-.4927.4917 0 .2716.2206.4917.4927.4917s.4927-.2201.4927-.4917c0-.2715-.2206-.4917-.4927-.4917zm-.6443.4917c0-.3551.2884-.643.6443-.643s.6444.2879.6444.643-.2885.643-.6444.643-.6443-.2879-.6443-.643z" fill="#141414" fill-rule="evenodd"/><path d="m30.4643 52.9963c.314 0 .5686-.2541.5686-.5674s-.2546-.5673-.5686-.5673-.5685.254-.5685.5673.2545.5674.5685.5674z" fill="#ff8f00"/><path clip-rule="evenodd" d="m30.4643 51.9372c-.2721 0-.4927.2202-.4927.4917 0 .2716.2206.4917.4927.4917.2722 0 .4928-.2201.4928-.4917 0-.2715-.2206-.4917-.4928-.4917zm-.6443.4917c0-.3551.2885-.643.6443-.643.3559 0 .6444.2879.6444.643s-.2885.643-.6444.643c-.3558 0-.6443-.2879-.6443-.643z" fill="#141414" fill-rule="evenodd"/><path d="m40.7739 40.6662c.314 0 .5686-.254.5686-.5674 0-.3133-.2546-.5673-.5686-.5673s-.5685.254-.5685.5673c0 .3134.2545.5674.5685.5674z" fill="#ff8f00"/><path clip-rule="evenodd" d="m40.7739 39.6071c-.2721 0-.4927.2202-.4927.4917 0 .2716.2206.4917.4927.4917.2722 0 .4928-.2201.4928-.4917 0-.2715-.2206-.4917-.4928-.4917zm-.6443.4917c0-.3551.2885-.643.6443-.643.3559 0 .6444.2879.6444.643s-.2885.643-.6444.643c-.3558 0-.6443-.2879-.6443-.643z" fill="#141414" fill-rule="evenodd"/><path d="m37.8175 39.2289c.314 0 .5685-.254.5685-.5673 0-.3134-.2545-.5674-.5685-.5674s-.5685.254-.5685.5674c0 .3133.2545.5673.5685.5673z" fill="#ff8f00"/><path clip-rule="evenodd" d="m37.8175 38.1699c-.2721 0-.4927.2201-.4927.4917 0 .2715.2206.4917.4927.4917s.4927-.2202.4927-.4917c0-.2716-.2206-.4917-.4927-.4917zm-.6443.4917c0-.3551.2884-.643.6443-.643s.6443.2879.6443.643-.2884.643-.6443.643-.6443-.2879-.6443-.643z" fill="#141414" fill-rule="evenodd"/><path d="m29.2514 40.3636c.314 0 .5686-.254.5686-.5674 0-.3133-.2546-.5673-.5686-.5673s-.5685.254-.5685.5673c0 .3134.2545.5674.5685.5674z" fill="#ff8f00"/><path clip-rule="evenodd" d="m29.2514 39.3046c-.2721 0-.4927.2201-.4927.4916 0 .2716.2206.4917.4927.4917.2722 0 .4928-.2201.4928-.4917 0-.2715-.2206-.4916-.4928-.4916zm-.6443.4916c0-.3551.2885-.6429.6443-.6429.3559 0 .6444.2878.6444.6429 0 .3552-.2885.643-.6444.643-.3558 0-.6443-.2878-.6443-.643z" fill="#141414" fill-rule="evenodd"/><path d="m19.3588 30.8097 2.4258 3.9562-.5686-5.0909z" fill="#fff"/><path clip-rule="evenodd" d="m21.4024 29.295.7213 6.4588-3.0776-5.0192zm-1.731 1.5897 1.774 2.8932-.4158-3.723z" fill="#141414" fill-rule="evenodd"/><path d="m24.3241 33.1395-3.2597-3.1771.7581 4.3874z" fill="#fff"/><path clip-rule="evenodd" d="m20.7782 29.4192 3.8712 3.7731-2.9709 1.4374zm.5724 1.0865.6158 3.5643 2.0323-.9832z" fill="#141414" fill-rule="evenodd"/><path d="m26.5982 32.0048-3.2596-3.177.7581 4.3874z" fill="#fff"/><path clip-rule="evenodd" d="m23.0524 28.2845 3.8712 3.7731-2.9709 1.4374zm.5724 1.0865.6158 3.5643 2.0323-.9832z" fill="#141414" fill-rule="evenodd"/><path d="m28.4176 30.7945-3.2597-3.177 1.0613 4.6899z" fill="#fff"/><path clip-rule="evenodd" d="m24.8319 27.0353 3.8828 3.7845-2.6186 1.8021zm.652 1.1643.8584 3.7934 1.7782-1.2237z" fill="#141414" fill-rule="evenodd"/><path d="m30.0095 28.8278-3.0322-3.0258 1.4403 4.8412z" fill="#fff"/><path clip-rule="evenodd" d="m26.583 25.1411 3.6859 3.6781-1.9351 2.2068zm.7886 1.3218 1.1298 3.7976 1.2487-1.4241z" fill="#141414" fill-rule="evenodd"/><path d="m31.1466 26.0289-2.5016-2.4963 1.6677 4.9169z" fill="#fff"/><path clip-rule="evenodd" d="m28.2054 22.8266 3.1589 3.1521-1.053 3.0566zm.8792 1.4121 1.2295 3.6251.6148-1.7847z" fill="#141414" fill-rule="evenodd"/><path d="m21.0644 29.8111 3.1081 3.7066-.9855-4.9774z" fill="#fff"/><path clip-rule="evenodd" d="m23.3207 28.2397 1.181 5.9654-3.7249-4.4423zm-1.9687 1.6198 2.4912 2.9709-.7899-3.9895z" fill="#141414" fill-rule="evenodd"/><path d="m23.1112 28.6008 3.108 3.9336-.9855-5.2044z" fill="#fff"/><path clip-rule="evenodd" d="m25.3695 27.0282 1.1794 6.2289-3.7199-4.7079zm-1.9762 1.6243 2.4962 3.1591-.7915-4.1798z" fill="#141414" fill-rule="evenodd"/><path d="m25.3095 27.3905 3.1081 3.631-1.3645-5.5221z" fill="#ff8f00"/><path clip-rule="evenodd" d="m27.1526 25.1122 1.6405 6.6392-3.7368-4.3655zm-1.5898 2.283 2.4792 2.8964-1.0884-4.405z" fill="#141414" fill-rule="evenodd"/><path d="m27.1289 25.7263 3.1838 3.2528-1.6677-5.976z" fill="#fff"/><path clip-rule="evenodd" d="m28.7037 22.5084 1.9899 7.1304-3.799-3.8811zm-1.3406 3.1866 2.5688 2.6243-1.3456-4.8214z" fill="#141414" fill-rule="evenodd"/><path d="m28.645 23.0031 2.8048 3.4797-1.5919-5.5977z" fill="#fff"/><path clip-rule="evenodd" d="m29.9171 20.4005 1.9697 6.9261-3.4704-4.3054zm-1.0435 2.5845 2.1392 2.6539-1.2141-4.2693z" fill="#141414" fill-rule="evenodd"/><path d="m76.1064 16.9845-6.2346 21.1521h-7.2127l-.0305-15.6434-4.6149 15.6434h-7.0599l-.2139-21.1521h5.5012l-.6724 16.9826 4.9205-16.9826h5.8679l-.1222 16.9826 4.4926-16.9826z" fill="#000"/><path d="m83.4657 16.9845-2.9645 21.1521h-5.5623l2.9645-21.1521z" fill="#000"/><path d="m100.307 38.1366h-7.0297l-3.2396-16.4956c.0612 1.0348.0917 2.1203.0917 3.2565 0 2.1507-.1528 4.2812-.4584 6.3913l-.978 6.8478h-4.8899l2.9645-21.1521h6.9376l3.3313 16.4956c-.0815-1.1159-.1223-2.3029-.1223-3.5609 0-1.7855.1325-3.642.3973-5.5695l1.0697-7.3652h4.8898z" fill="#000"/><path d="m113.554 16.4366c2.995 0 5.44.9435 7.335 2.8305l-2.873 2.9217c-.652-.5884-1.324-1.0145-2.017-1.2782-.693-.2841-1.447-.4261-2.262-.4261-.876 0-1.568.1826-2.078.5478-.509.3652-.764.8623-.764 1.4913 0 .5478.234.9841.703 1.3087s1.375.7101 2.72 1.1565c1.834.6087 3.189 1.3899 4.065 2.3435.896.9536 1.345 2.1913 1.345 3.713 0 1.2986-.316 2.5363-.948 3.7131-.611 1.1565-1.609 2.1101-2.995 2.8608-1.385.7305-3.168 1.0957-5.348 1.0957-3.24 0-5.899-1.0551-7.977-3.1652l3.179-3.1652c1.344 1.3797 2.984 2.0695 4.92 2.0695 1.039 0 1.844-.213 2.414-.6391.591-.4261.887-1.0246.887-1.7957 0-.6086-.235-1.1159-.703-1.5217-.469-.4261-1.294-.842-2.476-1.2478-2.017-.6696-3.463-1.4913-4.34-2.4652-.876-.9739-1.314-2.1609-1.314-3.5609 0-1.1768.306-2.2826.917-3.3174.632-1.0348 1.589-1.8667 2.873-2.4956 1.284-.6493 2.863-.974 4.737-.974z" fill="#000"/><path d="m126.553 38.1366h-5.562l2.964-21.1521h5.563l-1.131 8.0043h5.471l1.13-8.0043h5.563l-2.965 21.1521h-5.562l1.192-8.7956h-5.41z" fill="#000"/><path d="m151.809 38.1366-.336-4.3217h-5.531l-1.498 4.3217h-5.807l9.138-21.1521h6.724l3.178 21.1521zm-4.492-8.3391h3.881l-.703-9.1609z" fill="#000"/><path d="m176.9 22.7062c0 1.4609-.336 2.7391-1.009 3.8348-.652 1.0956-1.874 2.0594-3.667 2.8913l3.881 8.7043h-6.051l-2.995-7.7913h-1.651l-1.1 7.7913h-5.562l2.964-21.1521h7.274c2.567 0 4.523.5174 5.868 1.5521 1.365 1.0145 2.048 2.4044 2.048 4.1696zm-10.972 3.8044h1.895c1.161 0 2.007-.3348 2.536-1.0044.53-.6898.795-1.5116.795-2.4652 0-.7304-.234-1.2681-.703-1.6131-.468-.3449-1.182-.5173-2.139-.5173h-1.589z" fill="#000"/><path d="m177.4 38.1366 2.964-21.1521h5.593l-2.965 21.1521zm11.98 0-4.646-11.2608 7.519-9.8913h5.868l-7.671 9.7391 5.256 11.413z" fill="#000"/><path d="m174.955 35.6508 2.964-21.1522h5.593l-2.965 21.1522zm11.98 0-4.646-11.2609 7.519-9.8913h5.868l-7.671 9.7392 5.256 11.413z" fill="#fff"/><path d="m174.455 20.2204c0 1.4609-.336 2.7391-1.009 3.8348-.652 1.0956-1.874 2.0594-3.667 2.8913l3.881 8.7043h-6.051l-2.995-7.7913h-1.651l-1.1 7.7913h-5.562l2.964-21.1522h7.274c2.567 0 4.523.5174 5.868 1.5522 1.365 1.0145 2.048 2.4044 2.048 4.1696zm-10.972 3.8043h1.895c1.161 0 2.007-.3348 2.537-1.0043.529-.6899.794-1.5116.794-2.4652 0-.7305-.234-1.2681-.703-1.6131-.468-.3449-1.182-.5174-2.139-.5174h-1.589z" fill="#fff"/><path d="m149.365 35.6508-.337-4.3217h-5.531l-1.498 4.3217h-5.807l9.138-21.1522h6.724l3.178 21.1522zm-4.493-8.3391h3.881l-.703-9.1609z" fill="#fff"/><path d="m124.108 35.6508h-5.562l2.964-21.1522h5.563l-1.131 8.0044h5.471l1.13-8.0044h5.563l-2.965 21.1522h-5.562l1.192-8.7956h-5.41z" fill="#fff"/><path d="m111.109 13.9508c2.995 0 5.44.9435 7.335 2.8304l-2.873 2.9218c-.652-.5884-1.324-1.0145-2.017-1.2783-.693-.284-1.447-.4261-2.262-.4261-.876 0-1.568.1826-2.078.5479-.509.3652-.764.8623-.764 1.4913 0 .5478.235.984.703 1.3087.469.3246 1.375.7101 2.72 1.1565 1.834.6087 3.189 1.3898 4.065 2.3435.896.9536 1.345 2.1913 1.345 3.713 0 1.2986-.316 2.5362-.948 3.7131-.611 1.1565-1.609 2.1101-2.995 2.8608-1.385.7305-3.168 1.0957-5.348 1.0957-3.24 0-5.899-1.0551-7.977-3.1652l3.179-3.1653c1.344 1.3797 2.984 2.0696 4.92 2.0696 1.039 0 1.844-.213 2.414-.6391.591-.4261.887-1.0247.887-1.7957 0-.6087-.235-1.1159-.703-1.5217-.469-.4261-1.294-.842-2.476-1.2478-2.017-.6696-3.463-1.4913-4.34-2.4653-.876-.9739-1.314-2.1608-1.314-3.5608 0-1.1768.306-2.2826.917-3.3174.632-1.0348 1.589-1.8667 2.873-2.4957 1.284-.6493 2.863-.9739 4.737-.9739z" fill="#fff"/><path d="m97.8616 35.6508h-7.0292l-3.2396-16.4956c.0611 1.0347.0917 2.1203.0917 3.2565 0 2.1507-.1528 4.2811-.4585 6.3913l-.978 6.8478h-4.8899l2.9645-21.1522h6.9376l3.3313 16.4957c-.0815-1.1159-.1223-2.3029-.1223-3.5609 0-1.7855.1325-3.642.3974-5.5695l1.0696-7.3653h4.8898z" fill="#fff"/><path d="m81.0207 14.4986-2.9645 21.1522h-5.5623l2.9645-21.1522z" fill="#fff"/><path d="m73.6615 14.4986-6.2347 21.1522h-7.2126l-.0306-15.6435-4.6149 15.6435h-7.0598l-.214-21.1522h5.5012l-.6724 16.9827 4.9205-16.9827h5.868l-.1223 16.9827 4.4926-16.9827z" fill="#fff"/><g clip-rule="evenodd" fill-rule="evenodd"><path d="m173.901 36.5639 3.22-22.9783h7.445l-1.082 7.7204 5.868-7.7204h8.208l-8.489 10.7776 5.619 12.2007h-8.37l-3.713-9.0018-1.262 9.0018zm9.611-22.0653h-5.593l-2.964 21.1522h5.592zm3.423 21.1522h6.326l-5.256-11.413 7.671-9.7392h-5.868l-7.519 9.8913z" fill="#000"/><path d="m159.265 14.4986h7.274c2.567 0 4.523.5174 5.868 1.5522 1.365 1.0145 2.048 2.4044 2.048 4.1696 0 1.4609-.336 2.7391-1.009 3.8348-.652 1.0956-1.874 2.0594-3.667 2.8913l3.881 8.7043h-6.051l-2.995-7.7913h-1.651l-1.1 7.7913h-5.562zm4.495 14.274-1.1 7.7913h-7.413l3.221-22.9783h8.071c2.668 0 4.854.5341 6.423 1.7381 1.603 1.1945 2.41 2.8597 2.41 4.8967 0 1.603-.37 3.0489-1.14 4.3056-.668 1.12-1.787 2.0567-3.26 2.8464l4.098 9.1915h-8.092l-2.995-7.7913zm.778-5.6609h.84c.983 0 1.513-.2761 1.812-.6515.393-.5137.602-1.1338.602-1.905 0-.524-.156-.7501-.331-.8788-.238-.1753-.717-.3386-1.594-.3386h-.793zm-1.055.913h1.895c1.161 0 2.007-.3348 2.537-1.0043.529-.6899.794-1.5116.794-2.4652 0-.7305-.234-1.2681-.703-1.6131-.468-.3449-1.182-.5174-2.139-.5174h-1.589z" fill="#000"/><path d="m148.516 36.5639-.336-4.3218h-4.03l-1.497 4.3218h-7.853l9.927-22.9783h8.117l3.453 22.9783zm-5.019-5.2348h5.531l.337 4.3217h5.867l-3.178-21.1522h-6.724l-9.138 21.1522h5.807zm5.256-4.0174-.703-9.1609-3.178 9.1609zm-2.594-.913h1.605l-.291-3.7881z" fill="#000"/><path d="m124.904 36.5639h-7.412l3.221-22.9783h7.415l-1.131 8.0044h3.619l1.13-8.0044h7.413l-3.22 22.9783h-7.409l1.192-8.7957h-3.565zm.457-9.7087h5.41l-1.192 8.7956h5.562l2.965-21.1522h-5.563l-1.13 8.0044h-5.471l1.131-8.0044h-5.563l-2.964 21.1522h5.562z" fill="#000"/><path d="m119.734 16.7745-4.125 4.1949-.654-.5899c-.583-.5262-1.16-.8854-1.728-1.1019l-.011-.0042-.011-.0044c-.573-.2348-1.207-.3573-1.913-.3573-.757 0-1.24.1589-1.542.3757-.268.1924-.383.4128-.383.7504 0 .2358.076.3975.31.5591.348.241 1.137.5922 2.486 1.0399 1.913.6349 3.427 1.4804 4.448 2.5895 1.079 1.1499 1.589 2.6225 1.589 4.3332 0 1.452-.355 2.8362-1.055 4.1408-.711 1.3447-1.856 2.4164-3.367 3.2351l-.004.0025-.005.0025c-1.559.8219-3.503 1.2017-5.777 1.2017-3.461 0-6.364-1.1368-8.6315-3.4389l-.6358-.6456 4.4783-4.4599.648.665c1.172 1.2021 2.575 1.7925 4.263 1.7925.928 0 1.51-.1922 1.864-.4566l.006-.0046.007-.0044c.336-.2424.507-.5569.507-1.0562 0-.3396-.116-.5972-.388-.8327l-.008-.0073-.008-.0074c-.324-.2945-.999-.6611-2.152-1.0575-2.082-.6916-3.7-1.5776-4.728-2.7206-1.038-1.1539-1.549-2.5626-1.549-4.1701 0-1.343.351-2.6082 1.044-3.7804l.003-.0056.004-.0057c.736-1.2064 1.836-2.1463 3.246-2.8381 1.444-.7291 3.173-1.0702 5.147-1.0702 3.207 0 5.896 1.0188 7.983 3.0978zm-13.362-1.8498c-1.284.629-2.241 1.4609-2.873 2.4957-.611 1.0348-.917 2.1406-.917 3.3174 0 1.4.438 2.5869 1.314 3.5608.877.974 2.323 1.7957 4.34 2.4653 1.182.4058 2.007.8217 2.476 1.2478.468.4058.703.913.703 1.5217 0 .771-.296 1.3696-.887 1.7957-.57.4261-1.375.6391-2.414.6391-1.856 0-3.44-.6341-4.753-1.9024-.056-.0546-.112-.1103-.167-.1672l-3.179 3.1653c.052.0524.104.1042.156.1553.167.1633.338.32.513.47 1.97 1.6933 4.406 2.5399 7.308 2.5399 2.18 0 3.963-.3652 5.348-1.0957 1.386-.7507 2.384-1.7043 2.995-2.8608.632-1.1769.948-2.4145.948-3.7131 0-1.5217-.449-2.7594-1.345-3.713-.876-.9537-2.231-1.7348-4.065-2.3435-1.345-.4464-2.251-.8319-2.72-1.1565-.468-.3247-.703-.7609-.703-1.3087 0-.629.255-1.1261.764-1.4913.51-.3653 1.202-.5479 2.078-.5479.815 0 1.569.1421 2.262.4261.693.2638 1.365.6899 2.017 1.2783l2.873-2.9218c-.05-.0501-.101-.0995-.152-.1483-.171-.1632-.346-.3189-.526-.4672-1.788-1.4766-4.007-2.2149-6.657-2.2149-1.874 0-3.453.3246-4.737.9739z" fill="#000"/><path d="m98.6594 36.5639h-8.582l-1.7671-8.9982c-.052.4565-.1108.9121-.1767 1.3667l-.0001.0009-1.0898 7.6306h-6.7393l3.2204-22.9783h8.4862l1.8309 9.0662c.0355-.3023.0743-.6062.1162-.9117l.0005-.0035 1.1838-8.151h6.7376zm-4.1589-10.6509c-.0208.5124-.0313 1.0192-.0313 1.5204 0 1.258.0408 2.445.1223 3.5609l-3.3313-16.4957h-6.9376l-2.9645 21.1522h4.8899l.978-6.8478c.2208-1.5241.3618-3.0588.4231-4.604.0236-.5942.0354-1.19.0354-1.7873 0-1.1362-.0306-2.2218-.0917-3.2565l3.2396 16.4956h7.0292l2.9644-21.1522h-4.8898l-1.0696 7.3653c-.1906 1.3864-.3126 2.7361-.3661 4.0491z" fill="#000"/><path d="m82.0744 13.5856-3.2204 22.9783h-7.4138l3.2204-22.9783zm-1.0537.913h-5.5623l-2.9645 21.1522h5.5623z" fill="#000"/><path d="m74.8861 13.5856-6.7729 22.9783h-5.2923.0155-3.5373l-.0201-10.251-3.024 10.251h-4.3451.095-4.4037l-.2324-22.9783h7.381l-.4122 10.4127 3.0169-10.4127h7.4811l-.0766 10.6484 2.8169-10.6484zm-11.0962 17.8957.1223-16.9827h-5.868l-4.9205 16.9827.6724-16.9827h-5.5012l.214 21.1522h7.0598l4.6149-15.6435.0306 15.6435h7.2126l6.2347-21.1522h-5.379z" fill="#000"/></g></svg>
