<svg width="156" height="59" viewBox="0 0 156 59" fill="none" xmlns="http://www.w3.org/2000/svg">
<path d="M21.1182 28.3105C18.7572 38.0054 24.3301 45.3008 24.3301 45.3008H8.74219C9.80983 43.6271 14.2236 36.5059 11.2988 29.0654C11.9128 29.2499 12.5447 29.3923 13.1914 29.4893C15.6672 36.0642 13.8496 42.9023 13.8496 42.9023L21.1719 43.0957C18.2212 37.4718 16.5046 32.8979 15.5146 29.6377C17.5171 29.5969 19.4143 29.126 21.1182 28.3105Z" fill="#F6CA2C"/>
<path d="M91.1557 43.7061C91.1557 43.7061 95.2556 29.4918 96.1479 26.6358C96.5177 25.4499 96.397 24.7399 96.1237 24.3042C96.1237 24.3042 95.5367 22.6827 92.6021 22.6828C90.7207 22.6829 89.764 23.1831 89.362 23.4977C89.1529 23.6591 89.0565 23.8366 89.0565 23.8366C88.8716 24.2723 89.1449 24.5224 89.5469 25.079C89.949 25.6357 89.6113 26.4183 89.6113 26.4183L85.5677 40.1646C85.5677 40.1646 84.5467 42.8351 85.3508 44.7955C86.1549 46.7237 88.3418 47.2157 89.4513 47.1834C90.5689 47.1511 90.8101 46.78 90.8101 46.78C91.0593 46.4411 90.9065 45.9732 90.9065 45.9732C90.9065 45.9732 90.8422 45.6908 90.8743 45.352C90.8743 44.5775 91.1557 43.7061 91.1557 43.7061ZM94.9175 20.6012C96.6461 20.5689 98.037 19.1086 98.0048 17.3417C97.9725 15.5991 96.5172 14.2034 94.7645 14.2358C93.0359 14.2601 91.645 15.7284 91.6773 17.4953C91.7095 19.2702 93.1568 20.6658 94.9175 20.6012ZM139.285 44.403C139.285 44.403 134.727 43.8001 130.361 43.421C125.987 43.042 123.592 42.8808 123.592 42.8808C123.592 42.8808 125.307 37.8142 126.915 34.8291C128.885 31.1017 130.875 27.2864 130.875 27.2864C130.996 27.0686 131.092 26.7943 131.06 26.5119C131.06 25.2291 129.613 25.0517 129.613 25.0517C129.613 25.0517 127.868 24.8823 124.877 24.6808C121.356 24.4469 118.619 24.3598 118.732 24.3679C118.579 24.4002 118.458 24.4889 118.426 24.6503C118.426 24.6503 118.298 25.5216 118.917 26.4816C119.721 27.724 121.538 27.8773 121.538 27.8773L124.266 28.1176C124.266 28.1176 123.003 30.4844 121.179 33.5583C118.992 37.2292 116.122 43.3438 116.122 43.3438C115.91 43.7938 115.791 44.1952 115.823 44.6309C115.855 45.7523 116.742 46.5144 117.819 46.4821L117.915 46.4821C117.915 46.4821 122.94 46.5051 129.203 46.3193C135.691 46.3193 139.309 45.9923 139.309 45.9923C139.711 45.96 140.025 45.6131 140.025 45.2097C140.025 44.7498 139.687 44.4029 139.285 44.403ZM112.566 44.4556C112.566 44.4556 112.261 44.4233 112.229 43.9877C112.229 43.3665 112.478 42.713 112.478 42.713L116.24 30.1768C116.554 29.2167 117.164 23.9646 111.89 23.4969C109.695 23.3114 107.999 23.9004 106.672 24.804C106.64 24.7072 106.584 24.6185 106.552 24.5217C106.552 24.5217 105.965 22.9081 103.03 22.9083C101.149 22.9083 100.192 23.4086 99.7899 23.7152C99.5648 23.8846 99.4844 24.0621 99.4844 24.0621C99.2995 24.4977 99.5729 24.7398 99.9749 25.3045C100.377 25.8612 100.039 26.6357 100.039 26.6357L96.2368 39.4946C96.2368 39.4946 95.2158 42.165 96.0199 44.1255C96.824 46.0536 99.0189 46.5457 100.128 46.5133C101.238 46.4891 101.487 46.1099 101.487 46.1099C101.728 45.7711 101.576 45.3031 101.576 45.3031C101.576 45.3031 101.511 45.0208 101.543 44.6819C101.543 43.9397 101.825 43.0684 101.825 43.0684C101.825 43.0684 104.172 34.6548 105.683 29.8061C105.997 28.967 106.801 27.4744 108.312 27.4744C110.443 27.442 109.511 30.3061 109.511 30.3061L106.89 39.1069C106.89 39.1069 105.563 42.6245 106.335 44.6091C107.107 46.5695 109.511 46.3194 110.629 46.3193C111.425 46.3193 112.944 45.7948 112.944 45.0849C112.944 44.7218 112.816 44.5524 112.566 44.4556Z" fill="url(#paint0_linear_19689_31252)"/>
<path d="M89.1803 13.7996C87.8967 13.0401 86.1176 13.0075 84.306 14.6002C82.4945 16.1848 81.341 20.2522 81.341 20.2522L76.9668 34.7827C76.9668 34.7827 76.2594 19.575 76.1211 15.5077C76.0479 13.474 76.0479 12.2407 72.709 12.2082C70.085 12.1756 69.6707 13.4824 68.566 15.312C68.3466 15.7285 66.6083 18.7914 64.2851 24.0267C61.4257 30.6016 58.3147 38.5012 58.3147 38.5012C58.3147 38.5012 58.5579 34.0402 59.0858 27.9555C59.6054 21.8708 60.2024 19.2653 60.6085 16.7498C60.6816 16.3087 60.7059 15.9412 60.7059 15.5328C60.7058 13.5563 59.2354 12.0127 57.2694 11.9801L57.2369 11.9475L41.2026 11.7603C40.7639 11.7603 40.4228 12.1115 40.4553 12.5525C40.4553 12.9364 40.7396 13.2549 41.0808 13.3202L41.0808 13.3529C41.0808 13.3529 50.204 15.4434 51.3251 15.672C52.4868 15.9252 52.235 16.9706 52.235 16.9706C52.235 16.9706 51.6116 21.4137 50.9295 28.9196C50.5559 33.0523 50.3187 37.1406 50.3118 40.2862C50.2697 41.9793 50.3434 43.6185 50.9966 45.0723C51.5354 46.3629 53.6033 49.1728 57.056 49.8178C60.1593 50.0872 60.5411 49.5073 61.4265 47.5961C61.4265 47.5961 65.3906 39.9384 67.137 36.1552C68.9159 31.5896 70.9873 26.5747 70.9873 26.5747C70.9873 26.5747 71.1013 33.2475 71.7596 40.7043C72.2555 47.0258 73.5228 47.452 77.1867 48.2033C78.5596 48.4891 79.1851 46.4227 79.1851 46.4227C79.1851 46.4227 82.4911 36.4486 84.0019 31.1724C85.5127 25.9044 89.0991 15.5883 89.3997 14.8205C89.6921 14.0446 89.3346 13.8976 89.1803 13.7996Z" fill="url(#paint1_linear_19689_31252)"/>
<path d="M154.791 44.7953L151.952 44.292C151.356 44.193 150.882 43.7557 150.785 43.145L150.254 40.1826C150.181 39.7782 149.854 39.4729 149.454 39.4729C149.054 39.4729 148.687 39.7783 148.646 40.1826L148.116 43.1451C147.985 43.7558 147.512 44.1932 146.916 44.2922L144.077 44.7957C143.677 44.8617 143.383 45.2001 143.383 45.6044C143.383 46.0088 143.677 46.3801 144.077 46.4131L146.884 46.9164C147.553 47.0154 148.051 47.5187 148.149 48.1954L148.647 50.9928C148.72 51.3889 149.055 51.6942 149.455 51.6942C149.855 51.6942 150.222 51.3889 150.254 50.9928L150.752 48.1953C150.817 47.5186 151.315 47.0152 151.984 46.9162L154.791 46.4127C155.191 46.3797 155.485 46.0083 155.485 45.604C155.485 45.1996 155.191 44.8283 154.791 44.7953Z" fill="#FFF1A8"/>
<path d="M136.695 25.454L136.731 25.454L137.095 26.1155L137.821 26.1155L137.349 25.3805C137.458 25.3438 137.531 25.2703 137.603 25.16C137.676 25.0498 137.712 24.9395 137.712 24.8293C137.712 24.6455 137.64 24.4985 137.531 24.3883C137.422 24.278 137.24 24.2045 137.022 24.2046L136.004 24.2046L136.004 26.1523L136.659 26.1523L136.659 25.454L136.695 25.454ZM136.695 24.7558L136.949 24.7558C137.058 24.7558 137.095 24.7925 137.095 24.866C137.095 24.9395 137.058 25.013 136.949 25.013L136.695 25.0131L136.695 24.7558ZM135.859 26.924C136.15 27.1078 136.513 27.1813 136.877 27.1812C137.24 27.1812 137.603 27.1077 137.894 26.924C138.185 26.7402 138.439 26.5197 138.585 26.2257C138.766 25.9317 138.839 25.5642 138.839 25.1967C138.839 24.8292 138.766 24.4617 138.585 24.1677C138.403 23.8738 138.185 23.6165 137.894 23.4695C137.603 23.2858 137.24 23.2123 136.877 23.2123C136.513 23.2123 136.15 23.2859 135.859 23.4696C135.568 23.6534 135.314 23.8739 135.168 24.1679C134.987 24.4619 134.914 24.7926 134.914 25.1969C134.914 25.5644 134.987 25.9318 135.169 26.2258C135.314 26.5198 135.532 26.7771 135.859 26.924ZM135.823 24.1311C136.077 23.8738 136.44 23.7268 136.877 23.7268C137.313 23.7268 137.676 23.8738 137.93 24.131C138.185 24.3882 138.33 24.7557 138.33 25.1967C138.33 25.6377 138.185 26.0052 137.931 26.2625C137.676 26.5197 137.313 26.6667 136.877 26.6668C136.441 26.6668 136.077 26.5198 135.823 26.2626C135.568 26.0053 135.423 25.6378 135.423 25.1969C135.423 24.7559 135.568 24.4251 135.823 24.1311Z" fill="#F6C538"/>
<path d="M16.4502 15.3395C16.5268 15.3526 16.804 15.5742 16.883 15.632C17.9352 16.4021 18.8834 17.2804 19.8201 18.1831C19.6609 18.902 19.5335 19.6334 19.3496 20.3481C19.1721 21.0381 18.9515 21.7225 18.7815 22.4142C17.5219 23.0391 15.8364 23.5461 14.4265 23.7083C14.4265 23.7083 14.3434 23.6639 14.3362 23.66C13.0565 22.8544 11.8763 21.9038 10.8197 20.8276C11.0979 19.3637 11.362 18.2755 11.7605 16.8411L16.4502 15.3395Z" fill="#F6CA2C"/>
<path d="M20.6011 8.67149C20.662 8.66931 20.7446 8.74358 20.795 8.78156C21.9933 9.68396 23.0333 10.7236 24.0507 11.8345C24.1459 13.635 24.1296 14.3975 23.8486 16.1808C22.7794 16.7519 21.6142 17.2598 20.5021 17.7278C20.4033 17.7732 20.3545 17.8073 20.2666 17.7227C20.0965 17.559 19.931 17.3901 19.7635 17.2234C19.4578 16.9183 19.1475 16.6182 18.8329 16.3231C18.2585 15.7838 17.6518 15.3185 17.0403 14.8278L17.1106 12.6592C17.1539 11.7816 17.2046 10.9045 17.263 10.0278C18.4412 9.38706 19.3423 9.04399 20.6011 8.67149Z" fill="#F6CA2C"/>
<path d="M8.58877 13.0273L8.62837 13.0216C8.69655 13.0482 9.26429 13.9414 9.35314 14.076L11.1271 16.7641C10.7338 18.1366 10.4911 19.2669 10.2237 20.6622C9.78767 20.7645 9.29263 20.8885 8.8556 20.9602C8.43326 21.0295 7.92232 21.0609 7.48949 21.0957C7.35996 21.1015 7.25256 21.1152 7.12466 21.1317C6.17981 20.0666 5.54192 19.0168 4.96942 17.7208C5.04758 16.8454 5.12798 15.968 5.35906 15.1189C5.50095 14.5976 5.66355 14.0899 5.82943 13.5763C6.73893 13.3437 7.66001 13.1604 8.58877 13.0273Z" fill="#F6CA2C"/>
<path d="M14.9268 4.4263C15.0921 4.40508 15.4408 4.42169 15.6186 4.43173C16.8721 4.50248 18.2452 4.85617 19.3607 5.43802C19.5038 5.96381 19.7005 6.51053 19.8437 7.03906C19.9464 7.41784 20.0332 7.81992 20.1202 8.20397C18.8113 8.56407 18.1827 8.85003 16.9799 9.41844L16.6808 9.56611C15.0847 8.91963 13.9266 8.59919 12.274 8.2062C12.2026 7.41648 12.0119 6.53533 11.8489 5.75995C12.8076 5.16968 13.8439 4.72066 14.9268 4.4263Z" fill="#F6CA2C"/>
<path d="M11.062 6.21263C11.0943 6.20646 11.1286 6.20765 11.1619 6.20689C11.2869 6.34205 11.544 8.22439 11.5917 8.57498C10.5116 9.73456 9.51837 10.978 8.62065 12.2944C7.71563 12.425 6.81763 12.6035 5.93012 12.829C5.86601 12.8461 5.84156 12.8494 5.77545 12.8548C5.62219 12.715 5.43112 10.5946 5.40759 10.2856C6.06747 9.00252 7.26593 7.56667 8.43483 6.77153C8.80304 6.52107 10.5837 6.26391 11.062 6.21263Z" fill="#F6CA2C"/>
<path d="M18.8979 23.2727C19.7092 23.7318 20.6966 24.007 21.6158 24.0811C21.2453 24.9506 21.22 25.0314 20.4046 25.5153C19.0665 26.3136 17.5711 26.7989 16.0265 26.936C15.0816 27.0302 14.2151 26.953 13.2787 26.8339C13.9773 26.0445 14.2968 25.5966 14.6899 24.5764C16.148 24.3561 17.5661 23.9167 18.8979 23.2727Z" fill="#F6CA2C"/>
<path d="M25.4368 11.2023C25.474 11.259 25.512 11.3506 25.539 11.4138C26.4701 13.5915 26.6598 16.0452 26.1012 18.3393C26.0005 18.7527 25.8812 19.1262 25.743 19.5253C25.6765 19.5806 25.6043 19.6461 25.5215 19.6428L25.4985 19.5737C25.2373 18.1931 25.0469 17.7529 24.4283 16.5055C24.7222 14.7841 24.8056 13.6791 24.6603 11.9419L25.4368 11.2023Z" fill="#F6CA2C"/>
<path d="M4.07422 17.6559C4.18487 17.6751 4.33516 17.714 4.44806 17.7394C4.91906 18.7658 5.33865 19.5454 6.01952 20.4581C6.27649 20.8025 6.66248 21.2478 6.88715 21.5711C6.96743 21.6867 7.21016 22.5355 7.30236 22.7676C7.5324 23.3468 7.74639 23.7341 8.04627 24.276C7.78963 24.1286 7.31393 23.6338 7.0914 23.4033C5.55925 21.8143 4.51244 19.8203 4.07422 17.6559Z" fill="#F6CA2C"/>
<path d="M25.4029 20.1387L25.4227 20.1704C25.3704 20.3366 25.1774 20.7185 25.0911 20.8847C24.391 22.2333 23.4758 23.3082 22.2956 24.2763L22.2878 24.2735L22.2781 24.2437C22.5525 23.6324 22.699 23.6155 23.1622 23.1668C23.5053 22.8341 23.8257 22.4798 24.1215 22.1065C24.6189 21.4839 24.9933 20.8159 25.4029 20.1387Z" fill="#F6CA2C"/>
<path d="M3.02679 25.6382C3.0747 25.6449 3.0831 25.6451 3.12132 25.6706C3.13903 25.7627 3.13269 25.8228 3.13922 25.9124C3.2289 27.155 3.66706 28.1233 5.21348 28.3465C5.3481 28.3659 5.79073 28.3792 5.87072 28.4443C5.7911 28.5121 5.35854 28.5259 5.22336 28.5447C5.09154 28.5632 4.96121 28.5887 4.83293 28.621C3.36426 28.9964 3.21753 30.1082 3.11889 31.2511C3.09596 31.248 3.03425 31.2396 3.02809 31.2178C2.98651 31.0721 2.99621 30.8928 2.98167 30.7418C2.93673 30.2796 2.8189 29.8119 2.53847 29.4117C1.81076 28.3732 0.431211 28.6006 0.257812 28.4465C0.294543 28.3815 0.500942 28.3835 0.582048 28.3792C1.57993 28.3275 2.39528 27.9477 2.7486 27.1019C2.96787 26.5774 2.97514 26.179 3.02679 25.6382Z" fill="white"/>
<path d="M29.8792 5.8916C29.9391 5.89996 29.9496 5.90026 29.9974 5.93209C30.0195 6.04719 30.0116 6.12237 30.0197 6.23443C30.1318 7.78757 30.6795 8.99805 32.6126 9.27694C32.7808 9.30122 33.3341 9.31787 33.4341 9.39931C33.3346 9.48401 32.7939 9.50122 32.6249 9.52475C32.4601 9.54783 32.2972 9.57971 32.1369 9.62014C30.301 10.0894 30.1176 11.4792 29.9943 12.9077C29.9657 12.9039 29.8885 12.8934 29.8808 12.8661C29.8288 12.684 29.841 12.4599 29.8228 12.2711C29.7666 11.6934 29.6193 11.1088 29.2688 10.6085C28.3592 9.31043 26.6347 9.59461 26.418 9.40194C26.4639 9.32074 26.7219 9.32319 26.8233 9.31791C28.0706 9.25319 29.0898 8.77851 29.5315 7.72123C29.8055 7.06563 29.8146 6.56757 29.8792 5.8916Z" fill="white"/>
<path d="M30.5536 21.6431C30.5814 21.6475 30.5862 21.6477 30.6084 21.6646C30.6186 21.726 30.615 21.7661 30.6187 21.8258C30.6707 22.6537 30.9246 23.299 31.8206 23.4477C31.8986 23.4606 32.1551 23.4695 32.2014 23.5129C32.1553 23.558 31.9046 23.5672 31.8263 23.5798C31.7499 23.5921 31.6744 23.609 31.6001 23.6306C30.7491 23.8808 30.6641 24.6216 30.607 25.3831C30.5937 25.3811 30.5579 25.3755 30.5544 25.3609C30.5303 25.2638 30.5359 25.1444 30.5275 25.0437C30.5014 24.7358 30.4331 24.4241 30.2707 24.1575C29.849 23.4655 29.0497 23.617 28.9492 23.5143C28.9705 23.471 29.0901 23.4723 29.1371 23.4695C29.7153 23.435 30.1877 23.182 30.3924 22.6184C30.5195 22.2689 30.5237 22.0034 30.5536 21.6431Z" fill="white"/>
<path d="M28.475 51.592L5.09375 51.5941L6.49698 49.7073H26.8438L28.475 51.592Z" fill="url(#paint2_linear_19689_31252)"/>
<path d="M26.1421 48.3041H7.19859L8.09913 46.9009H25.3118L26.1421 48.3041Z" fill="url(#paint3_linear_19689_31252)"/>
<defs>
<linearGradient id="paint0_linear_19689_31252" x1="14.9851" y1="37.118" x2="106.385" y2="63.5228" gradientUnits="userSpaceOnUse">
<stop stop-color="#FFE03A"/>
<stop offset="1" stop-color="#EBB019"/>
</linearGradient>
<linearGradient id="paint1_linear_19689_31252" x1="14.9851" y1="37.118" x2="106.385" y2="63.5228" gradientUnits="userSpaceOnUse">
<stop stop-color="#FFE03A"/>
<stop offset="1" stop-color="#EBB019"/>
</linearGradient>
<linearGradient id="paint2_linear_19689_31252" x1="12.5747" y1="29.5709" x2="12.5747" y2="51.5941" gradientUnits="userSpaceOnUse">
<stop stop-color="#CFA600"/>
<stop offset="1" stop-color="#FFE273"/>
</linearGradient>
<linearGradient id="paint3_linear_19689_31252" x1="12.5747" y1="29.5709" x2="12.5747" y2="51.5941" gradientUnits="userSpaceOnUse">
<stop stop-color="#CFA600"/>
<stop offset="1" stop-color="#FFE273"/>
</linearGradient>
</defs>
</svg>
