<svg width="181" height="30" viewBox="0 0 181 30" fill="none" xmlns="http://www.w3.org/2000/svg">
<g clip-path="url(#clip0_172_23160)">
<path d="M21.9985 22.2601H9.26502L22.6281 6.97533C22.8254 6.75128 22.9354 6.45888 22.9354 6.15888V1.76142C22.9354 1.07787 22.3816 0.523438 21.6988 0.523438H1.64848C0.965718 0.523438 0.411921 1.07787 0.411921 1.76142V6.20065C0.411921 6.88419 0.965718 7.43862 1.64848 7.43862H12.9747L-0.145666 22.7234C-0.339114 22.9475 -0.445312 23.2323 -0.445312 23.5285V27.9298C-0.445312 28.6133 0.108473 29.1677 0.791231 29.1677H22.0023C22.685 29.1677 23.2388 28.6133 23.2388 27.9298V23.4905C23.2388 22.807 22.685 22.2526 22.0023 22.2526L21.9985 22.2601Z" fill="#FFE703"/>
<path d="M33.9628 0.527344H28.5842C27.9013 0.527344 27.3477 1.0816 27.3477 1.76531V27.9375C27.3477 28.6212 27.9013 29.1754 28.5842 29.1754H33.9628C34.6458 29.1754 35.1994 28.6212 35.1994 27.9375V1.76531C35.1994 1.0816 34.6458 0.527344 33.9628 0.527344Z" fill="#FFE703"/>
<path d="M61.6782 22.2601H48.9447L62.3078 6.97533C62.5051 6.75128 62.6151 6.45888 62.6151 6.15888V1.76142C62.6151 1.07787 62.0613 0.523438 61.3785 0.523438H41.3282C40.6454 0.523438 40.0916 1.07787 40.0916 1.76142V6.20065C40.0916 6.88419 40.6454 7.43862 41.3282 7.43862H52.6544L39.534 22.7234C39.3406 22.9475 39.2344 23.2323 39.2344 23.5285V27.9298C39.2344 28.6133 39.7882 29.1677 40.4709 29.1677H61.682C62.3647 29.1677 62.9185 28.6133 62.9185 27.9298V23.4905C62.9185 22.807 62.3647 22.2526 61.682 22.2526L61.6782 22.2601Z" fill="#FFE703"/>
<path d="M94.2075 8.86263C93.4565 7.02466 92.3906 5.44111 91.0137 4.08921C89.6406 2.74491 88.0134 1.7006 86.1472 0.9563C84.2734 0.211997 82.2175 -0.160156 79.9872 -0.160156C77.7568 -0.160156 75.7048 0.211997 73.8272 0.9563C71.9534 1.7006 70.3337 2.74491 68.9606 4.08921C67.5875 5.44111 66.5179 7.01706 65.7592 8.83985C65.0082 10.6588 64.6289 12.6601 64.6289 14.8285C64.6289 16.9968 65.0082 19.0133 65.7592 20.8399C66.5179 22.6778 67.5951 24.2614 68.9834 25.6133C70.3641 26.9576 71.9989 28.0019 73.8727 28.7462C75.7389 29.4905 77.7948 29.8626 80.0251 29.8626C82.2554 29.8626 84.2999 29.4905 86.1586 28.7462C88.0172 28.0019 89.633 26.9576 91.0099 25.6133C92.383 24.2614 93.4527 22.6854 94.2037 20.8626C94.9623 19.0436 95.3417 17.05 95.3417 14.874C95.3417 12.6981 94.9623 10.6892 94.2037 8.86263H94.2075ZM92.2275 15.5044C85.8437 15.5044 80.6699 20.6842 80.6699 27.0829H79.3613C79.3613 20.6804 74.1799 15.5044 67.7961 15.5044V14.1943C74.1799 14.1943 79.3613 9.01453 79.3613 2.62339H80.6699C80.6699 9.01453 85.8437 14.1943 92.2275 14.1943V15.5044Z" fill="#FFE703"/>
<path d="M121.001 15.797C119.973 14.8172 118.641 14.1944 117.007 13.921C117.549 13.7501 118.065 13.5147 118.535 13.1995C119.434 12.5919 120.136 11.7982 120.637 10.8109C121.137 9.82354 121.388 8.71468 121.388 7.4843C121.388 5.25139 120.538 3.52734 118.835 2.33114C117.136 1.12355 114.697 0.527344 111.518 0.527344H100.526C99.8467 0.527344 99.2891 1.07797 99.2891 1.76531V27.9337C99.2891 28.621 99.8467 29.1716 100.526 29.1716H111.177C114.894 29.1716 117.796 28.4425 119.882 26.9805C121.968 25.5223 123.019 23.4944 123.019 20.8856C123.019 18.7666 122.34 17.0653 120.997 15.797H121.001ZM106.928 6.20075H110.274C111.366 6.20075 112.197 6.44379 112.789 6.92987C113.369 7.41595 113.669 8.10329 113.669 8.99189C113.669 9.61468 113.525 10.1501 113.233 10.5792C112.948 11.0083 112.546 11.3463 112.011 11.5894C111.484 11.8324 110.831 11.9539 110.061 11.9539H106.925V6.20075H106.928ZM110.835 23.5096H106.932V17.1489H110.835C112.243 17.1489 113.286 17.4147 113.972 17.9425C114.659 18.478 115 19.2678 115 20.3311C115 22.4501 113.608 23.5096 110.839 23.5096H110.835Z" fill="#9109F3"/>
<path d="M146.794 22.4727H134.387V17.6613H142.675C143.358 17.6613 143.911 17.1069 143.911 16.4233V12.8423C143.911 12.1588 143.358 11.6043 142.675 11.6043H134.387V7.22206H145.762C146.445 7.22206 146.999 6.66764 146.999 5.98409V1.75751C146.999 1.07397 146.445 0.519531 145.762 0.519531H127.901C127.218 0.519531 126.664 1.07397 126.664 1.75751V27.9297C126.664 28.6132 127.218 29.1676 127.901 29.1676H146.794C147.477 29.1676 148.031 28.6132 148.031 27.9297V23.7031C148.031 23.0195 147.477 22.4651 146.794 22.4651V22.4727Z" fill="#9109F3"/>
<path d="M173.995 0.527344H151.24C150.558 0.527344 150.004 1.08177 150.004 1.76531V6.20455C150.004 6.8881 150.558 7.44253 151.24 7.44253H158.713V27.9375C158.713 28.621 159.267 29.1754 159.949 29.1754H165.328C166.011 29.1754 166.565 28.621 166.565 27.9375V7.44253H173.995C174.678 7.44253 175.232 6.8881 175.232 6.20455V1.76531C175.232 1.08177 174.678 0.527344 173.995 0.527344Z" fill="#9109F3"/>
</g>
<defs>
<clipPath id="clip0_172_23160">
<rect width="181" height="30" fill="white"/>
</clipPath>
</defs>
</svg>
